G04 #@! TF.GenerationSoftware,KiCad,Pcbnew,(5.1.4)-1*
G04 #@! TF.CreationDate,2021-06-08T22:07:55-07:00*
G04 #@! TF.ProjectId,Build,4275696c-642e-46b6-9963-61645f706362,rev?*
G04 #@! TF.SameCoordinates,Original*
G04 #@! TF.FileFunction,Copper,L1,Top*
G04 #@! TF.FilePolarity,Positive*
%FSLAX46Y46*%
G04 Gerber Fmt 4.6, Leading zero omitted, Abs format (unit mm)*
G04 Created by KiCad (PCBNEW (5.1.4)-1) date 2021-06-08 22:07:55*
%MOMM*%
%LPD*%
G04 APERTURE LIST*
%ADD10C,4.400000*%
%ADD11O,10.000000X4.500000*%
%ADD12C,2.250000*%
%ADD13O,1.000000X2.100000*%
%ADD14O,1.000000X1.600000*%
%ADD15C,0.600000*%
%ADD16C,0.381000*%
%ADD17C,0.254000*%
G04 APERTURE END LIST*
D10*
X271907000Y-44577000D03*
D11*
X299402500Y-73279000D03*
X15938500Y-73279000D03*
D12*
X38795960Y-77726540D03*
X32445960Y-80266540D03*
D10*
X143383000Y-63627000D03*
D12*
X55420260Y-39613840D03*
X49070260Y-42153840D03*
X281607260Y-58676540D03*
X275257260Y-61216540D03*
X31556960Y-39626540D03*
X25206960Y-42166540D03*
X88757760Y-77726540D03*
X82407760Y-80266540D03*
X284032960Y-20576540D03*
X277682960Y-23116540D03*
X34036000Y-58674000D03*
X27686000Y-61214000D03*
D13*
X29233400Y-21524700D03*
X37873400Y-21524700D03*
D14*
X29233400Y-17344700D03*
X37873400Y-17344700D03*
D12*
X69656960Y-77726540D03*
X63306960Y-80266540D03*
X150644860Y-39613840D03*
X144294860Y-42153840D03*
X53032660Y-96738440D03*
X46682660Y-99278440D03*
X74470260Y-39575740D03*
X68120260Y-42115740D03*
X126832360Y-77675740D03*
X120482360Y-80215740D03*
X274495260Y-77751940D03*
X268145260Y-80291940D03*
X169745660Y-39588440D03*
X163395660Y-42128440D03*
X131632960Y-39639240D03*
X125282960Y-42179240D03*
X143256000Y-106934000D03*
X149606000Y-104394000D03*
X79181960Y-58676540D03*
X72831960Y-61216540D03*
X248345960Y-77726540D03*
X241995960Y-80266540D03*
X293557960Y-96776540D03*
X287207960Y-99316540D03*
X217332560Y-96738440D03*
X210982560Y-99278440D03*
X112570260Y-39575740D03*
X106220260Y-42115740D03*
X226857560Y-39613840D03*
X220507560Y-42153840D03*
X207769460Y-39613840D03*
X201419460Y-42153840D03*
X164970460Y-77713840D03*
X158620460Y-80253840D03*
X184020460Y-77739240D03*
X177670460Y-80279240D03*
X255457960Y-96738440D03*
X249107960Y-99278440D03*
X212595460Y-58651140D03*
X206245460Y-61191140D03*
X193532760Y-58651140D03*
X187182760Y-61191140D03*
X174508160Y-58676540D03*
X168158160Y-61216540D03*
X188772800Y-39629080D03*
X182422800Y-42169080D03*
X155432760Y-58676540D03*
X149082760Y-61216540D03*
X136370060Y-58676540D03*
X130020060Y-61216540D03*
X236420660Y-96725740D03*
X230070660Y-99265740D03*
X117332760Y-58638440D03*
X110982760Y-61178440D03*
X26870660Y-20551140D03*
X20520660Y-23091140D03*
X93520260Y-39639240D03*
X87170260Y-42179240D03*
X274507960Y-96725740D03*
X268157960Y-99265740D03*
X98295460Y-58638440D03*
X91945460Y-61178440D03*
X29270960Y-96776540D03*
X22920960Y-99316540D03*
X107769660Y-77713840D03*
X101419660Y-80253840D03*
X145882360Y-77739240D03*
X139532360Y-80279240D03*
X76895960Y-96776540D03*
X70545960Y-99316540D03*
X60220860Y-58651140D03*
X53870860Y-61191140D03*
X264919460Y-39563040D03*
X258569460Y-42103040D03*
X288798000Y-39624000D03*
X282448000Y-42164000D03*
X245894860Y-39639240D03*
X239544860Y-42179240D03*
X255445260Y-20563840D03*
X249095260Y-23103840D03*
X231708960Y-58740040D03*
X225358960Y-61280040D03*
X293557960Y-77724000D03*
X287207960Y-80264000D03*
X236407960Y-20576540D03*
X230057960Y-23116540D03*
X250758960Y-58676540D03*
X244408960Y-61216540D03*
X198318120Y-20520660D03*
X191968120Y-23060660D03*
X179230020Y-20566380D03*
X172880020Y-23106380D03*
X160195260Y-20525740D03*
X153845260Y-23065740D03*
X141119860Y-20538440D03*
X134769860Y-23078440D03*
X122057160Y-20500340D03*
X115707160Y-23040340D03*
X103045260Y-20525740D03*
X96695260Y-23065740D03*
X84013040Y-20546060D03*
X77663040Y-23086060D03*
X64907160Y-20551140D03*
X58557160Y-23091140D03*
X45869860Y-20589240D03*
X39519860Y-23129240D03*
X217357960Y-20551140D03*
X211007960Y-23091140D03*
X222120460Y-77790040D03*
X215770460Y-80330040D03*
X203019660Y-77713840D03*
X196669660Y-80253840D03*
D15*
X34544000Y-26162000D03*
X26924000Y-58039000D03*
X37731700Y-23373080D03*
X29311600Y-23301960D03*
X48470600Y-63566040D03*
X37117020Y-44767500D03*
X34958020Y-60724000D03*
X52484020Y-47945040D03*
X29083000Y-59563000D03*
X38481000Y-29461680D03*
X45974000Y-44704000D03*
X29464000Y-35814000D03*
X50520600Y-63566040D03*
X37094160Y-46570900D03*
X36355020Y-57470040D03*
X37117020Y-53279040D03*
X54135020Y-51211700D03*
X24638000Y-35306000D03*
X36228020Y-49977040D03*
X243967000Y-33781000D03*
X258572000Y-33782000D03*
X31178500Y-41846500D03*
X34925000Y-42164000D03*
X42926000Y-34925000D03*
X48260000Y-33781000D03*
X58420000Y-51435000D03*
X25019000Y-51181000D03*
X34831020Y-50358040D03*
X60071000Y-46863000D03*
X70866000Y-69723000D03*
X27559000Y-69723000D03*
X33909000Y-51308000D03*
X51181000Y-69723000D03*
X65278000Y-69723000D03*
X60706000Y-90424000D03*
X40928599Y-84997599D03*
X36957000Y-24892000D03*
X32834400Y-26289000D03*
X50993349Y-67122349D03*
X30988000Y-49530000D03*
X33782000Y-48641000D03*
X30226000Y-27686000D03*
X32258000Y-25146000D03*
D16*
X37660580Y-23301960D02*
X37731700Y-23373080D01*
X29311600Y-23301960D02*
X37660580Y-23301960D01*
X28448000Y-59563000D02*
X26924000Y-58039000D01*
X29083000Y-59563000D02*
X28448000Y-59563000D01*
X35181320Y-26162000D02*
X38481000Y-29461680D01*
X34544000Y-26162000D02*
X35181320Y-26162000D01*
X45910500Y-44767500D02*
X45974000Y-44704000D01*
X37117020Y-44767500D02*
X45910500Y-44767500D01*
X37350939Y-57770039D02*
X36655019Y-57770039D01*
X37958041Y-57162937D02*
X37350939Y-57770039D01*
X37958041Y-54120061D02*
X37958041Y-57162937D01*
X37117020Y-53279040D02*
X37958041Y-54120061D01*
X37117020Y-46593760D02*
X37094160Y-46570900D01*
X37117020Y-53279040D02*
X37117020Y-46593760D01*
X36655019Y-57770039D02*
X36355020Y-57470040D01*
X38768020Y-59883040D02*
X36655019Y-57770039D01*
X46837600Y-59883040D02*
X38768020Y-59883040D01*
X50520600Y-63566040D02*
X46837600Y-59883040D01*
X53835021Y-52885619D02*
X46837600Y-59883040D01*
X53835021Y-51511699D02*
X53835021Y-52885619D01*
X54135020Y-51211700D02*
X53835021Y-51511699D01*
X36794161Y-46270901D02*
X37094160Y-46570900D01*
X36423319Y-45900059D02*
X36794161Y-46270901D01*
X36423319Y-42245221D02*
X36423319Y-45900059D01*
X29992098Y-35814000D02*
X36423319Y-42245221D01*
X29464000Y-35814000D02*
X29992098Y-35814000D01*
D17*
X35928021Y-49677041D02*
X36228020Y-49977040D01*
X31341061Y-45090081D02*
X35928021Y-49677041D01*
X31341061Y-42009061D02*
X31341061Y-42699939D01*
X24638000Y-35306000D02*
X31178500Y-41846500D01*
X258571000Y-33781000D02*
X258572000Y-33782000D01*
X243967000Y-33781000D02*
X258571000Y-33781000D01*
X31178500Y-41846500D02*
X31341061Y-42009061D01*
X31341061Y-42699939D02*
X31341061Y-45090081D01*
X34607500Y-41846500D02*
X34925000Y-42164000D01*
X44070000Y-33781000D02*
X48260000Y-33781000D01*
X42926000Y-34925000D02*
X44070000Y-33781000D01*
X31178500Y-41846500D02*
X34607500Y-41846500D01*
X25841960Y-50358040D02*
X34831020Y-50358040D01*
X25019000Y-51181000D02*
X25841960Y-50358040D01*
X34831020Y-50782304D02*
X34831020Y-50358040D01*
X34831020Y-56878738D02*
X34831020Y-50782304D01*
X53179357Y-64936341D02*
X42888623Y-64936341D01*
X55356759Y-62758939D02*
X53179357Y-64936341D01*
X55356759Y-54498241D02*
X55356759Y-62758939D01*
X42888623Y-64936341D02*
X34831020Y-56878738D01*
X58420000Y-51435000D02*
X55356759Y-54498241D01*
X60071000Y-46438736D02*
X60071000Y-46863000D01*
X60071000Y-42673590D02*
X60071000Y-46438736D01*
X57011250Y-39613840D02*
X60071000Y-42673590D01*
X55420260Y-39613840D02*
X57011250Y-39613840D01*
X27858999Y-69423001D02*
X27559000Y-69723000D01*
X29171899Y-68110101D02*
X27858999Y-69423001D01*
X29171899Y-61125101D02*
X29171899Y-68110101D01*
X33609001Y-56687999D02*
X29171899Y-61125101D01*
X33909000Y-51308000D02*
X33609001Y-51607999D01*
X33609001Y-51607999D02*
X33609001Y-56687999D01*
X30784798Y-69723000D02*
X29171899Y-68110101D01*
X51181000Y-69723000D02*
X30784798Y-69723000D01*
X65278000Y-69723000D02*
X70866000Y-69723000D01*
X60406001Y-90124001D02*
X60706000Y-90424000D01*
X55579598Y-85297598D02*
X60406001Y-90124001D01*
X41228598Y-85297598D02*
X55579598Y-85297598D01*
X40928599Y-84997599D02*
X41228598Y-85297598D01*
X34231400Y-24892000D02*
X32834400Y-26289000D01*
X36957000Y-24892000D02*
X34231400Y-24892000D01*
X187182760Y-70766940D02*
X196669660Y-80253840D01*
X187182760Y-61191140D02*
X187182760Y-70766940D01*
X182422800Y-56431180D02*
X187182760Y-61191140D01*
X182422800Y-42169080D02*
X182422800Y-56431180D01*
X172880020Y-32626300D02*
X182422800Y-42169080D01*
X172880020Y-23106380D02*
X172880020Y-32626300D01*
X210982560Y-97687450D02*
X210982560Y-99278440D01*
X210982560Y-83526950D02*
X210982560Y-97687450D01*
X214179470Y-80330040D02*
X210982560Y-83526950D01*
X215770460Y-80330040D02*
X214179470Y-80330040D01*
X206245460Y-70805040D02*
X215770460Y-80330040D01*
X206245460Y-61191140D02*
X206245460Y-70805040D01*
X201419460Y-56365140D02*
X206245460Y-61191140D01*
X201419460Y-42153840D02*
X201419460Y-56365140D01*
X191968120Y-32702500D02*
X201419460Y-42153840D01*
X191968120Y-23060660D02*
X191968120Y-32702500D01*
X240404970Y-80266540D02*
X241995960Y-80266540D01*
X231195659Y-89475851D02*
X240404970Y-80266540D01*
X230070660Y-99265740D02*
X231195659Y-98140741D01*
X231195659Y-98140741D02*
X231195659Y-89475851D01*
X225358960Y-63629540D02*
X241995960Y-80266540D01*
X225358960Y-61280040D02*
X225358960Y-63629540D01*
X220507560Y-56428640D02*
X225358960Y-61280040D01*
X220507560Y-42153840D02*
X220507560Y-56428640D01*
X219382561Y-41028841D02*
X220507560Y-42153840D01*
X212493859Y-34140139D02*
X219382561Y-41028841D01*
X212493859Y-26168029D02*
X212493859Y-34140139D01*
X211007960Y-24682130D02*
X212493859Y-26168029D01*
X211007960Y-23091140D02*
X211007960Y-24682130D01*
X50993349Y-67952929D02*
X63306960Y-80266540D01*
X50993349Y-67122349D02*
X50993349Y-67952929D01*
X49070260Y-28113338D02*
X49070260Y-42153840D01*
X39519860Y-23129240D02*
X44086162Y-23129240D01*
X44086162Y-23129240D02*
X49070260Y-28113338D01*
X54765221Y-58705789D02*
X53870860Y-59600150D01*
X54765221Y-50909203D02*
X54765221Y-58705789D01*
X54437517Y-50581499D02*
X54765221Y-50909203D01*
X53832523Y-50581499D02*
X54437517Y-50581499D01*
X51764691Y-48513667D02*
X53832523Y-50581499D01*
X53870860Y-59600150D02*
X53870860Y-61191140D01*
X51764691Y-47017941D02*
X51764691Y-48513667D01*
X49070260Y-44323510D02*
X51764691Y-47017941D01*
X49070260Y-42153840D02*
X49070260Y-44323510D01*
X82407760Y-87454740D02*
X82407760Y-80266540D01*
X70545960Y-99316540D02*
X82407760Y-87454740D01*
X72831960Y-70690740D02*
X72831960Y-61216540D01*
X82407760Y-80266540D02*
X72831960Y-70690740D01*
X71706961Y-60091541D02*
X72831960Y-61216540D01*
X69245259Y-57629839D02*
X71706961Y-60091541D01*
X69245259Y-43240739D02*
X69245259Y-57629839D01*
X68120260Y-42115740D02*
X69245259Y-43240739D01*
X58557160Y-32552640D02*
X68120260Y-42115740D01*
X58557160Y-23091140D02*
X58557160Y-32552640D01*
X91945460Y-70779640D02*
X101419660Y-80253840D01*
X91945460Y-61178440D02*
X91945460Y-70779640D01*
X87170260Y-56403240D02*
X91945460Y-61178440D01*
X87170260Y-42179240D02*
X87170260Y-56403240D01*
X77663040Y-32672020D02*
X87170260Y-42179240D01*
X77663040Y-23086060D02*
X77663040Y-32672020D01*
X110982760Y-70716140D02*
X120482360Y-80215740D01*
X110982760Y-61178440D02*
X110982760Y-70716140D01*
X106220260Y-56415940D02*
X110982760Y-61178440D01*
X106220260Y-42115740D02*
X106220260Y-56415940D01*
X96695260Y-32590740D02*
X106220260Y-42115740D01*
X96695260Y-23065740D02*
X96695260Y-32590740D01*
X149606000Y-102803010D02*
X149606000Y-104394000D01*
X149606000Y-102224330D02*
X149606000Y-102803010D01*
X139532360Y-92150690D02*
X149606000Y-102224330D01*
X139532360Y-80279240D02*
X139532360Y-92150690D01*
X130020060Y-70766940D02*
X139532360Y-80279240D01*
X130020060Y-61216540D02*
X130020060Y-70766940D01*
X125282960Y-56479440D02*
X130020060Y-61216540D01*
X125282960Y-42179240D02*
X125282960Y-56479440D01*
X115707160Y-32603440D02*
X125282960Y-42179240D01*
X115707160Y-23040340D02*
X115707160Y-32603440D01*
X149082760Y-70716140D02*
X158620460Y-80253840D01*
X149082760Y-61216540D02*
X149082760Y-70716140D01*
X144294860Y-56428640D02*
X149082760Y-61216540D01*
X144294860Y-42153840D02*
X144294860Y-56428640D01*
X134769860Y-32628840D02*
X144294860Y-42153840D01*
X134769860Y-23078440D02*
X134769860Y-32628840D01*
X168158160Y-70766940D02*
X177670460Y-80279240D01*
X168158160Y-61216540D02*
X168158160Y-70766940D01*
X163395660Y-56454040D02*
X168158160Y-61216540D01*
X163395660Y-42128440D02*
X163395660Y-56454040D01*
X153845260Y-32578040D02*
X163395660Y-42128440D01*
X153845260Y-23065740D02*
X153845260Y-32578040D01*
X244094000Y-61531500D02*
X244408960Y-61216540D01*
X244094000Y-62927882D02*
X244094000Y-61531500D01*
X252476000Y-71309882D02*
X244094000Y-62927882D01*
X249107960Y-99278440D02*
X252476000Y-95910400D01*
X252476000Y-95910400D02*
X252476000Y-71309882D01*
X239544860Y-56352440D02*
X244408960Y-61216540D01*
X239544860Y-42179240D02*
X239544860Y-56352440D01*
X230057960Y-32692340D02*
X239544860Y-42179240D01*
X230057960Y-23116540D02*
X230057960Y-32692340D01*
X287207960Y-81844830D02*
X287207960Y-99316540D01*
X287207960Y-80253840D02*
X287207960Y-81844830D01*
X275257260Y-68303140D02*
X287207960Y-80253840D01*
X275257260Y-61216540D02*
X275257260Y-68303140D01*
X282448000Y-54025800D02*
X282448000Y-42164000D01*
X275257260Y-61216540D02*
X282448000Y-54025800D01*
X277682960Y-37398960D02*
X282448000Y-42164000D01*
X277682960Y-23116540D02*
X277682960Y-37398960D01*
X268157960Y-80304640D02*
X268145260Y-80291940D01*
X268157960Y-99265740D02*
X268157960Y-80304640D01*
X258569460Y-70716140D02*
X268145260Y-80291940D01*
X258569460Y-42103040D02*
X258569460Y-70716140D01*
X259694459Y-40978041D02*
X258569460Y-42103040D01*
X259694459Y-33971761D02*
X259694459Y-40978041D01*
X258874497Y-33151799D02*
X259694459Y-33971761D01*
X253750799Y-33151799D02*
X258874497Y-33151799D01*
X249095260Y-28496260D02*
X253750799Y-33151799D01*
X249095260Y-23103840D02*
X249095260Y-28496260D01*
X26561001Y-60089001D02*
X27686000Y-61214000D01*
X22731759Y-56259759D02*
X26561001Y-60089001D01*
X22731759Y-43050751D02*
X22731759Y-56259759D01*
X23615970Y-42166540D02*
X22731759Y-43050751D01*
X25206960Y-42166540D02*
X23615970Y-42166540D01*
X31320961Y-79141541D02*
X32445960Y-80266540D01*
X25210799Y-73031379D02*
X31320961Y-79141541D01*
X25210799Y-63175503D02*
X25210799Y-73031379D01*
X26047303Y-62338999D02*
X25210799Y-63175503D01*
X26561001Y-62338999D02*
X26047303Y-62338999D01*
X27686000Y-61214000D02*
X26561001Y-62338999D01*
X24045959Y-98191541D02*
X22920960Y-99316540D01*
X26673811Y-95563689D02*
X24045959Y-98191541D01*
X26673811Y-84447699D02*
X26673811Y-95563689D01*
X30854970Y-80266540D02*
X26673811Y-84447699D01*
X32445960Y-80266540D02*
X30854970Y-80266540D01*
X32893000Y-49530000D02*
X30988000Y-49530000D01*
X33782000Y-48641000D02*
X32893000Y-49530000D01*
X30226000Y-27178000D02*
X30226000Y-27686000D01*
X32258000Y-25146000D02*
X30226000Y-27178000D01*
M02*
