M48
; DRILL file {KiCad (5.1.4)-1} date 6/8/2021 10:08:21 PM
; FORMAT={-:-/ absolute / inch / decimal}
; #@! TF.CreationDate,2021-06-08T22:08:21-07:00
; #@! TF.GenerationSoftware,Kicad,Pcbnew,(5.1.4)-1
; #@! TF.FileFunction,NonPlated,1,2,NPTH
FMAT,2
INCH
T1C0.0256
T2C0.0689
T3C0.1200
T4C0.1570
%
G90
G05
T1
X1.2072Y-0.8266
X1.4348Y-0.8266
T2
X6.7563Y-1.0097
X7.1563Y-1.0097
X5.0689Y-2.5101
X5.4689Y-2.5101
X10.1299Y-1.7576
X10.5299Y-1.7576
X9.7574Y-4.0086
X10.1574Y-4.0086
X6.1949Y-3.2596
X6.5949Y-3.2596
X5.6309Y-1.7596
X6.0309Y-1.7596
X10.8824Y-1.0101
X11.2824Y-1.0101
X8.0699Y-2.5091
X8.4699Y-2.5091
X10.5069Y-3.2611
X10.9069Y-3.2611
X2.4424Y-3.2601
X2.8424Y-3.2601
X8.2574Y-1.0091
X8.6574Y-1.0091
X5.54Y-4.01
X5.94Y-4.01
X0.9424Y-1.7601
X1.3424Y-1.7601
X6.0069Y-1.0081
X6.4069Y-1.0081
X3.3819Y-1.7606
X3.7819Y-1.7606
X3.7569Y-1.0081
X4.1569Y-1.0081
X9.7569Y-1.0096
X10.1569Y-1.0096
X9.0074Y-1.0101
X9.4074Y-1.0101
X7.3194Y-2.5091
X7.7194Y-2.5091
X7.5078Y-1.0079
X7.9078Y-1.0079
X9.0079Y-4.0081
X9.4079Y-4.0081
X0.8524Y-4.0101
X1.2524Y-4.0101
X4.3194Y-2.5086
X4.7194Y-2.5086
X11.07Y-1.76
X11.47Y-1.76
X8.6314Y-1.7596
X9.0314Y-1.7596
X9.4774Y-3.2601
X9.8774Y-3.2601
X1.7879Y-4.0086
X2.1879Y-4.0086
X1.04Y-2.51
X1.44Y-2.51
X6.5704Y-2.5101
X6.9704Y-2.5101
X6.3829Y-1.7586
X6.7829Y-1.7586
X7.6929Y-3.2596
X8.0929Y-3.2596
X2.6319Y-1.7581
X3.0319Y-1.7581
X1.8819Y-1.7596
X2.2819Y-1.7596
X5.2559Y-1.0086
X5.6559Y-1.0086
X2.0709Y-2.5091
X2.4709Y-2.5091
X10.7869Y-2.5101
X11.1869Y-2.5101
X3.0076Y-1.0089
X3.4076Y-1.0089
X8.8224Y-2.5126
X9.2224Y-2.5126
X3.9429Y-3.2596
X4.3429Y-3.2596
X5.8194Y-2.5101
X6.2194Y-2.5101
X2.7274Y-4.0101
X3.1274Y-4.0101
X8.2564Y-4.0086
X8.6564Y-4.0086
X10.5074Y-4.0081
X10.9074Y-4.0081
X0.7579Y-1.0091
X1.1579Y-1.0091
X9.3809Y-1.7606
X9.7809Y-1.7606
X7.8799Y-1.7596
X8.2799Y-1.7596
X2.8174Y-2.5101
X3.2174Y-2.5101
X3.1944Y-3.2601
X3.5944Y-3.2601
X6.9449Y-3.2606
X7.3449Y-3.2606
X4.6934Y-3.2581
X5.0934Y-3.2581
X1.5059Y-1.0106
X1.9059Y-1.0106
X7.132Y-1.7602
X7.532Y-1.7602
X4.8824Y-1.7606
X5.2824Y-1.7606
X1.2274Y-3.2601
X1.6274Y-3.2601
X4.5054Y-1.0071
X4.9054Y-1.0071
X5.4434Y-3.2606
X5.8434Y-3.2606
X2.2554Y-1.0091
X2.6554Y-1.0091
X3.5699Y-2.5086
X3.9699Y-2.5086
X8.4449Y-3.2626
X8.8449Y-3.2626
X11.2574Y-3.26
X11.6574Y-3.26
X4.1319Y-1.7581
X4.5319Y-1.7581
X9.5724Y-2.5101
X9.9724Y-2.5101
X11.2574Y-4.0101
X11.6574Y-4.0101
T3
X10.6136Y-0.7351
X11.5511Y-0.7351
X3.7715Y-4.285
X7.7085Y-4.285
X10.5182Y-2.2351
X11.4557Y-2.2351
X0.9587Y-2.9851
X1.8962Y-2.9851
T4
X8.2699Y-2.5091
X10.7069Y-3.2611
X2.6424Y-3.2601
X8.4574Y-1.0091
X3.7715Y-3.685
X5.74Y-4.01
X7.7085Y-3.685
X1.1424Y-1.7601
X6.2069Y-1.0081
X3.5819Y-1.7606
X3.9569Y-1.0081
X9.9569Y-1.0096
X9.2074Y-1.0101
X7.5194Y-2.5091
X7.7078Y-1.0079
X9.2079Y-4.0081
X1.0524Y-4.0101
X4.5194Y-2.5086
X11.27Y-1.76
X8.8314Y-1.7596
X9.6774Y-3.2601
X1.9879Y-4.0086
X1.24Y-2.51
X6.7704Y-2.5101
X6.5829Y-1.7586
X7.8929Y-3.2596
X2.8319Y-1.7581
X2.0819Y-1.7596
X5.4559Y-1.0086
X2.2709Y-2.5091
X10.5182Y-2.8351
X10.9869Y-2.5101
X11.4557Y-2.8351
X3.2076Y-1.0089
X9.0224Y-2.5126
X4.1429Y-3.2596
X6.0194Y-2.5101
X2.9274Y-4.0101
X8.4564Y-4.0086
X10.7074Y-4.0081
X0.9579Y-1.0091
X9.5809Y-1.7606
X8.0799Y-1.7596
X3.0174Y-2.5101
X3.3944Y-3.2601
X7.1449Y-3.2606
X4.8934Y-3.2581
X1.7059Y-1.0106
X7.332Y-1.7602
X5.0824Y-1.7606
X0.9587Y-3.5851
X1.4274Y-3.2601
X1.8962Y-3.5851
X4.7054Y-1.0071
X5.6434Y-3.2606
X2.4554Y-1.0091
X3.7699Y-2.5086
X8.6449Y-3.2626
X11.4574Y-3.26
X4.3319Y-1.7581
X9.7724Y-2.5101
X11.4574Y-4.0101
X6.9563Y-1.0097
X5.2689Y-2.5101
X10.3299Y-1.7576
X9.9574Y-4.0086
X6.3949Y-3.2596
X5.8309Y-1.7596
X10.6136Y-1.3351
X11.0824Y-1.0101
X11.5511Y-1.3351
T0
M30
