M48
; DRILL file {KiCad (5.1.4)-1} date 6/13/2021 7:42:32 PM
; FORMAT={-:-/ absolute / inch / decimal}
; #@! TF.CreationDate,2021-06-13T19:42:32-07:00
; #@! TF.GenerationSoftware,Kicad,Pcbnew,(5.1.4)-1
; #@! TF.FileFunction,Plated,1,2,PTH
FMAT,2
INCH
T1C0.0157
T2C0.0236
T3C0.0579
T4C0.0866
T5C0.0984
%
G90
G05
T1
X0.97Y-1.39
X0.985Y-2.015
X1.06Y-2.285
X1.085Y-2.745
X1.145Y-2.345
X1.154Y-0.9174
X1.16Y-1.41
X1.19Y-1.09
X1.22Y-1.95
X1.2275Y-1.6475
X1.27Y-0.99
X1.2927Y-1.035
X1.33Y-1.915
X1.335Y-2.02
X1.36Y-1.03
X1.3713Y-1.9826
X1.375Y-1.66
X1.3763Y-2.3907
X1.4263Y-1.9676
X1.4313Y-2.2626
X1.455Y-0.98
X1.4604Y-1.8335
X1.4613Y-1.7625
X1.4613Y-2.0976
X1.4855Y-0.9202
X1.515Y-1.1599
X1.6114Y-3.3464
X1.69Y-1.375
X1.81Y-1.76
X1.9Y-1.33
X1.9083Y-2.5026
X1.989Y-2.5026
X2.0076Y-2.6426
X2.015Y-2.745
X2.0663Y-1.8876
X2.1313Y-2.0162
X2.3Y-2.025
X2.365Y-1.845
X2.39Y-3.56
X2.57Y-2.745
X2.79Y-2.745
X9.605Y-1.33
X10.18Y-1.33
T3
X9.4309Y-1.6606
X9.6809Y-1.5606
X6.8063Y-0.9097
X7.0563Y-0.8097
X1.8379Y-3.9086
X2.0879Y-3.8086
X8.3074Y-0.9091
X8.5574Y-0.8091
X6.4329Y-1.6586
X6.6829Y-1.5586
X3.0576Y-0.9089
X3.3076Y-0.8089
X0.9924Y-1.6601
X1.2424Y-1.5601
X10.5569Y-3.1611
X10.8069Y-3.0611
X8.3064Y-3.9086
X8.5564Y-3.8086
X9.8069Y-0.9096
X10.0569Y-0.8096
X9.5274Y-3.1601
X9.7774Y-3.0601
X10.9324Y-0.9101
X11.1824Y-0.8101
X8.8724Y-2.4126
X9.1224Y-2.3126
X9.0579Y-3.9081
X9.3079Y-3.8081
X10.1799Y-1.6576
X10.4299Y-1.5576
X4.1819Y-1.6581
X4.4319Y-1.5581
X0.9024Y-3.9101
X1.1524Y-3.8101
X6.9949Y-3.1606
X7.2449Y-3.0606
X5.4934Y-3.1606
X5.7434Y-3.0606
X8.1199Y-2.4091
X8.3699Y-2.3091
X2.3054Y-0.9091
X2.5554Y-0.8091
X3.2444Y-3.1601
X3.4944Y-3.0601
X9.6224Y-2.4101
X9.8724Y-2.3101
X1.9319Y-1.6596
X2.1819Y-1.5596
X2.4924Y-3.1601
X2.7424Y-3.0601
X1.09Y-2.41
X1.34Y-2.31
X5.3059Y-0.9086
X5.5559Y-0.8086
X10.8369Y-2.4101
X11.0869Y-2.3101
X2.6819Y-1.6581
X2.9319Y-1.5581
X4.5554Y-0.9071
X4.8054Y-0.8071
X4.9324Y-1.6606
X5.1824Y-1.5606
X7.182Y-1.6602
X7.432Y-1.5602
X8.4949Y-3.1626
X8.7449Y-3.0626
X11.3074Y-3.9101
X11.5574Y-3.8101
X10.5574Y-3.9081
X10.8074Y-3.8081
X5.8694Y-2.4101
X6.1194Y-2.3101
X5.6809Y-1.6596
X5.9309Y-1.5596
X11.12Y-1.66
X11.37Y-1.56
X4.3694Y-2.4086
X4.6194Y-2.3086
X11.3074Y-3.16
X11.5574Y-3.06
X2.8674Y-2.4101
X3.1174Y-2.3101
X3.9929Y-3.1596
X4.2429Y-3.0596
X8.6814Y-1.6596
X8.9314Y-1.5596
X7.7429Y-3.1596
X7.9929Y-3.0596
X2.1209Y-2.4091
X2.3709Y-2.3091
X7.5578Y-0.9079
X7.8078Y-0.8079
X6.0569Y-0.9081
X6.3069Y-0.8081
X1.5559Y-0.9106
X1.8059Y-0.8106
X1.2774Y-3.1601
X1.5274Y-3.0601
X4.7434Y-3.1581
X4.9934Y-3.0581
X5.64Y-4.21
X5.89Y-4.11
X6.2449Y-3.1596
X6.4949Y-3.0596
X9.0574Y-0.9101
X9.3074Y-0.8101
X7.3694Y-2.4091
X7.6194Y-2.3091
X0.8079Y-0.9091
X1.0579Y-0.8091
X5.1189Y-2.4101
X5.3689Y-2.3101
X2.7774Y-3.9101
X3.0274Y-3.8101
X6.6204Y-2.4101
X6.8704Y-2.3101
X3.6199Y-2.4086
X3.8699Y-2.3086
X7.9299Y-1.6596
X8.1799Y-1.5596
X3.4319Y-1.6606
X3.6819Y-1.5606
X9.8074Y-3.9086
X10.0574Y-3.8086
X3.8069Y-0.9081
X4.0569Y-0.8081
T4
X5.645Y-2.505
X10.705Y-1.755
T2
G00X1.1509Y-0.6711
M15
G01X1.1509Y-0.6947
M16
G05
G00X1.1509Y-0.8258
M15
G01X1.1509Y-0.8691
M16
G05
G00X1.4911Y-0.6711
M15
G01X1.4911Y-0.6947
M16
G05
G00X1.4911Y-0.8258
M15
G01X1.4911Y-0.8691
M16
G05
T5
G00X11.6767Y-2.885
M15
G01X11.8933Y-2.885
M16
G05
G00X0.5217Y-2.885
M15
G01X0.7383Y-2.885
M16
G05
T0
M30
