G04 #@! TF.GenerationSoftware,KiCad,Pcbnew,(5.1.4)-1*
G04 #@! TF.CreationDate,2021-06-08T22:07:55-07:00*
G04 #@! TF.ProjectId,Build,4275696c-642e-46b6-9963-61645f706362,rev?*
G04 #@! TF.SameCoordinates,Original*
G04 #@! TF.FileFunction,Copper,L2,Bot*
G04 #@! TF.FilePolarity,Positive*
%FSLAX46Y46*%
G04 Gerber Fmt 4.6, Leading zero omitted, Abs format (unit mm)*
G04 Created by KiCad (PCBNEW (5.1.4)-1) date 2021-06-08 22:07:55*
%MOMM*%
%LPD*%
G04 APERTURE LIST*
%ADD10C,4.400000*%
%ADD11O,10.000000X4.500000*%
%ADD12C,2.250000*%
%ADD13C,0.100000*%
%ADD14C,1.150000*%
%ADD15R,1.200000X0.900000*%
%ADD16R,1.400000X1.000000*%
%ADD17R,1.400000X1.200000*%
%ADD18R,2.100000X1.800000*%
%ADD19R,0.600000X2.450000*%
%ADD20R,0.300000X2.450000*%
%ADD21O,1.000000X2.100000*%
%ADD22O,1.000000X1.600000*%
%ADD23R,0.550000X1.500000*%
%ADD24R,1.500000X0.550000*%
%ADD25R,1.800000X1.100000*%
%ADD26C,1.425000*%
%ADD27C,0.600000*%
%ADD28C,0.381000*%
%ADD29C,0.254000*%
%ADD30C,0.200000*%
G04 APERTURE END LIST*
D10*
X271907000Y-44577000D03*
D11*
X299402500Y-73279000D03*
X15938500Y-73279000D03*
D12*
X38795960Y-77726540D03*
X32445960Y-80266540D03*
D10*
X143383000Y-63627000D03*
D12*
X55420260Y-39613840D03*
X49070260Y-42153840D03*
X281607260Y-58676540D03*
X275257260Y-61216540D03*
X31556960Y-39626540D03*
X25206960Y-42166540D03*
D13*
G36*
X33301465Y-34221664D02*
G01*
X33325733Y-34225264D01*
X33349532Y-34231225D01*
X33372631Y-34239490D01*
X33394810Y-34249980D01*
X33415853Y-34262592D01*
X33435559Y-34277207D01*
X33453737Y-34293683D01*
X33470213Y-34311861D01*
X33484828Y-34331567D01*
X33497440Y-34352610D01*
X33507930Y-34374789D01*
X33516195Y-34397888D01*
X33522156Y-34421687D01*
X33525756Y-34445955D01*
X33526960Y-34470459D01*
X33526960Y-35120461D01*
X33525756Y-35144965D01*
X33522156Y-35169233D01*
X33516195Y-35193032D01*
X33507930Y-35216131D01*
X33497440Y-35238310D01*
X33484828Y-35259353D01*
X33470213Y-35279059D01*
X33453737Y-35297237D01*
X33435559Y-35313713D01*
X33415853Y-35328328D01*
X33394810Y-35340940D01*
X33372631Y-35351430D01*
X33349532Y-35359695D01*
X33325733Y-35365656D01*
X33301465Y-35369256D01*
X33276961Y-35370460D01*
X32376959Y-35370460D01*
X32352455Y-35369256D01*
X32328187Y-35365656D01*
X32304388Y-35359695D01*
X32281289Y-35351430D01*
X32259110Y-35340940D01*
X32238067Y-35328328D01*
X32218361Y-35313713D01*
X32200183Y-35297237D01*
X32183707Y-35279059D01*
X32169092Y-35259353D01*
X32156480Y-35238310D01*
X32145990Y-35216131D01*
X32137725Y-35193032D01*
X32131764Y-35169233D01*
X32128164Y-35144965D01*
X32126960Y-35120461D01*
X32126960Y-34470459D01*
X32128164Y-34445955D01*
X32131764Y-34421687D01*
X32137725Y-34397888D01*
X32145990Y-34374789D01*
X32156480Y-34352610D01*
X32169092Y-34331567D01*
X32183707Y-34311861D01*
X32200183Y-34293683D01*
X32218361Y-34277207D01*
X32238067Y-34262592D01*
X32259110Y-34249980D01*
X32281289Y-34239490D01*
X32304388Y-34231225D01*
X32328187Y-34225264D01*
X32352455Y-34221664D01*
X32376959Y-34220460D01*
X33276961Y-34220460D01*
X33301465Y-34221664D01*
X33301465Y-34221664D01*
G37*
D14*
X32826960Y-34795460D03*
D13*
G36*
X33301465Y-36271664D02*
G01*
X33325733Y-36275264D01*
X33349532Y-36281225D01*
X33372631Y-36289490D01*
X33394810Y-36299980D01*
X33415853Y-36312592D01*
X33435559Y-36327207D01*
X33453737Y-36343683D01*
X33470213Y-36361861D01*
X33484828Y-36381567D01*
X33497440Y-36402610D01*
X33507930Y-36424789D01*
X33516195Y-36447888D01*
X33522156Y-36471687D01*
X33525756Y-36495955D01*
X33526960Y-36520459D01*
X33526960Y-37170461D01*
X33525756Y-37194965D01*
X33522156Y-37219233D01*
X33516195Y-37243032D01*
X33507930Y-37266131D01*
X33497440Y-37288310D01*
X33484828Y-37309353D01*
X33470213Y-37329059D01*
X33453737Y-37347237D01*
X33435559Y-37363713D01*
X33415853Y-37378328D01*
X33394810Y-37390940D01*
X33372631Y-37401430D01*
X33349532Y-37409695D01*
X33325733Y-37415656D01*
X33301465Y-37419256D01*
X33276961Y-37420460D01*
X32376959Y-37420460D01*
X32352455Y-37419256D01*
X32328187Y-37415656D01*
X32304388Y-37409695D01*
X32281289Y-37401430D01*
X32259110Y-37390940D01*
X32238067Y-37378328D01*
X32218361Y-37363713D01*
X32200183Y-37347237D01*
X32183707Y-37329059D01*
X32169092Y-37309353D01*
X32156480Y-37288310D01*
X32145990Y-37266131D01*
X32137725Y-37243032D01*
X32131764Y-37219233D01*
X32128164Y-37194965D01*
X32126960Y-37170461D01*
X32126960Y-36520459D01*
X32128164Y-36495955D01*
X32131764Y-36471687D01*
X32137725Y-36447888D01*
X32145990Y-36424789D01*
X32156480Y-36402610D01*
X32169092Y-36381567D01*
X32183707Y-36361861D01*
X32200183Y-36343683D01*
X32218361Y-36327207D01*
X32238067Y-36312592D01*
X32259110Y-36299980D01*
X32281289Y-36289490D01*
X32304388Y-36281225D01*
X32328187Y-36275264D01*
X32352455Y-36271664D01*
X32376959Y-36270460D01*
X33276961Y-36270460D01*
X33301465Y-36271664D01*
X33301465Y-36271664D01*
G37*
D14*
X32826960Y-36845460D03*
D12*
X88757760Y-77726540D03*
X82407760Y-80266540D03*
D15*
X195834000Y-87223600D03*
X195834000Y-90523600D03*
D12*
X284032960Y-20576540D03*
X277682960Y-23116540D03*
X34036000Y-58674000D03*
X27686000Y-61214000D03*
D16*
X32834400Y-27513200D03*
X32834400Y-29413200D03*
X35034400Y-29413200D03*
D17*
X35034400Y-27693200D03*
D18*
X44234100Y-38921660D03*
X41334100Y-38921660D03*
X41334100Y-41221660D03*
X44234100Y-41221660D03*
D19*
X36778400Y-22939700D03*
X30328400Y-22939700D03*
X36003400Y-22939700D03*
X31103400Y-22939700D03*
D20*
X31803400Y-22939700D03*
X35303400Y-22939700D03*
X32303400Y-22939700D03*
X34803400Y-22939700D03*
X32803400Y-22939700D03*
X34303400Y-22939700D03*
X33803400Y-22939700D03*
X33303400Y-22939700D03*
D21*
X29233400Y-21524700D03*
X37873400Y-21524700D03*
D22*
X29233400Y-17344700D03*
X37873400Y-17344700D03*
D23*
X40769800Y-60132200D03*
X41569800Y-60132200D03*
X42369800Y-60132200D03*
X43169800Y-60132200D03*
X43969800Y-60132200D03*
X44769800Y-60132200D03*
X45569800Y-60132200D03*
X46369800Y-60132200D03*
X47169800Y-60132200D03*
X47969800Y-60132200D03*
X48769800Y-60132200D03*
D24*
X50469800Y-58432200D03*
X50469800Y-57632200D03*
X50469800Y-56832200D03*
X50469800Y-56032200D03*
X50469800Y-55232200D03*
X50469800Y-54432200D03*
X50469800Y-53632200D03*
X50469800Y-52832200D03*
X50469800Y-52032200D03*
X50469800Y-51232200D03*
X50469800Y-50432200D03*
D23*
X48769800Y-48732200D03*
X47969800Y-48732200D03*
X47169800Y-48732200D03*
X46369800Y-48732200D03*
X45569800Y-48732200D03*
X44769800Y-48732200D03*
X43969800Y-48732200D03*
X43169800Y-48732200D03*
X42369800Y-48732200D03*
X41569800Y-48732200D03*
X40769800Y-48732200D03*
D24*
X39069800Y-50432200D03*
X39069800Y-51232200D03*
X39069800Y-52032200D03*
X39069800Y-52832200D03*
X39069800Y-53632200D03*
X39069800Y-54432200D03*
X39069800Y-55232200D03*
X39069800Y-56032200D03*
X39069800Y-56832200D03*
X39069800Y-57632200D03*
X39069800Y-58432200D03*
D25*
X31014600Y-57095000D03*
X24814600Y-53395000D03*
X31014600Y-53395000D03*
X24814600Y-57095000D03*
D13*
G36*
X40375365Y-28887884D02*
G01*
X40399633Y-28891484D01*
X40423432Y-28897445D01*
X40446531Y-28905710D01*
X40468710Y-28916200D01*
X40489753Y-28928812D01*
X40509459Y-28943427D01*
X40527637Y-28959903D01*
X40544113Y-28978081D01*
X40558728Y-28997787D01*
X40571340Y-29018830D01*
X40581830Y-29041009D01*
X40590095Y-29064108D01*
X40596056Y-29087907D01*
X40599656Y-29112175D01*
X40600860Y-29136679D01*
X40600860Y-29786681D01*
X40599656Y-29811185D01*
X40596056Y-29835453D01*
X40590095Y-29859252D01*
X40581830Y-29882351D01*
X40571340Y-29904530D01*
X40558728Y-29925573D01*
X40544113Y-29945279D01*
X40527637Y-29963457D01*
X40509459Y-29979933D01*
X40489753Y-29994548D01*
X40468710Y-30007160D01*
X40446531Y-30017650D01*
X40423432Y-30025915D01*
X40399633Y-30031876D01*
X40375365Y-30035476D01*
X40350861Y-30036680D01*
X39450859Y-30036680D01*
X39426355Y-30035476D01*
X39402087Y-30031876D01*
X39378288Y-30025915D01*
X39355189Y-30017650D01*
X39333010Y-30007160D01*
X39311967Y-29994548D01*
X39292261Y-29979933D01*
X39274083Y-29963457D01*
X39257607Y-29945279D01*
X39242992Y-29925573D01*
X39230380Y-29904530D01*
X39219890Y-29882351D01*
X39211625Y-29859252D01*
X39205664Y-29835453D01*
X39202064Y-29811185D01*
X39200860Y-29786681D01*
X39200860Y-29136679D01*
X39202064Y-29112175D01*
X39205664Y-29087907D01*
X39211625Y-29064108D01*
X39219890Y-29041009D01*
X39230380Y-29018830D01*
X39242992Y-28997787D01*
X39257607Y-28978081D01*
X39274083Y-28959903D01*
X39292261Y-28943427D01*
X39311967Y-28928812D01*
X39333010Y-28916200D01*
X39355189Y-28905710D01*
X39378288Y-28897445D01*
X39402087Y-28891484D01*
X39426355Y-28887884D01*
X39450859Y-28886680D01*
X40350861Y-28886680D01*
X40375365Y-28887884D01*
X40375365Y-28887884D01*
G37*
D14*
X39900860Y-29461680D03*
D13*
G36*
X40375365Y-26837884D02*
G01*
X40399633Y-26841484D01*
X40423432Y-26847445D01*
X40446531Y-26855710D01*
X40468710Y-26866200D01*
X40489753Y-26878812D01*
X40509459Y-26893427D01*
X40527637Y-26909903D01*
X40544113Y-26928081D01*
X40558728Y-26947787D01*
X40571340Y-26968830D01*
X40581830Y-26991009D01*
X40590095Y-27014108D01*
X40596056Y-27037907D01*
X40599656Y-27062175D01*
X40600860Y-27086679D01*
X40600860Y-27736681D01*
X40599656Y-27761185D01*
X40596056Y-27785453D01*
X40590095Y-27809252D01*
X40581830Y-27832351D01*
X40571340Y-27854530D01*
X40558728Y-27875573D01*
X40544113Y-27895279D01*
X40527637Y-27913457D01*
X40509459Y-27929933D01*
X40489753Y-27944548D01*
X40468710Y-27957160D01*
X40446531Y-27967650D01*
X40423432Y-27975915D01*
X40399633Y-27981876D01*
X40375365Y-27985476D01*
X40350861Y-27986680D01*
X39450859Y-27986680D01*
X39426355Y-27985476D01*
X39402087Y-27981876D01*
X39378288Y-27975915D01*
X39355189Y-27967650D01*
X39333010Y-27957160D01*
X39311967Y-27944548D01*
X39292261Y-27929933D01*
X39274083Y-27913457D01*
X39257607Y-27895279D01*
X39242992Y-27875573D01*
X39230380Y-27854530D01*
X39219890Y-27832351D01*
X39211625Y-27809252D01*
X39205664Y-27785453D01*
X39202064Y-27761185D01*
X39200860Y-27736681D01*
X39200860Y-27086679D01*
X39202064Y-27062175D01*
X39205664Y-27037907D01*
X39211625Y-27014108D01*
X39219890Y-26991009D01*
X39230380Y-26968830D01*
X39242992Y-26947787D01*
X39257607Y-26928081D01*
X39274083Y-26909903D01*
X39292261Y-26893427D01*
X39311967Y-26878812D01*
X39333010Y-26866200D01*
X39355189Y-26855710D01*
X39378288Y-26847445D01*
X39402087Y-26841484D01*
X39426355Y-26837884D01*
X39450859Y-26836680D01*
X40350861Y-26836680D01*
X40375365Y-26837884D01*
X40375365Y-26837884D01*
G37*
D14*
X39900860Y-27411680D03*
D13*
G36*
X27255505Y-27495204D02*
G01*
X27279773Y-27498804D01*
X27303572Y-27504765D01*
X27326671Y-27513030D01*
X27348850Y-27523520D01*
X27369893Y-27536132D01*
X27389599Y-27550747D01*
X27407777Y-27567223D01*
X27424253Y-27585401D01*
X27438868Y-27605107D01*
X27451480Y-27626150D01*
X27461970Y-27648329D01*
X27470235Y-27671428D01*
X27476196Y-27695227D01*
X27479796Y-27719495D01*
X27481000Y-27743999D01*
X27481000Y-28644001D01*
X27479796Y-28668505D01*
X27476196Y-28692773D01*
X27470235Y-28716572D01*
X27461970Y-28739671D01*
X27451480Y-28761850D01*
X27438868Y-28782893D01*
X27424253Y-28802599D01*
X27407777Y-28820777D01*
X27389599Y-28837253D01*
X27369893Y-28851868D01*
X27348850Y-28864480D01*
X27326671Y-28874970D01*
X27303572Y-28883235D01*
X27279773Y-28889196D01*
X27255505Y-28892796D01*
X27231001Y-28894000D01*
X26580999Y-28894000D01*
X26556495Y-28892796D01*
X26532227Y-28889196D01*
X26508428Y-28883235D01*
X26485329Y-28874970D01*
X26463150Y-28864480D01*
X26442107Y-28851868D01*
X26422401Y-28837253D01*
X26404223Y-28820777D01*
X26387747Y-28802599D01*
X26373132Y-28782893D01*
X26360520Y-28761850D01*
X26350030Y-28739671D01*
X26341765Y-28716572D01*
X26335804Y-28692773D01*
X26332204Y-28668505D01*
X26331000Y-28644001D01*
X26331000Y-27743999D01*
X26332204Y-27719495D01*
X26335804Y-27695227D01*
X26341765Y-27671428D01*
X26350030Y-27648329D01*
X26360520Y-27626150D01*
X26373132Y-27605107D01*
X26387747Y-27585401D01*
X26404223Y-27567223D01*
X26422401Y-27550747D01*
X26442107Y-27536132D01*
X26463150Y-27523520D01*
X26485329Y-27513030D01*
X26508428Y-27504765D01*
X26532227Y-27498804D01*
X26556495Y-27495204D01*
X26580999Y-27494000D01*
X27231001Y-27494000D01*
X27255505Y-27495204D01*
X27255505Y-27495204D01*
G37*
D14*
X26906000Y-28194000D03*
D13*
G36*
X29305505Y-27495204D02*
G01*
X29329773Y-27498804D01*
X29353572Y-27504765D01*
X29376671Y-27513030D01*
X29398850Y-27523520D01*
X29419893Y-27536132D01*
X29439599Y-27550747D01*
X29457777Y-27567223D01*
X29474253Y-27585401D01*
X29488868Y-27605107D01*
X29501480Y-27626150D01*
X29511970Y-27648329D01*
X29520235Y-27671428D01*
X29526196Y-27695227D01*
X29529796Y-27719495D01*
X29531000Y-27743999D01*
X29531000Y-28644001D01*
X29529796Y-28668505D01*
X29526196Y-28692773D01*
X29520235Y-28716572D01*
X29511970Y-28739671D01*
X29501480Y-28761850D01*
X29488868Y-28782893D01*
X29474253Y-28802599D01*
X29457777Y-28820777D01*
X29439599Y-28837253D01*
X29419893Y-28851868D01*
X29398850Y-28864480D01*
X29376671Y-28874970D01*
X29353572Y-28883235D01*
X29329773Y-28889196D01*
X29305505Y-28892796D01*
X29281001Y-28894000D01*
X28630999Y-28894000D01*
X28606495Y-28892796D01*
X28582227Y-28889196D01*
X28558428Y-28883235D01*
X28535329Y-28874970D01*
X28513150Y-28864480D01*
X28492107Y-28851868D01*
X28472401Y-28837253D01*
X28454223Y-28820777D01*
X28437747Y-28802599D01*
X28423132Y-28782893D01*
X28410520Y-28761850D01*
X28400030Y-28739671D01*
X28391765Y-28716572D01*
X28385804Y-28692773D01*
X28382204Y-28668505D01*
X28381000Y-28644001D01*
X28381000Y-27743999D01*
X28382204Y-27719495D01*
X28385804Y-27695227D01*
X28391765Y-27671428D01*
X28400030Y-27648329D01*
X28410520Y-27626150D01*
X28423132Y-27605107D01*
X28437747Y-27585401D01*
X28454223Y-27567223D01*
X28472401Y-27550747D01*
X28492107Y-27536132D01*
X28513150Y-27523520D01*
X28535329Y-27513030D01*
X28558428Y-27504765D01*
X28582227Y-27498804D01*
X28606495Y-27495204D01*
X28630999Y-27494000D01*
X29281001Y-27494000D01*
X29305505Y-27495204D01*
X29305505Y-27495204D01*
G37*
D14*
X28956000Y-28194000D03*
D13*
G36*
X54449505Y-56373004D02*
G01*
X54473773Y-56376604D01*
X54497572Y-56382565D01*
X54520671Y-56390830D01*
X54542850Y-56401320D01*
X54563893Y-56413932D01*
X54583599Y-56428547D01*
X54601777Y-56445023D01*
X54618253Y-56463201D01*
X54632868Y-56482907D01*
X54645480Y-56503950D01*
X54655970Y-56526129D01*
X54664235Y-56549228D01*
X54670196Y-56573027D01*
X54673796Y-56597295D01*
X54675000Y-56621799D01*
X54675000Y-57271801D01*
X54673796Y-57296305D01*
X54670196Y-57320573D01*
X54664235Y-57344372D01*
X54655970Y-57367471D01*
X54645480Y-57389650D01*
X54632868Y-57410693D01*
X54618253Y-57430399D01*
X54601777Y-57448577D01*
X54583599Y-57465053D01*
X54563893Y-57479668D01*
X54542850Y-57492280D01*
X54520671Y-57502770D01*
X54497572Y-57511035D01*
X54473773Y-57516996D01*
X54449505Y-57520596D01*
X54425001Y-57521800D01*
X53524999Y-57521800D01*
X53500495Y-57520596D01*
X53476227Y-57516996D01*
X53452428Y-57511035D01*
X53429329Y-57502770D01*
X53407150Y-57492280D01*
X53386107Y-57479668D01*
X53366401Y-57465053D01*
X53348223Y-57448577D01*
X53331747Y-57430399D01*
X53317132Y-57410693D01*
X53304520Y-57389650D01*
X53294030Y-57367471D01*
X53285765Y-57344372D01*
X53279804Y-57320573D01*
X53276204Y-57296305D01*
X53275000Y-57271801D01*
X53275000Y-56621799D01*
X53276204Y-56597295D01*
X53279804Y-56573027D01*
X53285765Y-56549228D01*
X53294030Y-56526129D01*
X53304520Y-56503950D01*
X53317132Y-56482907D01*
X53331747Y-56463201D01*
X53348223Y-56445023D01*
X53366401Y-56428547D01*
X53386107Y-56413932D01*
X53407150Y-56401320D01*
X53429329Y-56390830D01*
X53452428Y-56382565D01*
X53476227Y-56376604D01*
X53500495Y-56373004D01*
X53524999Y-56371800D01*
X54425001Y-56371800D01*
X54449505Y-56373004D01*
X54449505Y-56373004D01*
G37*
D14*
X53975000Y-56946800D03*
D13*
G36*
X54449505Y-58423004D02*
G01*
X54473773Y-58426604D01*
X54497572Y-58432565D01*
X54520671Y-58440830D01*
X54542850Y-58451320D01*
X54563893Y-58463932D01*
X54583599Y-58478547D01*
X54601777Y-58495023D01*
X54618253Y-58513201D01*
X54632868Y-58532907D01*
X54645480Y-58553950D01*
X54655970Y-58576129D01*
X54664235Y-58599228D01*
X54670196Y-58623027D01*
X54673796Y-58647295D01*
X54675000Y-58671799D01*
X54675000Y-59321801D01*
X54673796Y-59346305D01*
X54670196Y-59370573D01*
X54664235Y-59394372D01*
X54655970Y-59417471D01*
X54645480Y-59439650D01*
X54632868Y-59460693D01*
X54618253Y-59480399D01*
X54601777Y-59498577D01*
X54583599Y-59515053D01*
X54563893Y-59529668D01*
X54542850Y-59542280D01*
X54520671Y-59552770D01*
X54497572Y-59561035D01*
X54473773Y-59566996D01*
X54449505Y-59570596D01*
X54425001Y-59571800D01*
X53524999Y-59571800D01*
X53500495Y-59570596D01*
X53476227Y-59566996D01*
X53452428Y-59561035D01*
X53429329Y-59552770D01*
X53407150Y-59542280D01*
X53386107Y-59529668D01*
X53366401Y-59515053D01*
X53348223Y-59498577D01*
X53331747Y-59480399D01*
X53317132Y-59460693D01*
X53304520Y-59439650D01*
X53294030Y-59417471D01*
X53285765Y-59394372D01*
X53279804Y-59370573D01*
X53276204Y-59346305D01*
X53275000Y-59321801D01*
X53275000Y-58671799D01*
X53276204Y-58647295D01*
X53279804Y-58623027D01*
X53285765Y-58599228D01*
X53294030Y-58576129D01*
X53304520Y-58553950D01*
X53317132Y-58532907D01*
X53331747Y-58513201D01*
X53348223Y-58495023D01*
X53366401Y-58478547D01*
X53386107Y-58463932D01*
X53407150Y-58451320D01*
X53429329Y-58440830D01*
X53452428Y-58432565D01*
X53476227Y-58426604D01*
X53500495Y-58423004D01*
X53524999Y-58421800D01*
X54425001Y-58421800D01*
X54449505Y-58423004D01*
X54449505Y-58423004D01*
G37*
D14*
X53975000Y-58996800D03*
D13*
G36*
X35567145Y-34229284D02*
G01*
X35591413Y-34232884D01*
X35615212Y-34238845D01*
X35638311Y-34247110D01*
X35660490Y-34257600D01*
X35681533Y-34270212D01*
X35701239Y-34284827D01*
X35719417Y-34301303D01*
X35735893Y-34319481D01*
X35750508Y-34339187D01*
X35763120Y-34360230D01*
X35773610Y-34382409D01*
X35781875Y-34405508D01*
X35787836Y-34429307D01*
X35791436Y-34453575D01*
X35792640Y-34478079D01*
X35792640Y-35128081D01*
X35791436Y-35152585D01*
X35787836Y-35176853D01*
X35781875Y-35200652D01*
X35773610Y-35223751D01*
X35763120Y-35245930D01*
X35750508Y-35266973D01*
X35735893Y-35286679D01*
X35719417Y-35304857D01*
X35701239Y-35321333D01*
X35681533Y-35335948D01*
X35660490Y-35348560D01*
X35638311Y-35359050D01*
X35615212Y-35367315D01*
X35591413Y-35373276D01*
X35567145Y-35376876D01*
X35542641Y-35378080D01*
X34642639Y-35378080D01*
X34618135Y-35376876D01*
X34593867Y-35373276D01*
X34570068Y-35367315D01*
X34546969Y-35359050D01*
X34524790Y-35348560D01*
X34503747Y-35335948D01*
X34484041Y-35321333D01*
X34465863Y-35304857D01*
X34449387Y-35286679D01*
X34434772Y-35266973D01*
X34422160Y-35245930D01*
X34411670Y-35223751D01*
X34403405Y-35200652D01*
X34397444Y-35176853D01*
X34393844Y-35152585D01*
X34392640Y-35128081D01*
X34392640Y-34478079D01*
X34393844Y-34453575D01*
X34397444Y-34429307D01*
X34403405Y-34405508D01*
X34411670Y-34382409D01*
X34422160Y-34360230D01*
X34434772Y-34339187D01*
X34449387Y-34319481D01*
X34465863Y-34301303D01*
X34484041Y-34284827D01*
X34503747Y-34270212D01*
X34524790Y-34257600D01*
X34546969Y-34247110D01*
X34570068Y-34238845D01*
X34593867Y-34232884D01*
X34618135Y-34229284D01*
X34642639Y-34228080D01*
X35542641Y-34228080D01*
X35567145Y-34229284D01*
X35567145Y-34229284D01*
G37*
D14*
X35092640Y-34803080D03*
D13*
G36*
X35567145Y-36279284D02*
G01*
X35591413Y-36282884D01*
X35615212Y-36288845D01*
X35638311Y-36297110D01*
X35660490Y-36307600D01*
X35681533Y-36320212D01*
X35701239Y-36334827D01*
X35719417Y-36351303D01*
X35735893Y-36369481D01*
X35750508Y-36389187D01*
X35763120Y-36410230D01*
X35773610Y-36432409D01*
X35781875Y-36455508D01*
X35787836Y-36479307D01*
X35791436Y-36503575D01*
X35792640Y-36528079D01*
X35792640Y-37178081D01*
X35791436Y-37202585D01*
X35787836Y-37226853D01*
X35781875Y-37250652D01*
X35773610Y-37273751D01*
X35763120Y-37295930D01*
X35750508Y-37316973D01*
X35735893Y-37336679D01*
X35719417Y-37354857D01*
X35701239Y-37371333D01*
X35681533Y-37385948D01*
X35660490Y-37398560D01*
X35638311Y-37409050D01*
X35615212Y-37417315D01*
X35591413Y-37423276D01*
X35567145Y-37426876D01*
X35542641Y-37428080D01*
X34642639Y-37428080D01*
X34618135Y-37426876D01*
X34593867Y-37423276D01*
X34570068Y-37417315D01*
X34546969Y-37409050D01*
X34524790Y-37398560D01*
X34503747Y-37385948D01*
X34484041Y-37371333D01*
X34465863Y-37354857D01*
X34449387Y-37336679D01*
X34434772Y-37316973D01*
X34422160Y-37295930D01*
X34411670Y-37273751D01*
X34403405Y-37250652D01*
X34397444Y-37226853D01*
X34393844Y-37202585D01*
X34392640Y-37178081D01*
X34392640Y-36528079D01*
X34393844Y-36503575D01*
X34397444Y-36479307D01*
X34403405Y-36455508D01*
X34411670Y-36432409D01*
X34422160Y-36410230D01*
X34434772Y-36389187D01*
X34449387Y-36369481D01*
X34465863Y-36351303D01*
X34484041Y-36334827D01*
X34503747Y-36320212D01*
X34524790Y-36307600D01*
X34546969Y-36297110D01*
X34570068Y-36288845D01*
X34593867Y-36282884D01*
X34618135Y-36279284D01*
X34642639Y-36278080D01*
X35542641Y-36278080D01*
X35567145Y-36279284D01*
X35567145Y-36279284D01*
G37*
D14*
X35092640Y-36853080D03*
D13*
G36*
X35971005Y-48047104D02*
G01*
X35995273Y-48050704D01*
X36019072Y-48056665D01*
X36042171Y-48064930D01*
X36064350Y-48075420D01*
X36085393Y-48088032D01*
X36105099Y-48102647D01*
X36123277Y-48119123D01*
X36139753Y-48137301D01*
X36154368Y-48157007D01*
X36166980Y-48178050D01*
X36177470Y-48200229D01*
X36185735Y-48223328D01*
X36191696Y-48247127D01*
X36195296Y-48271395D01*
X36196500Y-48295899D01*
X36196500Y-48945901D01*
X36195296Y-48970405D01*
X36191696Y-48994673D01*
X36185735Y-49018472D01*
X36177470Y-49041571D01*
X36166980Y-49063750D01*
X36154368Y-49084793D01*
X36139753Y-49104499D01*
X36123277Y-49122677D01*
X36105099Y-49139153D01*
X36085393Y-49153768D01*
X36064350Y-49166380D01*
X36042171Y-49176870D01*
X36019072Y-49185135D01*
X35995273Y-49191096D01*
X35971005Y-49194696D01*
X35946501Y-49195900D01*
X35046499Y-49195900D01*
X35021995Y-49194696D01*
X34997727Y-49191096D01*
X34973928Y-49185135D01*
X34950829Y-49176870D01*
X34928650Y-49166380D01*
X34907607Y-49153768D01*
X34887901Y-49139153D01*
X34869723Y-49122677D01*
X34853247Y-49104499D01*
X34838632Y-49084793D01*
X34826020Y-49063750D01*
X34815530Y-49041571D01*
X34807265Y-49018472D01*
X34801304Y-48994673D01*
X34797704Y-48970405D01*
X34796500Y-48945901D01*
X34796500Y-48295899D01*
X34797704Y-48271395D01*
X34801304Y-48247127D01*
X34807265Y-48223328D01*
X34815530Y-48200229D01*
X34826020Y-48178050D01*
X34838632Y-48157007D01*
X34853247Y-48137301D01*
X34869723Y-48119123D01*
X34887901Y-48102647D01*
X34907607Y-48088032D01*
X34928650Y-48075420D01*
X34950829Y-48064930D01*
X34973928Y-48056665D01*
X34997727Y-48050704D01*
X35021995Y-48047104D01*
X35046499Y-48045900D01*
X35946501Y-48045900D01*
X35971005Y-48047104D01*
X35971005Y-48047104D01*
G37*
D14*
X35496500Y-48620900D03*
D13*
G36*
X35971005Y-45997104D02*
G01*
X35995273Y-46000704D01*
X36019072Y-46006665D01*
X36042171Y-46014930D01*
X36064350Y-46025420D01*
X36085393Y-46038032D01*
X36105099Y-46052647D01*
X36123277Y-46069123D01*
X36139753Y-46087301D01*
X36154368Y-46107007D01*
X36166980Y-46128050D01*
X36177470Y-46150229D01*
X36185735Y-46173328D01*
X36191696Y-46197127D01*
X36195296Y-46221395D01*
X36196500Y-46245899D01*
X36196500Y-46895901D01*
X36195296Y-46920405D01*
X36191696Y-46944673D01*
X36185735Y-46968472D01*
X36177470Y-46991571D01*
X36166980Y-47013750D01*
X36154368Y-47034793D01*
X36139753Y-47054499D01*
X36123277Y-47072677D01*
X36105099Y-47089153D01*
X36085393Y-47103768D01*
X36064350Y-47116380D01*
X36042171Y-47126870D01*
X36019072Y-47135135D01*
X35995273Y-47141096D01*
X35971005Y-47144696D01*
X35946501Y-47145900D01*
X35046499Y-47145900D01*
X35021995Y-47144696D01*
X34997727Y-47141096D01*
X34973928Y-47135135D01*
X34950829Y-47126870D01*
X34928650Y-47116380D01*
X34907607Y-47103768D01*
X34887901Y-47089153D01*
X34869723Y-47072677D01*
X34853247Y-47054499D01*
X34838632Y-47034793D01*
X34826020Y-47013750D01*
X34815530Y-46991571D01*
X34807265Y-46968472D01*
X34801304Y-46944673D01*
X34797704Y-46920405D01*
X34796500Y-46895901D01*
X34796500Y-46245899D01*
X34797704Y-46221395D01*
X34801304Y-46197127D01*
X34807265Y-46173328D01*
X34815530Y-46150229D01*
X34826020Y-46128050D01*
X34838632Y-46107007D01*
X34853247Y-46087301D01*
X34869723Y-46069123D01*
X34887901Y-46052647D01*
X34907607Y-46038032D01*
X34928650Y-46025420D01*
X34950829Y-46014930D01*
X34973928Y-46006665D01*
X34997727Y-46000704D01*
X35021995Y-45997104D01*
X35046499Y-45995900D01*
X35946501Y-45995900D01*
X35971005Y-45997104D01*
X35971005Y-45997104D01*
G37*
D14*
X35496500Y-46570900D03*
D12*
X69656960Y-77726540D03*
X63306960Y-80266540D03*
X150644860Y-39613840D03*
X144294860Y-42153840D03*
X53032660Y-96738440D03*
X46682660Y-99278440D03*
X74470260Y-39575740D03*
X68120260Y-42115740D03*
X126832360Y-77675740D03*
X120482360Y-80215740D03*
X274495260Y-77751940D03*
X268145260Y-80291940D03*
X169745660Y-39588440D03*
X163395660Y-42128440D03*
X131632960Y-39639240D03*
X125282960Y-42179240D03*
X143256000Y-106934000D03*
X149606000Y-104394000D03*
X79181960Y-58676540D03*
X72831960Y-61216540D03*
X248345960Y-77726540D03*
X241995960Y-80266540D03*
X293557960Y-96776540D03*
X287207960Y-99316540D03*
X217332560Y-96738440D03*
X210982560Y-99278440D03*
X112570260Y-39575740D03*
X106220260Y-42115740D03*
X226857560Y-39613840D03*
X220507560Y-42153840D03*
X207769460Y-39613840D03*
X201419460Y-42153840D03*
X164970460Y-77713840D03*
X158620460Y-80253840D03*
X184020460Y-77739240D03*
X177670460Y-80279240D03*
X255457960Y-96738440D03*
X249107960Y-99278440D03*
X212595460Y-58651140D03*
X206245460Y-61191140D03*
X193532760Y-58651140D03*
X187182760Y-61191140D03*
X174508160Y-58676540D03*
X168158160Y-61216540D03*
X188772800Y-39629080D03*
X182422800Y-42169080D03*
X155432760Y-58676540D03*
X149082760Y-61216540D03*
X136370060Y-58676540D03*
X130020060Y-61216540D03*
X236420660Y-96725740D03*
X230070660Y-99265740D03*
X117332760Y-58638440D03*
X110982760Y-61178440D03*
X26870660Y-20551140D03*
X20520660Y-23091140D03*
X93520260Y-39639240D03*
X87170260Y-42179240D03*
X274507960Y-96725740D03*
X268157960Y-99265740D03*
X98295460Y-58638440D03*
X91945460Y-61178440D03*
X29270960Y-96776540D03*
X22920960Y-99316540D03*
X107769660Y-77713840D03*
X101419660Y-80253840D03*
X145882360Y-77739240D03*
X139532360Y-80279240D03*
X76895960Y-96776540D03*
X70545960Y-99316540D03*
X60220860Y-58651140D03*
X53870860Y-61191140D03*
X264919460Y-39563040D03*
X258569460Y-42103040D03*
X288798000Y-39624000D03*
X282448000Y-42164000D03*
X245894860Y-39639240D03*
X239544860Y-42179240D03*
X255445260Y-20563840D03*
X249095260Y-23103840D03*
X231708960Y-58740040D03*
X225358960Y-61280040D03*
X293557960Y-77724000D03*
X287207960Y-80264000D03*
X236407960Y-20576540D03*
X230057960Y-23116540D03*
X250758960Y-58676540D03*
X244408960Y-61216540D03*
X198318120Y-20520660D03*
X191968120Y-23060660D03*
X179230020Y-20566380D03*
X172880020Y-23106380D03*
X160195260Y-20525740D03*
X153845260Y-23065740D03*
X141119860Y-20538440D03*
X134769860Y-23078440D03*
X122057160Y-20500340D03*
X115707160Y-23040340D03*
X103045260Y-20525740D03*
X96695260Y-23065740D03*
X84013040Y-20546060D03*
X77663040Y-23086060D03*
X64907160Y-20551140D03*
X58557160Y-23091140D03*
X45869860Y-20589240D03*
X39519860Y-23129240D03*
X217357960Y-20551140D03*
X211007960Y-23091140D03*
X222120460Y-77790040D03*
X215770460Y-80330040D03*
X203019660Y-77713840D03*
X196669660Y-80253840D03*
D13*
G36*
X30057624Y-30693264D02*
G01*
X30081893Y-30696864D01*
X30105691Y-30702825D01*
X30128791Y-30711090D01*
X30150969Y-30721580D01*
X30172013Y-30734193D01*
X30191718Y-30748807D01*
X30209897Y-30765283D01*
X30226373Y-30783462D01*
X30240987Y-30803167D01*
X30253600Y-30824211D01*
X30264090Y-30846389D01*
X30272355Y-30869489D01*
X30278316Y-30893287D01*
X30281916Y-30917556D01*
X30283120Y-30942060D01*
X30283120Y-31867060D01*
X30281916Y-31891564D01*
X30278316Y-31915833D01*
X30272355Y-31939631D01*
X30264090Y-31962731D01*
X30253600Y-31984909D01*
X30240987Y-32005953D01*
X30226373Y-32025658D01*
X30209897Y-32043837D01*
X30191718Y-32060313D01*
X30172013Y-32074927D01*
X30150969Y-32087540D01*
X30128791Y-32098030D01*
X30105691Y-32106295D01*
X30081893Y-32112256D01*
X30057624Y-32115856D01*
X30033120Y-32117060D01*
X28783120Y-32117060D01*
X28758616Y-32115856D01*
X28734347Y-32112256D01*
X28710549Y-32106295D01*
X28687449Y-32098030D01*
X28665271Y-32087540D01*
X28644227Y-32074927D01*
X28624522Y-32060313D01*
X28606343Y-32043837D01*
X28589867Y-32025658D01*
X28575253Y-32005953D01*
X28562640Y-31984909D01*
X28552150Y-31962731D01*
X28543885Y-31939631D01*
X28537924Y-31915833D01*
X28534324Y-31891564D01*
X28533120Y-31867060D01*
X28533120Y-30942060D01*
X28534324Y-30917556D01*
X28537924Y-30893287D01*
X28543885Y-30869489D01*
X28552150Y-30846389D01*
X28562640Y-30824211D01*
X28575253Y-30803167D01*
X28589867Y-30783462D01*
X28606343Y-30765283D01*
X28624522Y-30748807D01*
X28644227Y-30734193D01*
X28665271Y-30721580D01*
X28687449Y-30711090D01*
X28710549Y-30702825D01*
X28734347Y-30696864D01*
X28758616Y-30693264D01*
X28783120Y-30692060D01*
X30033120Y-30692060D01*
X30057624Y-30693264D01*
X30057624Y-30693264D01*
G37*
D26*
X29408120Y-31404560D03*
D13*
G36*
X30057624Y-33668264D02*
G01*
X30081893Y-33671864D01*
X30105691Y-33677825D01*
X30128791Y-33686090D01*
X30150969Y-33696580D01*
X30172013Y-33709193D01*
X30191718Y-33723807D01*
X30209897Y-33740283D01*
X30226373Y-33758462D01*
X30240987Y-33778167D01*
X30253600Y-33799211D01*
X30264090Y-33821389D01*
X30272355Y-33844489D01*
X30278316Y-33868287D01*
X30281916Y-33892556D01*
X30283120Y-33917060D01*
X30283120Y-34842060D01*
X30281916Y-34866564D01*
X30278316Y-34890833D01*
X30272355Y-34914631D01*
X30264090Y-34937731D01*
X30253600Y-34959909D01*
X30240987Y-34980953D01*
X30226373Y-35000658D01*
X30209897Y-35018837D01*
X30191718Y-35035313D01*
X30172013Y-35049927D01*
X30150969Y-35062540D01*
X30128791Y-35073030D01*
X30105691Y-35081295D01*
X30081893Y-35087256D01*
X30057624Y-35090856D01*
X30033120Y-35092060D01*
X28783120Y-35092060D01*
X28758616Y-35090856D01*
X28734347Y-35087256D01*
X28710549Y-35081295D01*
X28687449Y-35073030D01*
X28665271Y-35062540D01*
X28644227Y-35049927D01*
X28624522Y-35035313D01*
X28606343Y-35018837D01*
X28589867Y-35000658D01*
X28575253Y-34980953D01*
X28562640Y-34959909D01*
X28552150Y-34937731D01*
X28543885Y-34914631D01*
X28537924Y-34890833D01*
X28534324Y-34866564D01*
X28533120Y-34842060D01*
X28533120Y-33917060D01*
X28534324Y-33892556D01*
X28537924Y-33868287D01*
X28543885Y-33844489D01*
X28552150Y-33821389D01*
X28562640Y-33799211D01*
X28575253Y-33778167D01*
X28589867Y-33758462D01*
X28606343Y-33740283D01*
X28624522Y-33723807D01*
X28644227Y-33709193D01*
X28665271Y-33696580D01*
X28687449Y-33686090D01*
X28710549Y-33677825D01*
X28734347Y-33671864D01*
X28758616Y-33668264D01*
X28783120Y-33667060D01*
X30033120Y-33667060D01*
X30057624Y-33668264D01*
X30057624Y-33668264D01*
G37*
D26*
X29408120Y-34379560D03*
D15*
X285445200Y-104908080D03*
X285445200Y-108208080D03*
X266390120Y-104951260D03*
X266390120Y-108251260D03*
X247200420Y-104951260D03*
X247200420Y-108251260D03*
X228333300Y-104925860D03*
X228333300Y-108225860D03*
X209179160Y-104918240D03*
X209179160Y-108218240D03*
X137414000Y-104648000D03*
X137414000Y-107948000D03*
X69194680Y-105110280D03*
X69194680Y-108410280D03*
X45384720Y-105121440D03*
X45384720Y-108421440D03*
X22171660Y-105115360D03*
X22171660Y-108415360D03*
X286425640Y-87290640D03*
X286425640Y-90590640D03*
X267304520Y-87303340D03*
X267304520Y-90603340D03*
X241642900Y-87305880D03*
X241642900Y-90605880D03*
X214955120Y-87321120D03*
X214955120Y-90621120D03*
X176758600Y-87349060D03*
X176758600Y-90649060D03*
X157693360Y-87363300D03*
X157693360Y-90663300D03*
X138658600Y-87350600D03*
X138658600Y-90650600D03*
X119588280Y-87330280D03*
X119588280Y-90630280D03*
X100568760Y-87326200D03*
X100568760Y-90626200D03*
X81610200Y-87337900D03*
X81610200Y-90637900D03*
X62369700Y-87402400D03*
X62369700Y-90702400D03*
X31750000Y-87250000D03*
X31750000Y-90550000D03*
X295351200Y-66383900D03*
X295351200Y-69683900D03*
X253791720Y-66401680D03*
X253791720Y-69701680D03*
X234899200Y-66373740D03*
X234899200Y-69673740D03*
X215856820Y-66373740D03*
X215856820Y-69673740D03*
X196672200Y-66366120D03*
X196672200Y-69666120D03*
X177673000Y-66399140D03*
X177673000Y-69699140D03*
X158597600Y-66378820D03*
X158597600Y-69678820D03*
X139661900Y-66381360D03*
X139661900Y-69681360D03*
X120561100Y-66432160D03*
X120561100Y-69732160D03*
X101346000Y-66394060D03*
X101346000Y-69694060D03*
X82316320Y-66376280D03*
X82316320Y-69676280D03*
X63106300Y-66376280D03*
X63106300Y-69676280D03*
X25882600Y-66434700D03*
X25882600Y-69734700D03*
X280479500Y-47078900D03*
X280479500Y-50378900D03*
X256768600Y-47054500D03*
X256768600Y-50354500D03*
X237617000Y-47054500D03*
X237617000Y-50354500D03*
X218643200Y-47055500D03*
X218643200Y-50355500D03*
X199511920Y-46975760D03*
X199511920Y-50275760D03*
X180365400Y-47002700D03*
X180365400Y-50302700D03*
X161432240Y-46993540D03*
X161432240Y-50293540D03*
X142397480Y-46978300D03*
X142397480Y-50278300D03*
X123357640Y-46978300D03*
X123357640Y-50278300D03*
X104292400Y-46952900D03*
X104292400Y-50252900D03*
X85316060Y-46949360D03*
X85316060Y-50249360D03*
X65971420Y-46942740D03*
X65971420Y-50242740D03*
X58445400Y-46928500D03*
X58445400Y-50228500D03*
X23368000Y-47931800D03*
X23368000Y-51231800D03*
X289445700Y-30505400D03*
X289445700Y-33805400D03*
X261188200Y-30506400D03*
X261188200Y-33806400D03*
X242163600Y-30481000D03*
X242163600Y-33781000D03*
X223012000Y-30481000D03*
X223012000Y-33781000D03*
X204063600Y-30481000D03*
X204063600Y-33781000D03*
X185138060Y-30481000D03*
X185138060Y-33781000D03*
X166103300Y-30481000D03*
X166103300Y-33781000D03*
X146939000Y-30480000D03*
X146939000Y-33780000D03*
X128003300Y-30481000D03*
X128003300Y-33781000D03*
X109080300Y-30481000D03*
X109080300Y-33781000D03*
X89928700Y-30481000D03*
X89928700Y-33781000D03*
X70708520Y-30481000D03*
X70708520Y-33781000D03*
X51562000Y-30481000D03*
X51562000Y-33781000D03*
X24638000Y-30861000D03*
X24638000Y-34161000D03*
D13*
G36*
X36948905Y-60150204D02*
G01*
X36973173Y-60153804D01*
X36996972Y-60159765D01*
X37020071Y-60168030D01*
X37042250Y-60178520D01*
X37063293Y-60191132D01*
X37082999Y-60205747D01*
X37101177Y-60222223D01*
X37117653Y-60240401D01*
X37132268Y-60260107D01*
X37144880Y-60281150D01*
X37155370Y-60303329D01*
X37163635Y-60326428D01*
X37169596Y-60350227D01*
X37173196Y-60374495D01*
X37174400Y-60398999D01*
X37174400Y-61049001D01*
X37173196Y-61073505D01*
X37169596Y-61097773D01*
X37163635Y-61121572D01*
X37155370Y-61144671D01*
X37144880Y-61166850D01*
X37132268Y-61187893D01*
X37117653Y-61207599D01*
X37101177Y-61225777D01*
X37082999Y-61242253D01*
X37063293Y-61256868D01*
X37042250Y-61269480D01*
X37020071Y-61279970D01*
X36996972Y-61288235D01*
X36973173Y-61294196D01*
X36948905Y-61297796D01*
X36924401Y-61299000D01*
X36024399Y-61299000D01*
X35999895Y-61297796D01*
X35975627Y-61294196D01*
X35951828Y-61288235D01*
X35928729Y-61279970D01*
X35906550Y-61269480D01*
X35885507Y-61256868D01*
X35865801Y-61242253D01*
X35847623Y-61225777D01*
X35831147Y-61207599D01*
X35816532Y-61187893D01*
X35803920Y-61166850D01*
X35793430Y-61144671D01*
X35785165Y-61121572D01*
X35779204Y-61097773D01*
X35775604Y-61073505D01*
X35774400Y-61049001D01*
X35774400Y-60398999D01*
X35775604Y-60374495D01*
X35779204Y-60350227D01*
X35785165Y-60326428D01*
X35793430Y-60303329D01*
X35803920Y-60281150D01*
X35816532Y-60260107D01*
X35831147Y-60240401D01*
X35847623Y-60222223D01*
X35865801Y-60205747D01*
X35885507Y-60191132D01*
X35906550Y-60178520D01*
X35928729Y-60168030D01*
X35951828Y-60159765D01*
X35975627Y-60153804D01*
X35999895Y-60150204D01*
X36024399Y-60149000D01*
X36924401Y-60149000D01*
X36948905Y-60150204D01*
X36948905Y-60150204D01*
G37*
D14*
X36474400Y-60724000D03*
D13*
G36*
X36948905Y-58100204D02*
G01*
X36973173Y-58103804D01*
X36996972Y-58109765D01*
X37020071Y-58118030D01*
X37042250Y-58128520D01*
X37063293Y-58141132D01*
X37082999Y-58155747D01*
X37101177Y-58172223D01*
X37117653Y-58190401D01*
X37132268Y-58210107D01*
X37144880Y-58231150D01*
X37155370Y-58253329D01*
X37163635Y-58276428D01*
X37169596Y-58300227D01*
X37173196Y-58324495D01*
X37174400Y-58348999D01*
X37174400Y-58999001D01*
X37173196Y-59023505D01*
X37169596Y-59047773D01*
X37163635Y-59071572D01*
X37155370Y-59094671D01*
X37144880Y-59116850D01*
X37132268Y-59137893D01*
X37117653Y-59157599D01*
X37101177Y-59175777D01*
X37082999Y-59192253D01*
X37063293Y-59206868D01*
X37042250Y-59219480D01*
X37020071Y-59229970D01*
X36996972Y-59238235D01*
X36973173Y-59244196D01*
X36948905Y-59247796D01*
X36924401Y-59249000D01*
X36024399Y-59249000D01*
X35999895Y-59247796D01*
X35975627Y-59244196D01*
X35951828Y-59238235D01*
X35928729Y-59229970D01*
X35906550Y-59219480D01*
X35885507Y-59206868D01*
X35865801Y-59192253D01*
X35847623Y-59175777D01*
X35831147Y-59157599D01*
X35816532Y-59137893D01*
X35803920Y-59116850D01*
X35793430Y-59094671D01*
X35785165Y-59071572D01*
X35779204Y-59047773D01*
X35775604Y-59023505D01*
X35774400Y-58999001D01*
X35774400Y-58348999D01*
X35775604Y-58324495D01*
X35779204Y-58300227D01*
X35785165Y-58276428D01*
X35793430Y-58253329D01*
X35803920Y-58231150D01*
X35816532Y-58210107D01*
X35831147Y-58190401D01*
X35847623Y-58172223D01*
X35865801Y-58155747D01*
X35885507Y-58141132D01*
X35906550Y-58128520D01*
X35928729Y-58118030D01*
X35951828Y-58109765D01*
X35975627Y-58103804D01*
X35999895Y-58100204D01*
X36024399Y-58099000D01*
X36924401Y-58099000D01*
X36948905Y-58100204D01*
X36948905Y-58100204D01*
G37*
D14*
X36474400Y-58674000D03*
D13*
G36*
X52976305Y-48587904D02*
G01*
X53000573Y-48591504D01*
X53024372Y-48597465D01*
X53047471Y-48605730D01*
X53069650Y-48616220D01*
X53090693Y-48628832D01*
X53110399Y-48643447D01*
X53128577Y-48659923D01*
X53145053Y-48678101D01*
X53159668Y-48697807D01*
X53172280Y-48718850D01*
X53182770Y-48741029D01*
X53191035Y-48764128D01*
X53196996Y-48787927D01*
X53200596Y-48812195D01*
X53201800Y-48836699D01*
X53201800Y-49486701D01*
X53200596Y-49511205D01*
X53196996Y-49535473D01*
X53191035Y-49559272D01*
X53182770Y-49582371D01*
X53172280Y-49604550D01*
X53159668Y-49625593D01*
X53145053Y-49645299D01*
X53128577Y-49663477D01*
X53110399Y-49679953D01*
X53090693Y-49694568D01*
X53069650Y-49707180D01*
X53047471Y-49717670D01*
X53024372Y-49725935D01*
X53000573Y-49731896D01*
X52976305Y-49735496D01*
X52951801Y-49736700D01*
X52051799Y-49736700D01*
X52027295Y-49735496D01*
X52003027Y-49731896D01*
X51979228Y-49725935D01*
X51956129Y-49717670D01*
X51933950Y-49707180D01*
X51912907Y-49694568D01*
X51893201Y-49679953D01*
X51875023Y-49663477D01*
X51858547Y-49645299D01*
X51843932Y-49625593D01*
X51831320Y-49604550D01*
X51820830Y-49582371D01*
X51812565Y-49559272D01*
X51806604Y-49535473D01*
X51803004Y-49511205D01*
X51801800Y-49486701D01*
X51801800Y-48836699D01*
X51803004Y-48812195D01*
X51806604Y-48787927D01*
X51812565Y-48764128D01*
X51820830Y-48741029D01*
X51831320Y-48718850D01*
X51843932Y-48697807D01*
X51858547Y-48678101D01*
X51875023Y-48659923D01*
X51893201Y-48643447D01*
X51912907Y-48628832D01*
X51933950Y-48616220D01*
X51956129Y-48605730D01*
X51979228Y-48597465D01*
X52003027Y-48591504D01*
X52027295Y-48587904D01*
X52051799Y-48586700D01*
X52951801Y-48586700D01*
X52976305Y-48587904D01*
X52976305Y-48587904D01*
G37*
D14*
X52501800Y-49161700D03*
D13*
G36*
X52976305Y-50637904D02*
G01*
X53000573Y-50641504D01*
X53024372Y-50647465D01*
X53047471Y-50655730D01*
X53069650Y-50666220D01*
X53090693Y-50678832D01*
X53110399Y-50693447D01*
X53128577Y-50709923D01*
X53145053Y-50728101D01*
X53159668Y-50747807D01*
X53172280Y-50768850D01*
X53182770Y-50791029D01*
X53191035Y-50814128D01*
X53196996Y-50837927D01*
X53200596Y-50862195D01*
X53201800Y-50886699D01*
X53201800Y-51536701D01*
X53200596Y-51561205D01*
X53196996Y-51585473D01*
X53191035Y-51609272D01*
X53182770Y-51632371D01*
X53172280Y-51654550D01*
X53159668Y-51675593D01*
X53145053Y-51695299D01*
X53128577Y-51713477D01*
X53110399Y-51729953D01*
X53090693Y-51744568D01*
X53069650Y-51757180D01*
X53047471Y-51767670D01*
X53024372Y-51775935D01*
X53000573Y-51781896D01*
X52976305Y-51785496D01*
X52951801Y-51786700D01*
X52051799Y-51786700D01*
X52027295Y-51785496D01*
X52003027Y-51781896D01*
X51979228Y-51775935D01*
X51956129Y-51767670D01*
X51933950Y-51757180D01*
X51912907Y-51744568D01*
X51893201Y-51729953D01*
X51875023Y-51713477D01*
X51858547Y-51695299D01*
X51843932Y-51675593D01*
X51831320Y-51654550D01*
X51820830Y-51632371D01*
X51812565Y-51609272D01*
X51806604Y-51585473D01*
X51803004Y-51561205D01*
X51801800Y-51536701D01*
X51801800Y-50886699D01*
X51803004Y-50862195D01*
X51806604Y-50837927D01*
X51812565Y-50814128D01*
X51820830Y-50791029D01*
X51831320Y-50768850D01*
X51843932Y-50747807D01*
X51858547Y-50728101D01*
X51875023Y-50709923D01*
X51893201Y-50693447D01*
X51912907Y-50678832D01*
X51933950Y-50666220D01*
X51956129Y-50655730D01*
X51979228Y-50647465D01*
X52003027Y-50641504D01*
X52027295Y-50637904D01*
X52051799Y-50636700D01*
X52951801Y-50636700D01*
X52976305Y-50637904D01*
X52976305Y-50637904D01*
G37*
D14*
X52501800Y-51211700D03*
D13*
G36*
X39044405Y-44193704D02*
G01*
X39068673Y-44197304D01*
X39092472Y-44203265D01*
X39115571Y-44211530D01*
X39137750Y-44222020D01*
X39158793Y-44234632D01*
X39178499Y-44249247D01*
X39196677Y-44265723D01*
X39213153Y-44283901D01*
X39227768Y-44303607D01*
X39240380Y-44324650D01*
X39250870Y-44346829D01*
X39259135Y-44369928D01*
X39265096Y-44393727D01*
X39268696Y-44417995D01*
X39269900Y-44442499D01*
X39269900Y-45092501D01*
X39268696Y-45117005D01*
X39265096Y-45141273D01*
X39259135Y-45165072D01*
X39250870Y-45188171D01*
X39240380Y-45210350D01*
X39227768Y-45231393D01*
X39213153Y-45251099D01*
X39196677Y-45269277D01*
X39178499Y-45285753D01*
X39158793Y-45300368D01*
X39137750Y-45312980D01*
X39115571Y-45323470D01*
X39092472Y-45331735D01*
X39068673Y-45337696D01*
X39044405Y-45341296D01*
X39019901Y-45342500D01*
X38119899Y-45342500D01*
X38095395Y-45341296D01*
X38071127Y-45337696D01*
X38047328Y-45331735D01*
X38024229Y-45323470D01*
X38002050Y-45312980D01*
X37981007Y-45300368D01*
X37961301Y-45285753D01*
X37943123Y-45269277D01*
X37926647Y-45251099D01*
X37912032Y-45231393D01*
X37899420Y-45210350D01*
X37888930Y-45188171D01*
X37880665Y-45165072D01*
X37874704Y-45141273D01*
X37871104Y-45117005D01*
X37869900Y-45092501D01*
X37869900Y-44442499D01*
X37871104Y-44417995D01*
X37874704Y-44393727D01*
X37880665Y-44369928D01*
X37888930Y-44346829D01*
X37899420Y-44324650D01*
X37912032Y-44303607D01*
X37926647Y-44283901D01*
X37943123Y-44265723D01*
X37961301Y-44249247D01*
X37981007Y-44234632D01*
X38002050Y-44222020D01*
X38024229Y-44211530D01*
X38047328Y-44203265D01*
X38071127Y-44197304D01*
X38095395Y-44193704D01*
X38119899Y-44192500D01*
X39019901Y-44192500D01*
X39044405Y-44193704D01*
X39044405Y-44193704D01*
G37*
D14*
X38569900Y-44767500D03*
D13*
G36*
X39044405Y-46243704D02*
G01*
X39068673Y-46247304D01*
X39092472Y-46253265D01*
X39115571Y-46261530D01*
X39137750Y-46272020D01*
X39158793Y-46284632D01*
X39178499Y-46299247D01*
X39196677Y-46315723D01*
X39213153Y-46333901D01*
X39227768Y-46353607D01*
X39240380Y-46374650D01*
X39250870Y-46396829D01*
X39259135Y-46419928D01*
X39265096Y-46443727D01*
X39268696Y-46467995D01*
X39269900Y-46492499D01*
X39269900Y-47142501D01*
X39268696Y-47167005D01*
X39265096Y-47191273D01*
X39259135Y-47215072D01*
X39250870Y-47238171D01*
X39240380Y-47260350D01*
X39227768Y-47281393D01*
X39213153Y-47301099D01*
X39196677Y-47319277D01*
X39178499Y-47335753D01*
X39158793Y-47350368D01*
X39137750Y-47362980D01*
X39115571Y-47373470D01*
X39092472Y-47381735D01*
X39068673Y-47387696D01*
X39044405Y-47391296D01*
X39019901Y-47392500D01*
X38119899Y-47392500D01*
X38095395Y-47391296D01*
X38071127Y-47387696D01*
X38047328Y-47381735D01*
X38024229Y-47373470D01*
X38002050Y-47362980D01*
X37981007Y-47350368D01*
X37961301Y-47335753D01*
X37943123Y-47319277D01*
X37926647Y-47301099D01*
X37912032Y-47281393D01*
X37899420Y-47260350D01*
X37888930Y-47238171D01*
X37880665Y-47215072D01*
X37874704Y-47191273D01*
X37871104Y-47167005D01*
X37869900Y-47142501D01*
X37869900Y-46492499D01*
X37871104Y-46467995D01*
X37874704Y-46443727D01*
X37880665Y-46419928D01*
X37888930Y-46396829D01*
X37899420Y-46374650D01*
X37912032Y-46353607D01*
X37926647Y-46333901D01*
X37943123Y-46315723D01*
X37961301Y-46299247D01*
X37981007Y-46284632D01*
X38002050Y-46272020D01*
X38024229Y-46261530D01*
X38047328Y-46253265D01*
X38071127Y-46247304D01*
X38095395Y-46243704D01*
X38119899Y-46242500D01*
X39019901Y-46242500D01*
X39044405Y-46243704D01*
X39044405Y-46243704D01*
G37*
D14*
X38569900Y-46817500D03*
D13*
G36*
X48820105Y-61480404D02*
G01*
X48844373Y-61484004D01*
X48868172Y-61489965D01*
X48891271Y-61498230D01*
X48913450Y-61508720D01*
X48934493Y-61521332D01*
X48954199Y-61535947D01*
X48972377Y-61552423D01*
X48988853Y-61570601D01*
X49003468Y-61590307D01*
X49016080Y-61611350D01*
X49026570Y-61633529D01*
X49034835Y-61656628D01*
X49040796Y-61680427D01*
X49044396Y-61704695D01*
X49045600Y-61729199D01*
X49045600Y-62629201D01*
X49044396Y-62653705D01*
X49040796Y-62677973D01*
X49034835Y-62701772D01*
X49026570Y-62724871D01*
X49016080Y-62747050D01*
X49003468Y-62768093D01*
X48988853Y-62787799D01*
X48972377Y-62805977D01*
X48954199Y-62822453D01*
X48934493Y-62837068D01*
X48913450Y-62849680D01*
X48891271Y-62860170D01*
X48868172Y-62868435D01*
X48844373Y-62874396D01*
X48820105Y-62877996D01*
X48795601Y-62879200D01*
X48145599Y-62879200D01*
X48121095Y-62877996D01*
X48096827Y-62874396D01*
X48073028Y-62868435D01*
X48049929Y-62860170D01*
X48027750Y-62849680D01*
X48006707Y-62837068D01*
X47987001Y-62822453D01*
X47968823Y-62805977D01*
X47952347Y-62787799D01*
X47937732Y-62768093D01*
X47925120Y-62747050D01*
X47914630Y-62724871D01*
X47906365Y-62701772D01*
X47900404Y-62677973D01*
X47896804Y-62653705D01*
X47895600Y-62629201D01*
X47895600Y-61729199D01*
X47896804Y-61704695D01*
X47900404Y-61680427D01*
X47906365Y-61656628D01*
X47914630Y-61633529D01*
X47925120Y-61611350D01*
X47937732Y-61590307D01*
X47952347Y-61570601D01*
X47968823Y-61552423D01*
X47987001Y-61535947D01*
X48006707Y-61521332D01*
X48027750Y-61508720D01*
X48049929Y-61498230D01*
X48073028Y-61489965D01*
X48096827Y-61484004D01*
X48121095Y-61480404D01*
X48145599Y-61479200D01*
X48795601Y-61479200D01*
X48820105Y-61480404D01*
X48820105Y-61480404D01*
G37*
D14*
X48470600Y-62179200D03*
D13*
G36*
X50870105Y-61480404D02*
G01*
X50894373Y-61484004D01*
X50918172Y-61489965D01*
X50941271Y-61498230D01*
X50963450Y-61508720D01*
X50984493Y-61521332D01*
X51004199Y-61535947D01*
X51022377Y-61552423D01*
X51038853Y-61570601D01*
X51053468Y-61590307D01*
X51066080Y-61611350D01*
X51076570Y-61633529D01*
X51084835Y-61656628D01*
X51090796Y-61680427D01*
X51094396Y-61704695D01*
X51095600Y-61729199D01*
X51095600Y-62629201D01*
X51094396Y-62653705D01*
X51090796Y-62677973D01*
X51084835Y-62701772D01*
X51076570Y-62724871D01*
X51066080Y-62747050D01*
X51053468Y-62768093D01*
X51038853Y-62787799D01*
X51022377Y-62805977D01*
X51004199Y-62822453D01*
X50984493Y-62837068D01*
X50963450Y-62849680D01*
X50941271Y-62860170D01*
X50918172Y-62868435D01*
X50894373Y-62874396D01*
X50870105Y-62877996D01*
X50845601Y-62879200D01*
X50195599Y-62879200D01*
X50171095Y-62877996D01*
X50146827Y-62874396D01*
X50123028Y-62868435D01*
X50099929Y-62860170D01*
X50077750Y-62849680D01*
X50056707Y-62837068D01*
X50037001Y-62822453D01*
X50018823Y-62805977D01*
X50002347Y-62787799D01*
X49987732Y-62768093D01*
X49975120Y-62747050D01*
X49964630Y-62724871D01*
X49956365Y-62701772D01*
X49950404Y-62677973D01*
X49946804Y-62653705D01*
X49945600Y-62629201D01*
X49945600Y-61729199D01*
X49946804Y-61704695D01*
X49950404Y-61680427D01*
X49956365Y-61656628D01*
X49964630Y-61633529D01*
X49975120Y-61611350D01*
X49987732Y-61590307D01*
X50002347Y-61570601D01*
X50018823Y-61552423D01*
X50037001Y-61535947D01*
X50056707Y-61521332D01*
X50077750Y-61508720D01*
X50099929Y-61498230D01*
X50123028Y-61489965D01*
X50146827Y-61484004D01*
X50171095Y-61480404D01*
X50195599Y-61479200D01*
X50845601Y-61479200D01*
X50870105Y-61480404D01*
X50870105Y-61480404D01*
G37*
D14*
X50520600Y-62179200D03*
D13*
G36*
X35559525Y-54102244D02*
G01*
X35583793Y-54105844D01*
X35607592Y-54111805D01*
X35630691Y-54120070D01*
X35652870Y-54130560D01*
X35673913Y-54143172D01*
X35693619Y-54157787D01*
X35711797Y-54174263D01*
X35728273Y-54192441D01*
X35742888Y-54212147D01*
X35755500Y-54233190D01*
X35765990Y-54255369D01*
X35774255Y-54278468D01*
X35780216Y-54302267D01*
X35783816Y-54326535D01*
X35785020Y-54351039D01*
X35785020Y-55001041D01*
X35783816Y-55025545D01*
X35780216Y-55049813D01*
X35774255Y-55073612D01*
X35765990Y-55096711D01*
X35755500Y-55118890D01*
X35742888Y-55139933D01*
X35728273Y-55159639D01*
X35711797Y-55177817D01*
X35693619Y-55194293D01*
X35673913Y-55208908D01*
X35652870Y-55221520D01*
X35630691Y-55232010D01*
X35607592Y-55240275D01*
X35583793Y-55246236D01*
X35559525Y-55249836D01*
X35535021Y-55251040D01*
X34635019Y-55251040D01*
X34610515Y-55249836D01*
X34586247Y-55246236D01*
X34562448Y-55240275D01*
X34539349Y-55232010D01*
X34517170Y-55221520D01*
X34496127Y-55208908D01*
X34476421Y-55194293D01*
X34458243Y-55177817D01*
X34441767Y-55159639D01*
X34427152Y-55139933D01*
X34414540Y-55118890D01*
X34404050Y-55096711D01*
X34395785Y-55073612D01*
X34389824Y-55049813D01*
X34386224Y-55025545D01*
X34385020Y-55001041D01*
X34385020Y-54351039D01*
X34386224Y-54326535D01*
X34389824Y-54302267D01*
X34395785Y-54278468D01*
X34404050Y-54255369D01*
X34414540Y-54233190D01*
X34427152Y-54212147D01*
X34441767Y-54192441D01*
X34458243Y-54174263D01*
X34476421Y-54157787D01*
X34496127Y-54143172D01*
X34517170Y-54130560D01*
X34539349Y-54120070D01*
X34562448Y-54111805D01*
X34586247Y-54105844D01*
X34610515Y-54102244D01*
X34635019Y-54101040D01*
X35535021Y-54101040D01*
X35559525Y-54102244D01*
X35559525Y-54102244D01*
G37*
D14*
X35085020Y-54676040D03*
D13*
G36*
X35559525Y-52052244D02*
G01*
X35583793Y-52055844D01*
X35607592Y-52061805D01*
X35630691Y-52070070D01*
X35652870Y-52080560D01*
X35673913Y-52093172D01*
X35693619Y-52107787D01*
X35711797Y-52124263D01*
X35728273Y-52142441D01*
X35742888Y-52162147D01*
X35755500Y-52183190D01*
X35765990Y-52205369D01*
X35774255Y-52228468D01*
X35780216Y-52252267D01*
X35783816Y-52276535D01*
X35785020Y-52301039D01*
X35785020Y-52951041D01*
X35783816Y-52975545D01*
X35780216Y-52999813D01*
X35774255Y-53023612D01*
X35765990Y-53046711D01*
X35755500Y-53068890D01*
X35742888Y-53089933D01*
X35728273Y-53109639D01*
X35711797Y-53127817D01*
X35693619Y-53144293D01*
X35673913Y-53158908D01*
X35652870Y-53171520D01*
X35630691Y-53182010D01*
X35607592Y-53190275D01*
X35583793Y-53196236D01*
X35559525Y-53199836D01*
X35535021Y-53201040D01*
X34635019Y-53201040D01*
X34610515Y-53199836D01*
X34586247Y-53196236D01*
X34562448Y-53190275D01*
X34539349Y-53182010D01*
X34517170Y-53171520D01*
X34496127Y-53158908D01*
X34476421Y-53144293D01*
X34458243Y-53127817D01*
X34441767Y-53109639D01*
X34427152Y-53089933D01*
X34414540Y-53068890D01*
X34404050Y-53046711D01*
X34395785Y-53023612D01*
X34389824Y-52999813D01*
X34386224Y-52975545D01*
X34385020Y-52951041D01*
X34385020Y-52301039D01*
X34386224Y-52276535D01*
X34389824Y-52252267D01*
X34395785Y-52228468D01*
X34404050Y-52205369D01*
X34414540Y-52183190D01*
X34427152Y-52162147D01*
X34441767Y-52142441D01*
X34458243Y-52124263D01*
X34476421Y-52107787D01*
X34496127Y-52093172D01*
X34517170Y-52080560D01*
X34539349Y-52070070D01*
X34562448Y-52061805D01*
X34586247Y-52055844D01*
X34610515Y-52052244D01*
X34635019Y-52051040D01*
X35535021Y-52051040D01*
X35559525Y-52052244D01*
X35559525Y-52052244D01*
G37*
D14*
X35085020Y-52626040D03*
D13*
G36*
X39400005Y-40640464D02*
G01*
X39424273Y-40644064D01*
X39448072Y-40650025D01*
X39471171Y-40658290D01*
X39493350Y-40668780D01*
X39514393Y-40681392D01*
X39534099Y-40696007D01*
X39552277Y-40712483D01*
X39568753Y-40730661D01*
X39583368Y-40750367D01*
X39595980Y-40771410D01*
X39606470Y-40793589D01*
X39614735Y-40816688D01*
X39620696Y-40840487D01*
X39624296Y-40864755D01*
X39625500Y-40889259D01*
X39625500Y-41539261D01*
X39624296Y-41563765D01*
X39620696Y-41588033D01*
X39614735Y-41611832D01*
X39606470Y-41634931D01*
X39595980Y-41657110D01*
X39583368Y-41678153D01*
X39568753Y-41697859D01*
X39552277Y-41716037D01*
X39534099Y-41732513D01*
X39514393Y-41747128D01*
X39493350Y-41759740D01*
X39471171Y-41770230D01*
X39448072Y-41778495D01*
X39424273Y-41784456D01*
X39400005Y-41788056D01*
X39375501Y-41789260D01*
X38475499Y-41789260D01*
X38450995Y-41788056D01*
X38426727Y-41784456D01*
X38402928Y-41778495D01*
X38379829Y-41770230D01*
X38357650Y-41759740D01*
X38336607Y-41747128D01*
X38316901Y-41732513D01*
X38298723Y-41716037D01*
X38282247Y-41697859D01*
X38267632Y-41678153D01*
X38255020Y-41657110D01*
X38244530Y-41634931D01*
X38236265Y-41611832D01*
X38230304Y-41588033D01*
X38226704Y-41563765D01*
X38225500Y-41539261D01*
X38225500Y-40889259D01*
X38226704Y-40864755D01*
X38230304Y-40840487D01*
X38236265Y-40816688D01*
X38244530Y-40793589D01*
X38255020Y-40771410D01*
X38267632Y-40750367D01*
X38282247Y-40730661D01*
X38298723Y-40712483D01*
X38316901Y-40696007D01*
X38336607Y-40681392D01*
X38357650Y-40668780D01*
X38379829Y-40658290D01*
X38402928Y-40650025D01*
X38426727Y-40644064D01*
X38450995Y-40640464D01*
X38475499Y-40639260D01*
X39375501Y-40639260D01*
X39400005Y-40640464D01*
X39400005Y-40640464D01*
G37*
D14*
X38925500Y-41214260D03*
D13*
G36*
X39400005Y-38590464D02*
G01*
X39424273Y-38594064D01*
X39448072Y-38600025D01*
X39471171Y-38608290D01*
X39493350Y-38618780D01*
X39514393Y-38631392D01*
X39534099Y-38646007D01*
X39552277Y-38662483D01*
X39568753Y-38680661D01*
X39583368Y-38700367D01*
X39595980Y-38721410D01*
X39606470Y-38743589D01*
X39614735Y-38766688D01*
X39620696Y-38790487D01*
X39624296Y-38814755D01*
X39625500Y-38839259D01*
X39625500Y-39489261D01*
X39624296Y-39513765D01*
X39620696Y-39538033D01*
X39614735Y-39561832D01*
X39606470Y-39584931D01*
X39595980Y-39607110D01*
X39583368Y-39628153D01*
X39568753Y-39647859D01*
X39552277Y-39666037D01*
X39534099Y-39682513D01*
X39514393Y-39697128D01*
X39493350Y-39709740D01*
X39471171Y-39720230D01*
X39448072Y-39728495D01*
X39424273Y-39734456D01*
X39400005Y-39738056D01*
X39375501Y-39739260D01*
X38475499Y-39739260D01*
X38450995Y-39738056D01*
X38426727Y-39734456D01*
X38402928Y-39728495D01*
X38379829Y-39720230D01*
X38357650Y-39709740D01*
X38336607Y-39697128D01*
X38316901Y-39682513D01*
X38298723Y-39666037D01*
X38282247Y-39647859D01*
X38267632Y-39628153D01*
X38255020Y-39607110D01*
X38244530Y-39584931D01*
X38236265Y-39561832D01*
X38230304Y-39538033D01*
X38226704Y-39513765D01*
X38225500Y-39489261D01*
X38225500Y-38839259D01*
X38226704Y-38814755D01*
X38230304Y-38790487D01*
X38236265Y-38766688D01*
X38244530Y-38743589D01*
X38255020Y-38721410D01*
X38267632Y-38700367D01*
X38282247Y-38680661D01*
X38298723Y-38662483D01*
X38316901Y-38646007D01*
X38336607Y-38631392D01*
X38357650Y-38618780D01*
X38379829Y-38608290D01*
X38402928Y-38600025D01*
X38426727Y-38594064D01*
X38450995Y-38590464D01*
X38475499Y-38589260D01*
X39375501Y-38589260D01*
X39400005Y-38590464D01*
X39400005Y-38590464D01*
G37*
D14*
X38925500Y-39164260D03*
D13*
G36*
X47172405Y-38590464D02*
G01*
X47196673Y-38594064D01*
X47220472Y-38600025D01*
X47243571Y-38608290D01*
X47265750Y-38618780D01*
X47286793Y-38631392D01*
X47306499Y-38646007D01*
X47324677Y-38662483D01*
X47341153Y-38680661D01*
X47355768Y-38700367D01*
X47368380Y-38721410D01*
X47378870Y-38743589D01*
X47387135Y-38766688D01*
X47393096Y-38790487D01*
X47396696Y-38814755D01*
X47397900Y-38839259D01*
X47397900Y-39489261D01*
X47396696Y-39513765D01*
X47393096Y-39538033D01*
X47387135Y-39561832D01*
X47378870Y-39584931D01*
X47368380Y-39607110D01*
X47355768Y-39628153D01*
X47341153Y-39647859D01*
X47324677Y-39666037D01*
X47306499Y-39682513D01*
X47286793Y-39697128D01*
X47265750Y-39709740D01*
X47243571Y-39720230D01*
X47220472Y-39728495D01*
X47196673Y-39734456D01*
X47172405Y-39738056D01*
X47147901Y-39739260D01*
X46247899Y-39739260D01*
X46223395Y-39738056D01*
X46199127Y-39734456D01*
X46175328Y-39728495D01*
X46152229Y-39720230D01*
X46130050Y-39709740D01*
X46109007Y-39697128D01*
X46089301Y-39682513D01*
X46071123Y-39666037D01*
X46054647Y-39647859D01*
X46040032Y-39628153D01*
X46027420Y-39607110D01*
X46016930Y-39584931D01*
X46008665Y-39561832D01*
X46002704Y-39538033D01*
X45999104Y-39513765D01*
X45997900Y-39489261D01*
X45997900Y-38839259D01*
X45999104Y-38814755D01*
X46002704Y-38790487D01*
X46008665Y-38766688D01*
X46016930Y-38743589D01*
X46027420Y-38721410D01*
X46040032Y-38700367D01*
X46054647Y-38680661D01*
X46071123Y-38662483D01*
X46089301Y-38646007D01*
X46109007Y-38631392D01*
X46130050Y-38618780D01*
X46152229Y-38608290D01*
X46175328Y-38600025D01*
X46199127Y-38594064D01*
X46223395Y-38590464D01*
X46247899Y-38589260D01*
X47147901Y-38589260D01*
X47172405Y-38590464D01*
X47172405Y-38590464D01*
G37*
D14*
X46697900Y-39164260D03*
D13*
G36*
X47172405Y-40640464D02*
G01*
X47196673Y-40644064D01*
X47220472Y-40650025D01*
X47243571Y-40658290D01*
X47265750Y-40668780D01*
X47286793Y-40681392D01*
X47306499Y-40696007D01*
X47324677Y-40712483D01*
X47341153Y-40730661D01*
X47355768Y-40750367D01*
X47368380Y-40771410D01*
X47378870Y-40793589D01*
X47387135Y-40816688D01*
X47393096Y-40840487D01*
X47396696Y-40864755D01*
X47397900Y-40889259D01*
X47397900Y-41539261D01*
X47396696Y-41563765D01*
X47393096Y-41588033D01*
X47387135Y-41611832D01*
X47378870Y-41634931D01*
X47368380Y-41657110D01*
X47355768Y-41678153D01*
X47341153Y-41697859D01*
X47324677Y-41716037D01*
X47306499Y-41732513D01*
X47286793Y-41747128D01*
X47265750Y-41759740D01*
X47243571Y-41770230D01*
X47220472Y-41778495D01*
X47196673Y-41784456D01*
X47172405Y-41788056D01*
X47147901Y-41789260D01*
X46247899Y-41789260D01*
X46223395Y-41788056D01*
X46199127Y-41784456D01*
X46175328Y-41778495D01*
X46152229Y-41770230D01*
X46130050Y-41759740D01*
X46109007Y-41747128D01*
X46089301Y-41732513D01*
X46071123Y-41716037D01*
X46054647Y-41697859D01*
X46040032Y-41678153D01*
X46027420Y-41657110D01*
X46016930Y-41634931D01*
X46008665Y-41611832D01*
X46002704Y-41588033D01*
X45999104Y-41563765D01*
X45997900Y-41539261D01*
X45997900Y-40889259D01*
X45999104Y-40864755D01*
X46002704Y-40840487D01*
X46008665Y-40816688D01*
X46016930Y-40793589D01*
X46027420Y-40771410D01*
X46040032Y-40750367D01*
X46054647Y-40730661D01*
X46071123Y-40712483D01*
X46089301Y-40696007D01*
X46109007Y-40681392D01*
X46130050Y-40668780D01*
X46152229Y-40658290D01*
X46175328Y-40650025D01*
X46199127Y-40644064D01*
X46223395Y-40640464D01*
X46247899Y-40639260D01*
X47147901Y-40639260D01*
X47172405Y-40640464D01*
X47172405Y-40640464D01*
G37*
D14*
X46697900Y-41214260D03*
D27*
X34544000Y-26162000D03*
X26924000Y-58039000D03*
X37731700Y-23373080D03*
X29311600Y-23301960D03*
X48470600Y-63566040D03*
X37117020Y-44767500D03*
X34958020Y-60724000D03*
X52484020Y-47945040D03*
X29083000Y-59563000D03*
X38481000Y-29461680D03*
X45974000Y-44704000D03*
X29464000Y-35814000D03*
X50520600Y-63566040D03*
X37094160Y-46570900D03*
X36355020Y-57470040D03*
X37117020Y-53279040D03*
X54135020Y-51211700D03*
X24638000Y-35306000D03*
X36228020Y-49977040D03*
X243967000Y-33781000D03*
X258572000Y-33782000D03*
X31178500Y-41846500D03*
X34925000Y-42164000D03*
X42926000Y-34925000D03*
X48260000Y-33781000D03*
X58420000Y-51435000D03*
X25019000Y-51181000D03*
X34831020Y-50358040D03*
X60071000Y-46863000D03*
X70866000Y-69723000D03*
X27559000Y-69723000D03*
X33909000Y-51308000D03*
X51181000Y-69723000D03*
X65278000Y-69723000D03*
X60706000Y-90424000D03*
X40928599Y-84997599D03*
X36957000Y-24892000D03*
X32834400Y-26289000D03*
X50993349Y-67122349D03*
X30988000Y-49530000D03*
X33782000Y-48641000D03*
X30226000Y-27686000D03*
X32258000Y-25146000D03*
D28*
X37873400Y-18525700D02*
X37873400Y-21524700D01*
X37873400Y-17344700D02*
X37873400Y-18525700D01*
X29233400Y-18525700D02*
X29233400Y-21524700D01*
X29233400Y-17344700D02*
X29233400Y-18525700D01*
X29233400Y-21844700D02*
X30328400Y-22939700D01*
X29233400Y-21524700D02*
X29233400Y-21844700D01*
X36778400Y-22619700D02*
X37873400Y-21524700D01*
X36778400Y-22939700D02*
X36778400Y-22619700D01*
X35034400Y-27693200D02*
X35034400Y-27693200D01*
X35034400Y-27693200D02*
X35034400Y-27693200D01*
X37298320Y-22939700D02*
X37731700Y-23373080D01*
X36778400Y-22939700D02*
X37298320Y-22939700D01*
X29673860Y-22939700D02*
X29311600Y-23301960D01*
X30328400Y-22939700D02*
X29673860Y-22939700D01*
X43169800Y-49863200D02*
X43169800Y-48732200D01*
X40200800Y-55232200D02*
X43169800Y-52263200D01*
X39069800Y-55232200D02*
X40200800Y-55232200D01*
X43169800Y-52263200D02*
X43169800Y-49863200D01*
X43738800Y-50432200D02*
X50469800Y-50432200D01*
X43169800Y-49863200D02*
X43738800Y-50432200D01*
X43169800Y-54201200D02*
X43169800Y-52263200D01*
X47969800Y-59001200D02*
X43169800Y-54201200D01*
X47969800Y-60132200D02*
X47969800Y-59001200D01*
X43169800Y-57401200D02*
X43169800Y-54201200D01*
X41569800Y-59001200D02*
X43169800Y-57401200D01*
X41569800Y-60132200D02*
X41569800Y-59001200D01*
X46455300Y-38921660D02*
X46629320Y-39095680D01*
X44234100Y-38921660D02*
X46455300Y-38921660D01*
X41326700Y-41214260D02*
X41334100Y-41221660D01*
X38925500Y-41214260D02*
X41326700Y-41214260D01*
X41569800Y-61263200D02*
X41569800Y-60132200D01*
X41569800Y-61272260D02*
X41569800Y-61263200D01*
X41494688Y-61347372D02*
X41569800Y-61272260D01*
X37097772Y-61347372D02*
X41494688Y-61347372D01*
X36474400Y-60724000D02*
X36474400Y-60724000D01*
X47969800Y-61678400D02*
X48470600Y-62179200D01*
X47969800Y-60132200D02*
X47969800Y-61678400D01*
X48470600Y-62179200D02*
X48470600Y-62179200D01*
X48470600Y-62179200D02*
X48470600Y-63566040D01*
X47982501Y-58988499D02*
X47969800Y-59001200D01*
X49359761Y-58988499D02*
X47982501Y-58988499D01*
X49492302Y-59121040D02*
X49359761Y-58988499D01*
X53050760Y-59121040D02*
X49492302Y-59121040D01*
X53175000Y-58996800D02*
X53050760Y-59121040D01*
X53975000Y-58996800D02*
X53175000Y-58996800D01*
X51231300Y-50432200D02*
X52466240Y-49197260D01*
X50469800Y-50432200D02*
X51231300Y-50432200D01*
X43169800Y-47601200D02*
X43169800Y-48732200D01*
X40336100Y-44767500D02*
X43169800Y-47601200D01*
X38569900Y-44767500D02*
X38569900Y-44767500D01*
X38569900Y-44767500D02*
X40336100Y-44767500D01*
X37117020Y-44767500D02*
X38569900Y-44767500D01*
X41334100Y-43769500D02*
X40336100Y-44767500D01*
X41334100Y-41221660D02*
X41334100Y-43769500D01*
X36474400Y-60724000D02*
X37097772Y-61347372D01*
X34958020Y-60724000D02*
X36474400Y-60724000D01*
X52466240Y-49197260D02*
X52501800Y-49161700D01*
X52484020Y-49143920D02*
X52501800Y-49161700D01*
X52484020Y-47945040D02*
X52484020Y-49143920D01*
X37938800Y-55232200D02*
X39069800Y-55232200D01*
X36954785Y-55232200D02*
X37938800Y-55232200D01*
X36398625Y-54676040D02*
X36954785Y-55232200D01*
X35085020Y-54676040D02*
X36398625Y-54676040D01*
X46697900Y-39164260D02*
X46697900Y-39164260D01*
X26906000Y-25707560D02*
X29311600Y-23301960D01*
X26906000Y-28194000D02*
X26906000Y-25707560D01*
X40162998Y-21524700D02*
X38754400Y-21524700D01*
X38754400Y-21524700D02*
X37873400Y-21524700D01*
X41038561Y-22400263D02*
X40162998Y-21524700D01*
X41038561Y-23858217D02*
X41038561Y-22400263D01*
X40942259Y-23954519D02*
X41038561Y-23858217D01*
X40942259Y-26815289D02*
X40942259Y-23954519D01*
X40994570Y-26867600D02*
X40942259Y-26815289D01*
X40994570Y-29167970D02*
X40994570Y-26867600D01*
X40700860Y-29461680D02*
X40994570Y-29167970D01*
X39900860Y-29461680D02*
X40700860Y-29461680D01*
X44234100Y-33794920D02*
X39900860Y-29461680D01*
X34958020Y-60724000D02*
X30244000Y-60724000D01*
X30244000Y-60724000D02*
X29083000Y-59563000D01*
X29083000Y-59563000D02*
X29083000Y-59563000D01*
X25980000Y-57095000D02*
X26924000Y-58039000D01*
X24814600Y-57095000D02*
X25980000Y-57095000D01*
X34544000Y-27202800D02*
X35034400Y-27693200D01*
X34544000Y-26162000D02*
X34544000Y-27202800D01*
X39900860Y-29461680D02*
X39900860Y-29461680D01*
X39900860Y-29461680D02*
X38481000Y-29461680D01*
X46629320Y-39095680D02*
X46697900Y-39164260D01*
X46697900Y-37846000D02*
X46697900Y-39164260D01*
X44234100Y-37426900D02*
X44234100Y-38921660D01*
X44234100Y-37426900D02*
X44234100Y-33794920D01*
X38302128Y-40590888D02*
X38925500Y-41214260D01*
X37831790Y-38572624D02*
X37831790Y-40120550D01*
X38776455Y-37627959D02*
X37831790Y-38572624D01*
X44221399Y-37627959D02*
X38776455Y-37627959D01*
X44234100Y-37640660D02*
X44221399Y-37627959D01*
X37831790Y-40120550D02*
X38302128Y-40590888D01*
X44234100Y-38921660D02*
X44234100Y-37640660D01*
D29*
X44769800Y-47728200D02*
X44769800Y-48732200D01*
X44769800Y-42911360D02*
X44769800Y-47728200D01*
X44234100Y-42375660D02*
X44769800Y-42911360D01*
X44234100Y-41221660D02*
X44234100Y-42375660D01*
X44241500Y-41214260D02*
X44234100Y-41221660D01*
X46697900Y-41214260D02*
X44241500Y-41214260D01*
X41091500Y-39164260D02*
X41334100Y-38921660D01*
X38925500Y-39164260D02*
X41091500Y-39164260D01*
X43969800Y-47728200D02*
X43969800Y-48732200D01*
X43969800Y-47664806D02*
X43969800Y-47728200D01*
X42853899Y-46548905D02*
X43969800Y-47664806D01*
X42853899Y-40197097D02*
X42853899Y-46548905D01*
X41578462Y-38921660D02*
X42853899Y-40197097D01*
X41334100Y-38921660D02*
X41578462Y-38921660D01*
X36891180Y-54432200D02*
X39069800Y-54432200D01*
X35085020Y-52626040D02*
X36891180Y-54432200D01*
D28*
X37516200Y-57632200D02*
X36474400Y-58674000D01*
X39069800Y-57632200D02*
X37516200Y-57632200D01*
X37932600Y-60132200D02*
X36474400Y-58674000D01*
X40769800Y-60132200D02*
X37932600Y-60132200D01*
X48769800Y-60428400D02*
X50520600Y-62179200D01*
X48769800Y-60132200D02*
X48769800Y-60428400D01*
X50520600Y-62179200D02*
X50520600Y-62179200D01*
X50520600Y-62179200D02*
X50520600Y-63566040D01*
X50490300Y-51211700D02*
X50469800Y-51232200D01*
X52501800Y-51211700D02*
X52501800Y-51211700D01*
X42369800Y-47791805D02*
X42369800Y-48732200D01*
X41395495Y-46817500D02*
X42369800Y-47791805D01*
X38569900Y-46817500D02*
X41395495Y-46817500D01*
X38323300Y-46570900D02*
X38569900Y-46817500D01*
X35496500Y-46570900D02*
X35496500Y-46570900D01*
X37094160Y-46570900D02*
X38323300Y-46570900D01*
X36474400Y-58674000D02*
X36474400Y-58674000D01*
X36355020Y-58554620D02*
X36474400Y-58674000D01*
X36355020Y-57470040D02*
X36355020Y-58554620D01*
X35496500Y-46570900D02*
X37094160Y-46570900D01*
X37470180Y-53632200D02*
X37117020Y-53279040D01*
X39069800Y-53632200D02*
X37470180Y-53632200D01*
X52501800Y-51211700D02*
X50490300Y-51211700D01*
X52501800Y-51211700D02*
X54135020Y-51211700D01*
X29408120Y-35758120D02*
X29464000Y-35814000D01*
X29408120Y-34379560D02*
X29408120Y-35758120D01*
D29*
X25279670Y-20551140D02*
X26870660Y-20551140D01*
X22006559Y-23824251D02*
X25279670Y-20551140D01*
X22006559Y-29083559D02*
X22006559Y-23824251D01*
X23784000Y-30861000D02*
X22006559Y-29083559D01*
X24638000Y-30861000D02*
X23784000Y-30861000D01*
X36683180Y-50432200D02*
X36228020Y-49977040D01*
X39069800Y-50432200D02*
X36683180Y-50432200D01*
X24638000Y-34161000D02*
X24638000Y-35306000D01*
X262042200Y-33806400D02*
X261188200Y-33806400D01*
X264261161Y-31587439D02*
X262042200Y-33806400D01*
X286373739Y-31587439D02*
X264261161Y-31587439D01*
X288591700Y-33805400D02*
X286373739Y-31587439D01*
X289445700Y-33805400D02*
X288591700Y-33805400D01*
X223866000Y-33781000D02*
X242163600Y-33781000D01*
X223012000Y-33781000D02*
X223866000Y-33781000D01*
X242163600Y-33781000D02*
X242163600Y-33781000D01*
X261188200Y-33806400D02*
X261188200Y-33806400D01*
X243967000Y-33781000D02*
X242163600Y-33781000D01*
X261163800Y-33782000D02*
X261188200Y-33806400D01*
X258572000Y-33782000D02*
X261163800Y-33782000D01*
X222158000Y-33781000D02*
X204063600Y-33781000D01*
X223012000Y-33781000D02*
X222158000Y-33781000D01*
X204063600Y-33781000D02*
X51562000Y-33781000D01*
X34925000Y-42164000D02*
X34925000Y-39624000D01*
X34925000Y-39624000D02*
X39624000Y-34925000D01*
X39624000Y-34925000D02*
X42926000Y-34925000D01*
X42926000Y-34925000D02*
X42926000Y-34925000D01*
X51562000Y-33781000D02*
X51562000Y-33781000D01*
X51562000Y-33781000D02*
X48260000Y-33781000D01*
X51562000Y-29777000D02*
X51562000Y-30481000D01*
X51562000Y-24690390D02*
X51562000Y-29777000D01*
X47460850Y-20589240D02*
X51562000Y-24690390D01*
X45869860Y-20589240D02*
X47460850Y-20589240D01*
X70708520Y-26352500D02*
X64907160Y-20551140D01*
X70708520Y-30481000D02*
X70708520Y-26352500D01*
X89928700Y-26461720D02*
X84013040Y-20546060D01*
X89928700Y-30481000D02*
X89928700Y-26461720D01*
X109080300Y-26560780D02*
X103045260Y-20525740D01*
X109080300Y-30481000D02*
X109080300Y-26560780D01*
X128003300Y-26446480D02*
X122057160Y-20500340D01*
X128003300Y-30481000D02*
X128003300Y-26446480D01*
X146939000Y-26357580D02*
X141119860Y-20538440D01*
X146939000Y-30480000D02*
X146939000Y-26357580D01*
X166103300Y-26433780D02*
X160195260Y-20525740D01*
X166103300Y-30481000D02*
X166103300Y-26433780D01*
X185138060Y-26474420D02*
X179230020Y-20566380D01*
X185138060Y-30481000D02*
X185138060Y-26474420D01*
X204063600Y-26266140D02*
X204063600Y-30481000D01*
X198318120Y-20520660D02*
X204063600Y-26266140D01*
X223012000Y-26205180D02*
X223012000Y-30481000D01*
X217357960Y-20551140D02*
X223012000Y-26205180D01*
X242163600Y-29777000D02*
X242163600Y-30481000D01*
X242163600Y-24741190D02*
X242163600Y-29777000D01*
X237998950Y-20576540D02*
X242163600Y-24741190D01*
X236407960Y-20576540D02*
X237998950Y-20576540D01*
X261188200Y-29802400D02*
X261188200Y-30506400D01*
X261188200Y-24715790D02*
X261188200Y-29802400D01*
X257036250Y-20563840D02*
X261188200Y-24715790D01*
X255445260Y-20563840D02*
X257036250Y-20563840D01*
X289445700Y-25989280D02*
X289445700Y-30505400D01*
X284032960Y-20576540D02*
X289445700Y-25989280D01*
X29965970Y-39626540D02*
X31556960Y-39626540D01*
X26692859Y-42899651D02*
X29965970Y-39626540D01*
X26692859Y-45460941D02*
X26692859Y-42899651D01*
X24222000Y-47931800D02*
X26692859Y-45460941D01*
X23368000Y-47931800D02*
X24222000Y-47931800D01*
X38065800Y-51232200D02*
X39069800Y-51232200D01*
X36129444Y-51232200D02*
X38065800Y-51232200D01*
X35255284Y-50358040D02*
X36129444Y-51232200D01*
X34831020Y-50358040D02*
X35255284Y-50358040D01*
X24968200Y-51231800D02*
X25019000Y-51181000D01*
X23368000Y-51231800D02*
X24968200Y-51231800D01*
X58445400Y-51409600D02*
X58420000Y-51435000D01*
X58445400Y-50228500D02*
X58445400Y-51409600D01*
X280329100Y-50228500D02*
X280479500Y-50378900D01*
X58445400Y-50228500D02*
X280329100Y-50228500D01*
X58510900Y-46863000D02*
X58445400Y-46928500D01*
X60071000Y-46863000D02*
X58510900Y-46863000D01*
X72879270Y-39575740D02*
X74470260Y-39575740D01*
X69606159Y-42848851D02*
X72879270Y-39575740D01*
X69606159Y-44058841D02*
X69606159Y-42848851D01*
X67804059Y-45860941D02*
X69606159Y-44058841D01*
X65971420Y-46238740D02*
X66349219Y-45860941D01*
X66349219Y-45860941D02*
X67804059Y-45860941D01*
X65971420Y-46942740D02*
X65971420Y-46238740D01*
X91929270Y-39639240D02*
X93520260Y-39639240D01*
X88656159Y-42912351D02*
X91929270Y-39639240D01*
X88656159Y-43804841D02*
X88656159Y-42912351D01*
X86536559Y-45924441D02*
X88656159Y-43804841D01*
X85636979Y-45924441D02*
X86536559Y-45924441D01*
X85316060Y-46245360D02*
X85636979Y-45924441D01*
X85316060Y-46949360D02*
X85316060Y-46245360D01*
X110979270Y-39575740D02*
X112570260Y-39575740D01*
X107706159Y-42848851D02*
X110979270Y-39575740D01*
X107706159Y-44185841D02*
X107706159Y-42848851D01*
X106031059Y-45860941D02*
X107706159Y-44185841D01*
X104680359Y-45860941D02*
X106031059Y-45860941D01*
X104292400Y-46248900D02*
X104680359Y-45860941D01*
X104292400Y-46952900D02*
X104292400Y-46248900D01*
X130507961Y-40764239D02*
X131632960Y-39639240D01*
X129751659Y-40764239D02*
X130507961Y-40764239D01*
X124591457Y-45924441D02*
X129751659Y-40764239D01*
X123707499Y-45924441D02*
X124591457Y-45924441D01*
X123357640Y-46274300D02*
X123707499Y-45924441D01*
X123357640Y-46978300D02*
X123357640Y-46274300D01*
X149053870Y-39613840D02*
X150644860Y-39613840D01*
X145780759Y-42886951D02*
X149053870Y-39613840D01*
X145780759Y-43745021D02*
X145780759Y-42886951D01*
X142547480Y-46978300D02*
X145780759Y-43745021D01*
X142397480Y-46978300D02*
X142547480Y-46978300D01*
X168154670Y-39588440D02*
X169745660Y-39588440D01*
X164881559Y-42861551D02*
X168154670Y-39588440D01*
X164881559Y-44398221D02*
X164881559Y-42861551D01*
X162286240Y-46993540D02*
X164881559Y-44398221D01*
X161432240Y-46993540D02*
X162286240Y-46993540D01*
X187181810Y-39629080D02*
X188772800Y-39629080D01*
X183908699Y-42902191D02*
X187181810Y-39629080D01*
X183908699Y-44313401D02*
X183908699Y-42902191D01*
X181219400Y-47002700D02*
X183908699Y-44313401D01*
X180365400Y-47002700D02*
X181219400Y-47002700D01*
X206178470Y-39613840D02*
X207769460Y-39613840D01*
X202905359Y-42886951D02*
X206178470Y-39613840D01*
X202905359Y-43982641D02*
X202905359Y-42886951D01*
X200988959Y-45899041D02*
X202905359Y-43982641D01*
X199884639Y-45899041D02*
X200988959Y-45899041D01*
X199511920Y-46271760D02*
X199884639Y-45899041D01*
X199511920Y-46975760D02*
X199511920Y-46271760D01*
X225266570Y-39613840D02*
X226857560Y-39613840D01*
X221993459Y-42886951D02*
X225266570Y-39613840D01*
X221993459Y-44559241D02*
X221993459Y-42886951D01*
X219497200Y-47055500D02*
X221993459Y-44559241D01*
X218643200Y-47055500D02*
X219497200Y-47055500D01*
X244303870Y-39639240D02*
X245894860Y-39639240D01*
X241030759Y-42912351D02*
X244303870Y-39639240D01*
X241030759Y-44494741D02*
X241030759Y-42912351D01*
X238471000Y-47054500D02*
X241030759Y-44494741D01*
X237617000Y-47054500D02*
X238471000Y-47054500D01*
X263328470Y-39563040D02*
X264919460Y-39563040D01*
X260055359Y-42836151D02*
X263328470Y-39563040D01*
X260055359Y-44621741D02*
X260055359Y-42836151D01*
X257622600Y-47054500D02*
X260055359Y-44621741D01*
X256768600Y-47054500D02*
X257622600Y-47054500D01*
X280629500Y-47078900D02*
X280479500Y-47078900D01*
X283933899Y-43774501D02*
X280629500Y-47078900D01*
X283933899Y-43588431D02*
X283933899Y-43774501D01*
X286773331Y-40748999D02*
X283933899Y-43588431D01*
X287673001Y-40748999D02*
X286773331Y-40748999D01*
X288798000Y-39624000D02*
X287673001Y-40748999D01*
X25882600Y-65730700D02*
X25882600Y-66434700D01*
X25210799Y-65058899D02*
X25882600Y-65730700D01*
X25210799Y-61535503D02*
X25210799Y-65058899D01*
X28072302Y-58674000D02*
X25210799Y-61535503D01*
X34036000Y-58674000D02*
X28072302Y-58674000D01*
X39069800Y-52032200D02*
X36282852Y-52032200D01*
X27547300Y-69734700D02*
X27559000Y-69723000D01*
X25882600Y-69734700D02*
X25882600Y-69734700D01*
X33909000Y-51308000D02*
X35558652Y-51308000D01*
X35558652Y-51308000D02*
X36282852Y-52032200D01*
X295343580Y-69676280D02*
X295351200Y-69683900D01*
X82316320Y-69676280D02*
X82316320Y-69676280D01*
X25882600Y-69734700D02*
X27547300Y-69734700D01*
X51227720Y-69676280D02*
X51181000Y-69723000D01*
X63106300Y-69676280D02*
X63106300Y-69676280D01*
X63106300Y-69676280D02*
X51227720Y-69676280D01*
X65231280Y-69676280D02*
X65278000Y-69723000D01*
X63106300Y-69676280D02*
X65231280Y-69676280D01*
X82316320Y-69676280D02*
X295343580Y-69676280D01*
X70912720Y-69676280D02*
X70866000Y-69723000D01*
X82316320Y-69676280D02*
X70912720Y-69676280D01*
X60220860Y-60242130D02*
X60220860Y-58651140D01*
X60220860Y-63640840D02*
X60220860Y-60242130D01*
X62956300Y-66376280D02*
X60220860Y-63640840D01*
X63106300Y-66376280D02*
X62956300Y-66376280D01*
X79181960Y-60267530D02*
X79181960Y-58676540D01*
X79181960Y-63000238D02*
X79181960Y-60267530D01*
X82316320Y-66134598D02*
X79181960Y-63000238D01*
X82316320Y-66376280D02*
X82316320Y-66134598D01*
X98295460Y-60229430D02*
X98295460Y-58638440D01*
X98295460Y-64197520D02*
X98295460Y-60229430D01*
X100492000Y-66394060D02*
X98295460Y-64197520D01*
X101346000Y-66394060D02*
X100492000Y-66394060D01*
X117332760Y-60229430D02*
X117332760Y-58638440D01*
X117332760Y-64057820D02*
X117332760Y-60229430D01*
X119707100Y-66432160D02*
X117332760Y-64057820D01*
X120561100Y-66432160D02*
X119707100Y-66432160D01*
X136370060Y-60267530D02*
X136370060Y-58676540D01*
X136370060Y-63239520D02*
X136370060Y-60267530D01*
X139511900Y-66381360D02*
X136370060Y-63239520D01*
X139661900Y-66381360D02*
X139511900Y-66381360D01*
X155432760Y-60267530D02*
X155432760Y-58676540D01*
X155432760Y-64067980D02*
X155432760Y-60267530D01*
X157743600Y-66378820D02*
X155432760Y-64067980D01*
X158597600Y-66378820D02*
X157743600Y-66378820D01*
X174508160Y-60267530D02*
X174508160Y-58676540D01*
X174508160Y-63384300D02*
X174508160Y-60267530D01*
X177523000Y-66399140D02*
X174508160Y-63384300D01*
X177673000Y-66399140D02*
X177523000Y-66399140D01*
X193532760Y-60242130D02*
X193532760Y-58651140D01*
X193532760Y-63376680D02*
X193532760Y-60242130D01*
X196522200Y-66366120D02*
X193532760Y-63376680D01*
X196672200Y-66366120D02*
X196522200Y-66366120D01*
X212595460Y-60242130D02*
X212595460Y-58651140D01*
X212595460Y-62974838D02*
X212595460Y-60242130D01*
X215856820Y-66236198D02*
X212595460Y-62974838D01*
X215856820Y-66373740D02*
X215856820Y-66236198D01*
X231708960Y-60331030D02*
X231708960Y-58740040D01*
X231708960Y-63063738D02*
X231708960Y-60331030D01*
X234899200Y-66253978D02*
X231708960Y-63063738D01*
X234899200Y-66373740D02*
X234899200Y-66253978D01*
X250758960Y-60267530D02*
X250758960Y-58676540D01*
X250758960Y-64222920D02*
X250758960Y-60267530D01*
X252937720Y-66401680D02*
X250758960Y-64222920D01*
X253791720Y-66401680D02*
X252937720Y-66401680D01*
X295351200Y-65679900D02*
X295351200Y-66383900D01*
X288347840Y-58676540D02*
X295351200Y-65679900D01*
X281607260Y-58676540D02*
X288347840Y-58676540D01*
X37204970Y-77726540D02*
X38795960Y-77726540D01*
X33931859Y-80999651D02*
X37204970Y-77726540D01*
X33931859Y-84364141D02*
X33931859Y-80999651D01*
X31750000Y-86546000D02*
X33931859Y-84364141D01*
X31750000Y-87250000D02*
X31750000Y-86546000D01*
X32604000Y-90550000D02*
X31750000Y-90550000D01*
X35376198Y-90550000D02*
X32604000Y-90550000D01*
X43969800Y-81956398D02*
X40928599Y-84997599D01*
X43969800Y-60132200D02*
X43969800Y-81956398D01*
X40928599Y-84997599D02*
X35376198Y-90550000D01*
X60984400Y-90702400D02*
X60706000Y-90424000D01*
X62369700Y-90702400D02*
X60984400Y-90702400D01*
X195655200Y-90702400D02*
X195834000Y-90523600D01*
X62369700Y-90702400D02*
X195655200Y-90702400D01*
X286358600Y-90523600D02*
X286425640Y-90590640D01*
X195834000Y-90523600D02*
X286358600Y-90523600D01*
X68065970Y-77726540D02*
X69656960Y-77726540D01*
X64792859Y-80999651D02*
X68065970Y-77726540D01*
X64792859Y-84275241D02*
X64792859Y-80999651D01*
X62369700Y-86698400D02*
X64792859Y-84275241D01*
X62369700Y-87402400D02*
X62369700Y-86698400D01*
X87166770Y-77726540D02*
X88757760Y-77726540D01*
X83893659Y-80999651D02*
X87166770Y-77726540D01*
X83893659Y-84350441D02*
X83893659Y-80999651D01*
X81610200Y-86633900D02*
X83893659Y-84350441D01*
X81610200Y-87337900D02*
X81610200Y-86633900D01*
X106178670Y-77713840D02*
X107769660Y-77713840D01*
X102905559Y-80986951D02*
X106178670Y-77713840D01*
X102905559Y-84285401D02*
X102905559Y-80986951D01*
X100568760Y-86622200D02*
X102905559Y-84285401D01*
X100568760Y-87326200D02*
X100568760Y-86622200D01*
X125241370Y-77675740D02*
X126832360Y-77675740D01*
X121968259Y-80948851D02*
X125241370Y-77675740D01*
X121968259Y-84246301D02*
X121968259Y-80948851D01*
X119588280Y-86626280D02*
X121968259Y-84246301D01*
X119588280Y-87330280D02*
X119588280Y-86626280D01*
X144291370Y-77739240D02*
X145882360Y-77739240D01*
X141018259Y-81012351D02*
X144291370Y-77739240D01*
X141018259Y-84286941D02*
X141018259Y-81012351D01*
X138658600Y-86646600D02*
X141018259Y-84286941D01*
X138658600Y-87350600D02*
X138658600Y-86646600D01*
X163379470Y-77713840D02*
X164970460Y-77713840D01*
X160106359Y-80986951D02*
X163379470Y-77713840D01*
X160106359Y-84246301D02*
X160106359Y-80986951D01*
X157693360Y-86659300D02*
X160106359Y-84246301D01*
X157693360Y-87363300D02*
X157693360Y-86659300D01*
X182429470Y-77739240D02*
X184020460Y-77739240D01*
X179156359Y-81012351D02*
X182429470Y-77739240D01*
X179156359Y-84247301D02*
X179156359Y-81012351D01*
X176758600Y-86645060D02*
X179156359Y-84247301D01*
X176758600Y-87349060D02*
X176758600Y-86645060D01*
X201428670Y-77713840D02*
X203019660Y-77713840D01*
X198155559Y-80986951D02*
X201428670Y-77713840D01*
X198155559Y-84198041D02*
X198155559Y-80986951D01*
X195834000Y-86519600D02*
X198155559Y-84198041D01*
X195834000Y-87223600D02*
X195834000Y-86519600D01*
X220529470Y-77790040D02*
X222120460Y-77790040D01*
X217225661Y-81093849D02*
X220529470Y-77790040D01*
X217225661Y-84346579D02*
X217225661Y-81093849D01*
X214955120Y-86617120D02*
X217225661Y-84346579D01*
X214955120Y-87321120D02*
X214955120Y-86617120D01*
X246754970Y-77726540D02*
X248345960Y-77726540D01*
X243481859Y-80999651D02*
X246754970Y-77726540D01*
X243481859Y-84762921D02*
X243481859Y-80999651D01*
X241642900Y-86601880D02*
X243481859Y-84762921D01*
X241642900Y-87305880D02*
X241642900Y-86601880D01*
X272904270Y-77751940D02*
X274495260Y-77751940D01*
X269631159Y-81025051D02*
X272904270Y-77751940D01*
X269631159Y-84272701D02*
X269631159Y-81025051D01*
X267304520Y-86599340D02*
X269631159Y-84272701D01*
X267304520Y-87303340D02*
X267304520Y-86599340D01*
X291966970Y-77713840D02*
X293557960Y-77713840D01*
X288693859Y-80986951D02*
X291966970Y-77713840D01*
X288693859Y-84318421D02*
X288693859Y-80986951D01*
X286425640Y-86586640D02*
X288693859Y-84318421D01*
X286425640Y-87290640D02*
X286425640Y-86586640D01*
X27679970Y-96776540D02*
X29270960Y-96776540D01*
X24406859Y-100049651D02*
X27679970Y-96776540D01*
X24406859Y-102176161D02*
X24406859Y-100049651D01*
X22171660Y-104411360D02*
X24406859Y-102176161D01*
X22171660Y-105115360D02*
X22171660Y-104411360D01*
X44769800Y-60132200D02*
X44769800Y-96299260D01*
X32653700Y-108415360D02*
X22171660Y-108415360D01*
X44769800Y-96299260D02*
X32653700Y-108415360D01*
X32659780Y-108421440D02*
X32653700Y-108415360D01*
X45384720Y-108421440D02*
X32659780Y-108421440D01*
X69183520Y-108421440D02*
X69194680Y-108410280D01*
X45384720Y-108421440D02*
X69183520Y-108421440D01*
X136560000Y-107948000D02*
X137414000Y-107948000D01*
X135596799Y-106984799D02*
X136560000Y-107948000D01*
X71474161Y-106984799D02*
X135596799Y-106984799D01*
X70048680Y-108410280D02*
X71474161Y-106984799D01*
X69194680Y-108410280D02*
X70048680Y-108410280D01*
X208325160Y-108218240D02*
X209179160Y-108218240D01*
X207091719Y-106984799D02*
X208325160Y-108218240D01*
X194905883Y-106984799D02*
X207091719Y-106984799D01*
X193501481Y-108389201D02*
X194905883Y-106984799D01*
X138709201Y-108389201D02*
X193501481Y-108389201D01*
X138268000Y-107948000D02*
X138709201Y-108389201D01*
X137414000Y-107948000D02*
X138268000Y-107948000D01*
X285435040Y-108218240D02*
X285445200Y-108208080D01*
X209179160Y-108218240D02*
X285435040Y-108218240D01*
X51441670Y-96738440D02*
X53032660Y-96738440D01*
X48168559Y-100011551D02*
X51441670Y-96738440D01*
X48168559Y-101633601D02*
X48168559Y-100011551D01*
X45384720Y-104417440D02*
X48168559Y-101633601D01*
X45384720Y-105121440D02*
X45384720Y-104417440D01*
X75770961Y-97901539D02*
X76895960Y-96776540D01*
X75014659Y-97901539D02*
X75770961Y-97901539D01*
X69194680Y-103721518D02*
X75014659Y-97901539D01*
X69194680Y-105110280D02*
X69194680Y-103721518D01*
X140970000Y-104648000D02*
X143256000Y-106934000D01*
X137414000Y-104648000D02*
X140970000Y-104648000D01*
X215741570Y-96738440D02*
X217332560Y-96738440D01*
X212468459Y-100011551D02*
X215741570Y-96738440D01*
X212468459Y-100924941D02*
X212468459Y-100011551D01*
X209179160Y-104214240D02*
X212468459Y-100924941D01*
X209179160Y-104918240D02*
X209179160Y-104214240D01*
X234829670Y-96725740D02*
X236420660Y-96725740D01*
X231556559Y-99998851D02*
X234829670Y-96725740D01*
X231556559Y-100998601D02*
X231556559Y-99998851D01*
X228333300Y-104221860D02*
X231556559Y-100998601D01*
X228333300Y-104925860D02*
X228333300Y-104221860D01*
X254332961Y-97863439D02*
X255457960Y-96738440D01*
X253584241Y-97863439D02*
X254332961Y-97863439D01*
X247200420Y-104247260D02*
X253584241Y-97863439D01*
X247200420Y-104951260D02*
X247200420Y-104247260D01*
X272916970Y-96725740D02*
X274507960Y-96725740D01*
X269643859Y-99998851D02*
X272916970Y-96725740D01*
X269643859Y-100993521D02*
X269643859Y-99998851D01*
X266390120Y-104247260D02*
X269643859Y-100993521D01*
X266390120Y-104951260D02*
X266390120Y-104247260D01*
X291966970Y-96776540D02*
X293557960Y-96776540D01*
X288693859Y-100049651D02*
X291966970Y-96776540D01*
X288693859Y-100955421D02*
X288693859Y-100049651D01*
X285445200Y-104204080D02*
X288693859Y-100955421D01*
X285445200Y-104908080D02*
X285445200Y-104204080D01*
X32634400Y-27513200D02*
X32834400Y-27513200D01*
X31103400Y-25982200D02*
X32634400Y-27513200D01*
X31103400Y-22939700D02*
X31103400Y-25982200D01*
X29408120Y-30592060D02*
X29408120Y-31404560D01*
X29408120Y-29985480D02*
X29408120Y-30592060D01*
X31880400Y-27513200D02*
X29408120Y-29985480D01*
X32834400Y-27513200D02*
X31880400Y-27513200D01*
X36532736Y-24892000D02*
X36957000Y-24892000D01*
X36476700Y-24892000D02*
X36532736Y-24892000D01*
X36003400Y-24418700D02*
X36476700Y-24892000D01*
X36003400Y-22939700D02*
X36003400Y-24418700D01*
X32834400Y-27513200D02*
X32834400Y-27513200D01*
X32834400Y-27513200D02*
X32834400Y-26289000D01*
X180204370Y-54212750D02*
X187182760Y-61191140D01*
X52306882Y-54212750D02*
X180204370Y-54212750D01*
X50469800Y-54432200D02*
X52087432Y-54432200D01*
X52087432Y-54432200D02*
X52306882Y-54212750D01*
X198686520Y-53632200D02*
X206245460Y-61191140D01*
X50469800Y-53632200D02*
X198686520Y-53632200D01*
X216911120Y-52832200D02*
X225358960Y-61280040D01*
X50469800Y-52832200D02*
X216911120Y-52832200D01*
X47169800Y-60132200D02*
X47169800Y-64982820D01*
X47169800Y-64982820D02*
X49436020Y-67249040D01*
X53870860Y-62782130D02*
X53870860Y-61191140D01*
X53870860Y-64244838D02*
X53870860Y-62782130D01*
X50866658Y-67249040D02*
X50993349Y-67122349D01*
X49436020Y-67249040D02*
X50866658Y-67249040D01*
X61715970Y-80266540D02*
X63306960Y-80266540D01*
X50486311Y-91496199D02*
X61715970Y-80266540D01*
X50486311Y-95474789D02*
X50486311Y-91496199D01*
X46682660Y-99278440D02*
X50486311Y-95474789D01*
X50993349Y-67122349D02*
X53870860Y-64244838D01*
X46369800Y-60132200D02*
X46369800Y-67611820D01*
X46369800Y-67611820D02*
X50706020Y-71948040D01*
X72831960Y-62807530D02*
X72831960Y-61216540D01*
X72831960Y-64270238D02*
X72831960Y-62807530D01*
X65154158Y-71948040D02*
X72831960Y-64270238D01*
X50706020Y-71948040D02*
X65154158Y-71948040D01*
X101419660Y-78662850D02*
X95593850Y-72837040D01*
X101419660Y-80253840D02*
X101419660Y-78662850D01*
X95593850Y-72837040D02*
X50325020Y-72837040D01*
X45569800Y-68081820D02*
X45569800Y-60132200D01*
X50325020Y-72837040D02*
X45569800Y-68081820D01*
X109857761Y-60053441D02*
X110982760Y-61178440D01*
X105845910Y-56041590D02*
X109857761Y-60053441D01*
X53064410Y-56041590D02*
X105845910Y-56041590D01*
X51473800Y-57632200D02*
X53064410Y-56041590D01*
X50469800Y-57632200D02*
X51473800Y-57632200D01*
X128895061Y-60091541D02*
X130020060Y-61216540D01*
X124387900Y-55584380D02*
X128895061Y-60091541D01*
X52875028Y-55584380D02*
X124387900Y-55584380D01*
X51627208Y-56832200D02*
X52875028Y-55584380D01*
X50469800Y-56832200D02*
X51627208Y-56832200D01*
X147957761Y-60091541D02*
X149082760Y-61216540D01*
X142993390Y-55127170D02*
X147957761Y-60091541D01*
X52685646Y-55127170D02*
X142993390Y-55127170D01*
X51780616Y-56032200D02*
X52685646Y-55127170D01*
X50469800Y-56032200D02*
X51780616Y-56032200D01*
X161611580Y-54669960D02*
X168158160Y-61216540D01*
X52496264Y-54669960D02*
X161611580Y-54669960D01*
X50469800Y-55232200D02*
X51934024Y-55232200D01*
X51934024Y-55232200D02*
X52496264Y-54669960D01*
X243283961Y-60091541D02*
X244408960Y-61216540D01*
X235567410Y-52374990D02*
X243283961Y-60091541D01*
X51631952Y-52374990D02*
X235567410Y-52374990D01*
X51289162Y-52032200D02*
X51631952Y-52374990D01*
X50469800Y-52032200D02*
X51289162Y-52032200D01*
X50556159Y-43578271D02*
X51970430Y-42164000D01*
X50556159Y-45941841D02*
X50556159Y-43578271D01*
X48769800Y-48732200D02*
X48769800Y-47728200D01*
X48769800Y-47728200D02*
X50556159Y-45941841D01*
X65918302Y-42164000D02*
X70363302Y-37719000D01*
X51970430Y-42164000D02*
X65918302Y-42164000D01*
X281323001Y-41039001D02*
X282448000Y-42164000D01*
X278391839Y-38107839D02*
X281323001Y-41039001D01*
X226194839Y-38107839D02*
X278391839Y-38107839D01*
X225806000Y-37719000D02*
X226194839Y-38107839D01*
X70363302Y-37719000D02*
X225806000Y-37719000D01*
X50098950Y-43388888D02*
X51781048Y-41706790D01*
X50098949Y-45599051D02*
X50098950Y-43388888D01*
X47969800Y-48732200D02*
X47969800Y-47728200D01*
X47969800Y-47728200D02*
X50098949Y-45599051D01*
X65728920Y-41706790D02*
X70173920Y-37261790D01*
X51781048Y-41706790D02*
X65728920Y-41706790D01*
X250220259Y-30068741D02*
X242638371Y-37650629D01*
X249095260Y-23103840D02*
X250220259Y-24228839D01*
X250220259Y-24228839D02*
X250220259Y-30068741D01*
X225995382Y-37261790D02*
X70173920Y-37261790D01*
X226384221Y-37650629D02*
X225995382Y-37261790D01*
X242638371Y-37650629D02*
X226384221Y-37650629D01*
X27686000Y-63383670D02*
X32567370Y-68265040D01*
X27686000Y-61214000D02*
X27686000Y-63383670D01*
X32567370Y-68265040D02*
X40038020Y-68265040D01*
X43169800Y-65133260D02*
X43169800Y-60132200D01*
X40038020Y-68265040D02*
X43169800Y-65133260D01*
X20520660Y-37480240D02*
X20520660Y-23091140D01*
X25206960Y-42166540D02*
X20520660Y-37480240D01*
X41569800Y-47728200D02*
X41569800Y-48732200D01*
X41493599Y-47651999D02*
X41569800Y-47728200D01*
X40230639Y-47651999D02*
X41493599Y-47651999D01*
X39261738Y-48620900D02*
X40230639Y-47651999D01*
X35496500Y-48620900D02*
X35834100Y-48620900D01*
X35834100Y-48620900D02*
X39261738Y-48620900D01*
X33802100Y-48620900D02*
X33782000Y-48641000D01*
X35496500Y-48620900D02*
X33802100Y-48620900D01*
X30988000Y-53368400D02*
X31014600Y-53395000D01*
X30988000Y-49530000D02*
X30988000Y-53368400D01*
X39067460Y-56029860D02*
X39069800Y-56032200D01*
D30*
X37769799Y-56207200D02*
X34681400Y-56207200D01*
X39069800Y-56032200D02*
X37944799Y-56032200D01*
X37944799Y-56032200D02*
X37769799Y-56207200D01*
X34681400Y-56207200D02*
X32737000Y-54262800D01*
X32737000Y-54262800D02*
X32737000Y-42130200D01*
X34188610Y-37757110D02*
X35092640Y-36853080D01*
X32737000Y-42130200D02*
X34188610Y-40678590D01*
X34188610Y-40678590D02*
X34188610Y-37757110D01*
X37769799Y-56657200D02*
X34495000Y-56657200D01*
X37944799Y-56832200D02*
X37769799Y-56657200D01*
X39069800Y-56832200D02*
X37944799Y-56832200D01*
X34495000Y-56657200D02*
X32287000Y-54449200D01*
X32287000Y-54449200D02*
X32287000Y-41943800D01*
X33738610Y-37757110D02*
X32826960Y-36845460D01*
X33738610Y-40492190D02*
X33738610Y-37757110D01*
X32287000Y-41943800D02*
X33738610Y-40492190D01*
D29*
X52489600Y-58432200D02*
X50469800Y-58432200D01*
X53975000Y-56946800D02*
X52489600Y-58432200D01*
X32303400Y-25100600D02*
X32303400Y-22939700D01*
X32258000Y-25146000D02*
X32303400Y-25100600D01*
X29464000Y-27686000D02*
X28956000Y-28194000D01*
X30226000Y-27686000D02*
X29464000Y-27686000D01*
X35283601Y-22959499D02*
X35303400Y-22939700D01*
X35283601Y-24428861D02*
X35283601Y-22959499D01*
X38266420Y-27411680D02*
X35283601Y-24428861D01*
X39900860Y-27411680D02*
X38266420Y-27411680D01*
X33803400Y-24418700D02*
X33803400Y-22939700D01*
X33803400Y-24448660D02*
X33803400Y-24418700D01*
X33757159Y-24494901D02*
X33803400Y-24448660D01*
X32803400Y-24409062D02*
X32889239Y-24494901D01*
X32803400Y-22939700D02*
X32803400Y-24409062D01*
D30*
X32834400Y-30463201D02*
X32834400Y-29413200D01*
X32832040Y-34803761D02*
X32832041Y-34803761D01*
X32832041Y-34803761D02*
X33710431Y-33925371D01*
X33710431Y-33925371D02*
X33710431Y-32052511D01*
X33709400Y-32051480D02*
X33709400Y-31338201D01*
X33710431Y-32052511D02*
X33709400Y-32051480D01*
X33709400Y-31338201D02*
X32834400Y-30463201D01*
D29*
X33864601Y-25069403D02*
X33290099Y-24494901D01*
X33864601Y-28582999D02*
X33864601Y-25069403D01*
X33034400Y-29413200D02*
X33864601Y-28582999D01*
X32834400Y-29413200D02*
X33034400Y-29413200D01*
X32889239Y-24494901D02*
X33290099Y-24494901D01*
X33290099Y-24494901D02*
X33757159Y-24494901D01*
X34303400Y-21460700D02*
X34303400Y-22939700D01*
X34227199Y-21384499D02*
X34303400Y-21460700D01*
X33389239Y-21384499D02*
X34227199Y-21384499D01*
X33303400Y-21470338D02*
X33389239Y-21384499D01*
X33303400Y-22939700D02*
X33303400Y-21470338D01*
D30*
X34160431Y-31866111D02*
X34159400Y-31865080D01*
X35034220Y-34799160D02*
X34160431Y-33925371D01*
X34160431Y-33925371D02*
X34160431Y-31866111D01*
X34159400Y-31865080D02*
X34159400Y-31338201D01*
X34159400Y-31338201D02*
X35034400Y-30463201D01*
X35034400Y-30463201D02*
X35034400Y-29481600D01*
X35034400Y-29481600D02*
X35034400Y-29413200D01*
D29*
X35085200Y-29464000D02*
X35034400Y-29413200D01*
X34303400Y-22939700D02*
X34303400Y-24861610D01*
X35988400Y-29413200D02*
X36322000Y-29079600D01*
X35034400Y-29413200D02*
X35988400Y-29413200D01*
X34321811Y-24880021D02*
X34303400Y-24861610D01*
X34321811Y-25007113D02*
X34321811Y-24880021D01*
X36322000Y-27007302D02*
X34321811Y-25007113D01*
X36322000Y-29079600D02*
X36322000Y-27007302D01*
G36*
X36601400Y-60597000D02*
G01*
X36621400Y-60597000D01*
X36621400Y-60851000D01*
X36601400Y-60851000D01*
X36601400Y-61775250D01*
X36760150Y-61934000D01*
X37174400Y-61937072D01*
X37298882Y-61924812D01*
X37418580Y-61888502D01*
X37528894Y-61829537D01*
X37625585Y-61750185D01*
X37704937Y-61653494D01*
X37763902Y-61543180D01*
X37800212Y-61423482D01*
X37812472Y-61299000D01*
X37809400Y-61009750D01*
X37734360Y-60934710D01*
X37770774Y-60945756D01*
X37892047Y-60957700D01*
X37892049Y-60957700D01*
X37932599Y-60961694D01*
X37973150Y-60957700D01*
X39864164Y-60957700D01*
X39868988Y-61006682D01*
X39905298Y-61126380D01*
X39964263Y-61236694D01*
X40043615Y-61333385D01*
X40140306Y-61412737D01*
X40250620Y-61471702D01*
X40370318Y-61508012D01*
X40494800Y-61520272D01*
X41044800Y-61520272D01*
X41169282Y-61508012D01*
X41170463Y-61507654D01*
X41284050Y-61517200D01*
X41376133Y-61425117D01*
X41399294Y-61412737D01*
X41495985Y-61333385D01*
X41569800Y-61243441D01*
X41643615Y-61333385D01*
X41740306Y-61412737D01*
X41763467Y-61425117D01*
X41855550Y-61517200D01*
X41969137Y-61507654D01*
X41970318Y-61508012D01*
X42094800Y-61520272D01*
X42407801Y-61520272D01*
X42407801Y-61976000D01*
X36322618Y-61976000D01*
X36323476Y-61799174D01*
X36347400Y-61775250D01*
X36347400Y-60851000D01*
X36328079Y-60851000D01*
X36329312Y-60597000D01*
X36347400Y-60597000D01*
X36347400Y-60577000D01*
X36601400Y-60577000D01*
X36601400Y-60597000D01*
X36601400Y-60597000D01*
G37*
X36601400Y-60597000D02*
X36621400Y-60597000D01*
X36621400Y-60851000D01*
X36601400Y-60851000D01*
X36601400Y-61775250D01*
X36760150Y-61934000D01*
X37174400Y-61937072D01*
X37298882Y-61924812D01*
X37418580Y-61888502D01*
X37528894Y-61829537D01*
X37625585Y-61750185D01*
X37704937Y-61653494D01*
X37763902Y-61543180D01*
X37800212Y-61423482D01*
X37812472Y-61299000D01*
X37809400Y-61009750D01*
X37734360Y-60934710D01*
X37770774Y-60945756D01*
X37892047Y-60957700D01*
X37892049Y-60957700D01*
X37932599Y-60961694D01*
X37973150Y-60957700D01*
X39864164Y-60957700D01*
X39868988Y-61006682D01*
X39905298Y-61126380D01*
X39964263Y-61236694D01*
X40043615Y-61333385D01*
X40140306Y-61412737D01*
X40250620Y-61471702D01*
X40370318Y-61508012D01*
X40494800Y-61520272D01*
X41044800Y-61520272D01*
X41169282Y-61508012D01*
X41170463Y-61507654D01*
X41284050Y-61517200D01*
X41376133Y-61425117D01*
X41399294Y-61412737D01*
X41495985Y-61333385D01*
X41569800Y-61243441D01*
X41643615Y-61333385D01*
X41740306Y-61412737D01*
X41763467Y-61425117D01*
X41855550Y-61517200D01*
X41969137Y-61507654D01*
X41970318Y-61508012D01*
X42094800Y-61520272D01*
X42407801Y-61520272D01*
X42407801Y-61976000D01*
X36322618Y-61976000D01*
X36323476Y-61799174D01*
X36347400Y-61775250D01*
X36347400Y-60851000D01*
X36328079Y-60851000D01*
X36329312Y-60597000D01*
X36347400Y-60597000D01*
X36347400Y-60577000D01*
X36601400Y-60577000D01*
X36601400Y-60597000D01*
G36*
X51204434Y-46735840D02*
G01*
X51635009Y-47023541D01*
X51997526Y-47173701D01*
X52001295Y-47950107D01*
X51801800Y-47948628D01*
X51677318Y-47960888D01*
X51557620Y-47997198D01*
X51447306Y-48056163D01*
X51350615Y-48135515D01*
X51271263Y-48232206D01*
X51212298Y-48342520D01*
X51175988Y-48462218D01*
X51163728Y-48586700D01*
X51166800Y-48875950D01*
X51325550Y-49034700D01*
X52006560Y-49034700D01*
X52007793Y-49288700D01*
X51325550Y-49288700D01*
X51166800Y-49447450D01*
X51166035Y-49519472D01*
X50755550Y-49522200D01*
X50596800Y-49680950D01*
X50596800Y-50305200D01*
X50616800Y-50305200D01*
X50616800Y-50319128D01*
X49719800Y-50319128D01*
X49595318Y-50331388D01*
X49475620Y-50367698D01*
X49365306Y-50426663D01*
X49268615Y-50506015D01*
X49189263Y-50602706D01*
X49176883Y-50625867D01*
X49084800Y-50717950D01*
X49094346Y-50831537D01*
X49093988Y-50832718D01*
X49081728Y-50957200D01*
X49081728Y-51507200D01*
X49093988Y-51631682D01*
X49094145Y-51632200D01*
X49093988Y-51632718D01*
X49081728Y-51757200D01*
X49081728Y-52307200D01*
X49093988Y-52431682D01*
X49094145Y-52432200D01*
X49093988Y-52432718D01*
X49081728Y-52557200D01*
X49081728Y-53107200D01*
X49093988Y-53231682D01*
X49094145Y-53232200D01*
X49093988Y-53232718D01*
X49081728Y-53357200D01*
X49081728Y-53907200D01*
X49093988Y-54031682D01*
X49094145Y-54032200D01*
X49093988Y-54032718D01*
X49081728Y-54157200D01*
X49081728Y-54707200D01*
X49093988Y-54831682D01*
X49094145Y-54832200D01*
X49093988Y-54832718D01*
X49081728Y-54957200D01*
X49081728Y-55507200D01*
X49093988Y-55631682D01*
X49094145Y-55632200D01*
X49093988Y-55632718D01*
X49081728Y-55757200D01*
X49081728Y-56307200D01*
X49093988Y-56431682D01*
X49094145Y-56432200D01*
X49093988Y-56432718D01*
X49081728Y-56557200D01*
X49081728Y-57107200D01*
X49093988Y-57231682D01*
X49094145Y-57232200D01*
X49093988Y-57232718D01*
X49081728Y-57357200D01*
X49081728Y-57907200D01*
X49093988Y-58031682D01*
X49094145Y-58032200D01*
X49093988Y-58032718D01*
X49081728Y-58157200D01*
X49081728Y-58707200D01*
X49085762Y-58748162D01*
X49044800Y-58744128D01*
X48494800Y-58744128D01*
X48370318Y-58756388D01*
X48369137Y-58756746D01*
X48255550Y-58747200D01*
X48163467Y-58839283D01*
X48140306Y-58851663D01*
X48043615Y-58931015D01*
X47969800Y-59020959D01*
X47895985Y-58931015D01*
X47799294Y-58851663D01*
X47776133Y-58839283D01*
X47684050Y-58747200D01*
X47570463Y-58756746D01*
X47569282Y-58756388D01*
X47444800Y-58744128D01*
X46894800Y-58744128D01*
X46770318Y-58756388D01*
X46769800Y-58756545D01*
X46769282Y-58756388D01*
X46644800Y-58744128D01*
X46094800Y-58744128D01*
X45970318Y-58756388D01*
X45969800Y-58756545D01*
X45969282Y-58756388D01*
X45844800Y-58744128D01*
X45294800Y-58744128D01*
X45170318Y-58756388D01*
X45169800Y-58756545D01*
X45169282Y-58756388D01*
X45044800Y-58744128D01*
X44494800Y-58744128D01*
X44370318Y-58756388D01*
X44369800Y-58756545D01*
X44369282Y-58756388D01*
X44244800Y-58744128D01*
X43694800Y-58744128D01*
X43570318Y-58756388D01*
X43569800Y-58756545D01*
X43569282Y-58756388D01*
X43444800Y-58744128D01*
X42894800Y-58744128D01*
X42770318Y-58756388D01*
X42769800Y-58756545D01*
X42769282Y-58756388D01*
X42644800Y-58744128D01*
X42094800Y-58744128D01*
X41970318Y-58756388D01*
X41969137Y-58756746D01*
X41855550Y-58747200D01*
X41763467Y-58839283D01*
X41740306Y-58851663D01*
X41643615Y-58931015D01*
X41569800Y-59020959D01*
X41495985Y-58931015D01*
X41399294Y-58851663D01*
X41376133Y-58839283D01*
X41284050Y-58747200D01*
X41170463Y-58756746D01*
X41169282Y-58756388D01*
X41044800Y-58744128D01*
X40494800Y-58744128D01*
X40453838Y-58748162D01*
X40457872Y-58707200D01*
X40457872Y-58157200D01*
X40445612Y-58032718D01*
X40445455Y-58032200D01*
X40445612Y-58031682D01*
X40457872Y-57907200D01*
X40457872Y-57357200D01*
X40445612Y-57232718D01*
X40445455Y-57232200D01*
X40445612Y-57231682D01*
X40457872Y-57107200D01*
X40457872Y-56557200D01*
X40445612Y-56432718D01*
X40445455Y-56432200D01*
X40445612Y-56431682D01*
X40457872Y-56307200D01*
X40457872Y-55757200D01*
X40445612Y-55632718D01*
X40445254Y-55631537D01*
X40454800Y-55517950D01*
X40362717Y-55425867D01*
X40350337Y-55402706D01*
X40270985Y-55306015D01*
X40181041Y-55232200D01*
X40270985Y-55158385D01*
X40350337Y-55061694D01*
X40362717Y-55038533D01*
X40454800Y-54946450D01*
X40445254Y-54832863D01*
X40445612Y-54831682D01*
X40457872Y-54707200D01*
X40457872Y-54157200D01*
X40445612Y-54032718D01*
X40445455Y-54032200D01*
X40445612Y-54031682D01*
X40457872Y-53907200D01*
X40457872Y-53357200D01*
X40445612Y-53232718D01*
X40445455Y-53232200D01*
X40445612Y-53231682D01*
X40457872Y-53107200D01*
X40457872Y-52557200D01*
X40445612Y-52432718D01*
X40445455Y-52432200D01*
X40445612Y-52431682D01*
X40457872Y-52307200D01*
X40457872Y-51757200D01*
X40445612Y-51632718D01*
X40445455Y-51632200D01*
X40445612Y-51631682D01*
X40457872Y-51507200D01*
X40457872Y-50957200D01*
X40445612Y-50832718D01*
X40445455Y-50832200D01*
X40445612Y-50831682D01*
X40457872Y-50707200D01*
X40457872Y-50157200D01*
X40453838Y-50116238D01*
X40494800Y-50120272D01*
X41044800Y-50120272D01*
X41169282Y-50108012D01*
X41169800Y-50107855D01*
X41170318Y-50108012D01*
X41294800Y-50120272D01*
X41844800Y-50120272D01*
X41969282Y-50108012D01*
X41969800Y-50107855D01*
X41970318Y-50108012D01*
X42094800Y-50120272D01*
X42644800Y-50120272D01*
X42769282Y-50108012D01*
X42770463Y-50107654D01*
X42884050Y-50117200D01*
X42976133Y-50025117D01*
X42999294Y-50012737D01*
X43095985Y-49933385D01*
X43169800Y-49843441D01*
X43243615Y-49933385D01*
X43340306Y-50012737D01*
X43363467Y-50025117D01*
X43455550Y-50117200D01*
X43569137Y-50107654D01*
X43570318Y-50108012D01*
X43694800Y-50120272D01*
X44244800Y-50120272D01*
X44369282Y-50108012D01*
X44369800Y-50107855D01*
X44370318Y-50108012D01*
X44494800Y-50120272D01*
X45044800Y-50120272D01*
X45169282Y-50108012D01*
X45169800Y-50107855D01*
X45170318Y-50108012D01*
X45294800Y-50120272D01*
X45844800Y-50120272D01*
X45969282Y-50108012D01*
X45969800Y-50107855D01*
X45970318Y-50108012D01*
X46094800Y-50120272D01*
X46644800Y-50120272D01*
X46769282Y-50108012D01*
X46769800Y-50107855D01*
X46770318Y-50108012D01*
X46894800Y-50120272D01*
X47444800Y-50120272D01*
X47569282Y-50108012D01*
X47569800Y-50107855D01*
X47570318Y-50108012D01*
X47694800Y-50120272D01*
X48244800Y-50120272D01*
X48369282Y-50108012D01*
X48369800Y-50107855D01*
X48370318Y-50108012D01*
X48494800Y-50120272D01*
X49044800Y-50120272D01*
X49087352Y-50116081D01*
X49084800Y-50146450D01*
X49243550Y-50305200D01*
X50342800Y-50305200D01*
X50342800Y-49680950D01*
X50184050Y-49522200D01*
X49723013Y-49519136D01*
X49678828Y-49523264D01*
X49682872Y-49482200D01*
X49682872Y-47982200D01*
X49674853Y-47900777D01*
X51022112Y-46553518D01*
X51204434Y-46735840D01*
X51204434Y-46735840D01*
G37*
X51204434Y-46735840D02*
X51635009Y-47023541D01*
X51997526Y-47173701D01*
X52001295Y-47950107D01*
X51801800Y-47948628D01*
X51677318Y-47960888D01*
X51557620Y-47997198D01*
X51447306Y-48056163D01*
X51350615Y-48135515D01*
X51271263Y-48232206D01*
X51212298Y-48342520D01*
X51175988Y-48462218D01*
X51163728Y-48586700D01*
X51166800Y-48875950D01*
X51325550Y-49034700D01*
X52006560Y-49034700D01*
X52007793Y-49288700D01*
X51325550Y-49288700D01*
X51166800Y-49447450D01*
X51166035Y-49519472D01*
X50755550Y-49522200D01*
X50596800Y-49680950D01*
X50596800Y-50305200D01*
X50616800Y-50305200D01*
X50616800Y-50319128D01*
X49719800Y-50319128D01*
X49595318Y-50331388D01*
X49475620Y-50367698D01*
X49365306Y-50426663D01*
X49268615Y-50506015D01*
X49189263Y-50602706D01*
X49176883Y-50625867D01*
X49084800Y-50717950D01*
X49094346Y-50831537D01*
X49093988Y-50832718D01*
X49081728Y-50957200D01*
X49081728Y-51507200D01*
X49093988Y-51631682D01*
X49094145Y-51632200D01*
X49093988Y-51632718D01*
X49081728Y-51757200D01*
X49081728Y-52307200D01*
X49093988Y-52431682D01*
X49094145Y-52432200D01*
X49093988Y-52432718D01*
X49081728Y-52557200D01*
X49081728Y-53107200D01*
X49093988Y-53231682D01*
X49094145Y-53232200D01*
X49093988Y-53232718D01*
X49081728Y-53357200D01*
X49081728Y-53907200D01*
X49093988Y-54031682D01*
X49094145Y-54032200D01*
X49093988Y-54032718D01*
X49081728Y-54157200D01*
X49081728Y-54707200D01*
X49093988Y-54831682D01*
X49094145Y-54832200D01*
X49093988Y-54832718D01*
X49081728Y-54957200D01*
X49081728Y-55507200D01*
X49093988Y-55631682D01*
X49094145Y-55632200D01*
X49093988Y-55632718D01*
X49081728Y-55757200D01*
X49081728Y-56307200D01*
X49093988Y-56431682D01*
X49094145Y-56432200D01*
X49093988Y-56432718D01*
X49081728Y-56557200D01*
X49081728Y-57107200D01*
X49093988Y-57231682D01*
X49094145Y-57232200D01*
X49093988Y-57232718D01*
X49081728Y-57357200D01*
X49081728Y-57907200D01*
X49093988Y-58031682D01*
X49094145Y-58032200D01*
X49093988Y-58032718D01*
X49081728Y-58157200D01*
X49081728Y-58707200D01*
X49085762Y-58748162D01*
X49044800Y-58744128D01*
X48494800Y-58744128D01*
X48370318Y-58756388D01*
X48369137Y-58756746D01*
X48255550Y-58747200D01*
X48163467Y-58839283D01*
X48140306Y-58851663D01*
X48043615Y-58931015D01*
X47969800Y-59020959D01*
X47895985Y-58931015D01*
X47799294Y-58851663D01*
X47776133Y-58839283D01*
X47684050Y-58747200D01*
X47570463Y-58756746D01*
X47569282Y-58756388D01*
X47444800Y-58744128D01*
X46894800Y-58744128D01*
X46770318Y-58756388D01*
X46769800Y-58756545D01*
X46769282Y-58756388D01*
X46644800Y-58744128D01*
X46094800Y-58744128D01*
X45970318Y-58756388D01*
X45969800Y-58756545D01*
X45969282Y-58756388D01*
X45844800Y-58744128D01*
X45294800Y-58744128D01*
X45170318Y-58756388D01*
X45169800Y-58756545D01*
X45169282Y-58756388D01*
X45044800Y-58744128D01*
X44494800Y-58744128D01*
X44370318Y-58756388D01*
X44369800Y-58756545D01*
X44369282Y-58756388D01*
X44244800Y-58744128D01*
X43694800Y-58744128D01*
X43570318Y-58756388D01*
X43569800Y-58756545D01*
X43569282Y-58756388D01*
X43444800Y-58744128D01*
X42894800Y-58744128D01*
X42770318Y-58756388D01*
X42769800Y-58756545D01*
X42769282Y-58756388D01*
X42644800Y-58744128D01*
X42094800Y-58744128D01*
X41970318Y-58756388D01*
X41969137Y-58756746D01*
X41855550Y-58747200D01*
X41763467Y-58839283D01*
X41740306Y-58851663D01*
X41643615Y-58931015D01*
X41569800Y-59020959D01*
X41495985Y-58931015D01*
X41399294Y-58851663D01*
X41376133Y-58839283D01*
X41284050Y-58747200D01*
X41170463Y-58756746D01*
X41169282Y-58756388D01*
X41044800Y-58744128D01*
X40494800Y-58744128D01*
X40453838Y-58748162D01*
X40457872Y-58707200D01*
X40457872Y-58157200D01*
X40445612Y-58032718D01*
X40445455Y-58032200D01*
X40445612Y-58031682D01*
X40457872Y-57907200D01*
X40457872Y-57357200D01*
X40445612Y-57232718D01*
X40445455Y-57232200D01*
X40445612Y-57231682D01*
X40457872Y-57107200D01*
X40457872Y-56557200D01*
X40445612Y-56432718D01*
X40445455Y-56432200D01*
X40445612Y-56431682D01*
X40457872Y-56307200D01*
X40457872Y-55757200D01*
X40445612Y-55632718D01*
X40445254Y-55631537D01*
X40454800Y-55517950D01*
X40362717Y-55425867D01*
X40350337Y-55402706D01*
X40270985Y-55306015D01*
X40181041Y-55232200D01*
X40270985Y-55158385D01*
X40350337Y-55061694D01*
X40362717Y-55038533D01*
X40454800Y-54946450D01*
X40445254Y-54832863D01*
X40445612Y-54831682D01*
X40457872Y-54707200D01*
X40457872Y-54157200D01*
X40445612Y-54032718D01*
X40445455Y-54032200D01*
X40445612Y-54031682D01*
X40457872Y-53907200D01*
X40457872Y-53357200D01*
X40445612Y-53232718D01*
X40445455Y-53232200D01*
X40445612Y-53231682D01*
X40457872Y-53107200D01*
X40457872Y-52557200D01*
X40445612Y-52432718D01*
X40445455Y-52432200D01*
X40445612Y-52431682D01*
X40457872Y-52307200D01*
X40457872Y-51757200D01*
X40445612Y-51632718D01*
X40445455Y-51632200D01*
X40445612Y-51631682D01*
X40457872Y-51507200D01*
X40457872Y-50957200D01*
X40445612Y-50832718D01*
X40445455Y-50832200D01*
X40445612Y-50831682D01*
X40457872Y-50707200D01*
X40457872Y-50157200D01*
X40453838Y-50116238D01*
X40494800Y-50120272D01*
X41044800Y-50120272D01*
X41169282Y-50108012D01*
X41169800Y-50107855D01*
X41170318Y-50108012D01*
X41294800Y-50120272D01*
X41844800Y-50120272D01*
X41969282Y-50108012D01*
X41969800Y-50107855D01*
X41970318Y-50108012D01*
X42094800Y-50120272D01*
X42644800Y-50120272D01*
X42769282Y-50108012D01*
X42770463Y-50107654D01*
X42884050Y-50117200D01*
X42976133Y-50025117D01*
X42999294Y-50012737D01*
X43095985Y-49933385D01*
X43169800Y-49843441D01*
X43243615Y-49933385D01*
X43340306Y-50012737D01*
X43363467Y-50025117D01*
X43455550Y-50117200D01*
X43569137Y-50107654D01*
X43570318Y-50108012D01*
X43694800Y-50120272D01*
X44244800Y-50120272D01*
X44369282Y-50108012D01*
X44369800Y-50107855D01*
X44370318Y-50108012D01*
X44494800Y-50120272D01*
X45044800Y-50120272D01*
X45169282Y-50108012D01*
X45169800Y-50107855D01*
X45170318Y-50108012D01*
X45294800Y-50120272D01*
X45844800Y-50120272D01*
X45969282Y-50108012D01*
X45969800Y-50107855D01*
X45970318Y-50108012D01*
X46094800Y-50120272D01*
X46644800Y-50120272D01*
X46769282Y-50108012D01*
X46769800Y-50107855D01*
X46770318Y-50108012D01*
X46894800Y-50120272D01*
X47444800Y-50120272D01*
X47569282Y-50108012D01*
X47569800Y-50107855D01*
X47570318Y-50108012D01*
X47694800Y-50120272D01*
X48244800Y-50120272D01*
X48369282Y-50108012D01*
X48369800Y-50107855D01*
X48370318Y-50108012D01*
X48494800Y-50120272D01*
X49044800Y-50120272D01*
X49087352Y-50116081D01*
X49084800Y-50146450D01*
X49243550Y-50305200D01*
X50342800Y-50305200D01*
X50342800Y-49680950D01*
X50184050Y-49522200D01*
X49723013Y-49519136D01*
X49678828Y-49523264D01*
X49682872Y-49482200D01*
X49682872Y-47982200D01*
X49674853Y-47900777D01*
X51022112Y-46553518D01*
X51204434Y-46735840D01*
G36*
X36465787Y-55068845D02*
G01*
X36515379Y-55095352D01*
X36598165Y-55139602D01*
X36741802Y-55183174D01*
X36853754Y-55194200D01*
X36853757Y-55194200D01*
X36891180Y-55197886D01*
X36928603Y-55194200D01*
X37912256Y-55194200D01*
X37958559Y-55232200D01*
X37875355Y-55300484D01*
X37800714Y-55307835D01*
X37662166Y-55349863D01*
X37534479Y-55418113D01*
X37468574Y-55472200D01*
X36381505Y-55472200D01*
X36410832Y-55375522D01*
X36423092Y-55251040D01*
X36420765Y-55031896D01*
X36465787Y-55068845D01*
X36465787Y-55068845D01*
G37*
X36465787Y-55068845D02*
X36515379Y-55095352D01*
X36598165Y-55139602D01*
X36741802Y-55183174D01*
X36853754Y-55194200D01*
X36853757Y-55194200D01*
X36891180Y-55197886D01*
X36928603Y-55194200D01*
X37912256Y-55194200D01*
X37958559Y-55232200D01*
X37875355Y-55300484D01*
X37800714Y-55307835D01*
X37662166Y-55349863D01*
X37534479Y-55418113D01*
X37468574Y-55472200D01*
X36381505Y-55472200D01*
X36410832Y-55375522D01*
X36423092Y-55251040D01*
X36420765Y-55031896D01*
X36465787Y-55068845D01*
G36*
X45908049Y-42359732D02*
G01*
X46074645Y-42410268D01*
X46247899Y-42427332D01*
X47147901Y-42427332D01*
X47321155Y-42410268D01*
X47326466Y-42408657D01*
X47377896Y-42667213D01*
X47510568Y-42987513D01*
X47642898Y-43185559D01*
X47359809Y-43241869D01*
X47085007Y-43355696D01*
X46837691Y-43520947D01*
X46627367Y-43731271D01*
X46462116Y-43978587D01*
X46348289Y-44253389D01*
X46290260Y-44545118D01*
X46290260Y-44842562D01*
X46348289Y-45134291D01*
X46462116Y-45409093D01*
X46627367Y-45656409D01*
X46837691Y-45866733D01*
X47085007Y-46031984D01*
X47359809Y-46145811D01*
X47651538Y-46203840D01*
X47948982Y-46203840D01*
X48240711Y-46145811D01*
X48515513Y-46031984D01*
X48735126Y-45885244D01*
X47457449Y-47162921D01*
X47428379Y-47186778D01*
X47404522Y-47215848D01*
X47404521Y-47215849D01*
X47333155Y-47302808D01*
X47311069Y-47344128D01*
X46894800Y-47344128D01*
X46770318Y-47356388D01*
X46769800Y-47356545D01*
X46769282Y-47356388D01*
X46644800Y-47344128D01*
X46094800Y-47344128D01*
X45970318Y-47356388D01*
X45969800Y-47356545D01*
X45969282Y-47356388D01*
X45844800Y-47344128D01*
X45531800Y-47344128D01*
X45531800Y-42948782D01*
X45535486Y-42911359D01*
X45531800Y-42873934D01*
X45520774Y-42761982D01*
X45507289Y-42717529D01*
X45528280Y-42711162D01*
X45638594Y-42652197D01*
X45735285Y-42572845D01*
X45814637Y-42476154D01*
X45873602Y-42365840D01*
X45880002Y-42344741D01*
X45908049Y-42359732D01*
X45908049Y-42359732D01*
G37*
X45908049Y-42359732D02*
X46074645Y-42410268D01*
X46247899Y-42427332D01*
X47147901Y-42427332D01*
X47321155Y-42410268D01*
X47326466Y-42408657D01*
X47377896Y-42667213D01*
X47510568Y-42987513D01*
X47642898Y-43185559D01*
X47359809Y-43241869D01*
X47085007Y-43355696D01*
X46837691Y-43520947D01*
X46627367Y-43731271D01*
X46462116Y-43978587D01*
X46348289Y-44253389D01*
X46290260Y-44545118D01*
X46290260Y-44842562D01*
X46348289Y-45134291D01*
X46462116Y-45409093D01*
X46627367Y-45656409D01*
X46837691Y-45866733D01*
X47085007Y-46031984D01*
X47359809Y-46145811D01*
X47651538Y-46203840D01*
X47948982Y-46203840D01*
X48240711Y-46145811D01*
X48515513Y-46031984D01*
X48735126Y-45885244D01*
X47457449Y-47162921D01*
X47428379Y-47186778D01*
X47404522Y-47215848D01*
X47404521Y-47215849D01*
X47333155Y-47302808D01*
X47311069Y-47344128D01*
X46894800Y-47344128D01*
X46770318Y-47356388D01*
X46769800Y-47356545D01*
X46769282Y-47356388D01*
X46644800Y-47344128D01*
X46094800Y-47344128D01*
X45970318Y-47356388D01*
X45969800Y-47356545D01*
X45969282Y-47356388D01*
X45844800Y-47344128D01*
X45531800Y-47344128D01*
X45531800Y-42948782D01*
X45535486Y-42911359D01*
X45531800Y-42873934D01*
X45520774Y-42761982D01*
X45507289Y-42717529D01*
X45528280Y-42711162D01*
X45638594Y-42652197D01*
X45735285Y-42572845D01*
X45814637Y-42476154D01*
X45873602Y-42365840D01*
X45880002Y-42344741D01*
X45908049Y-42359732D01*
G36*
X51967289Y-40944790D02*
G01*
X51818471Y-40944790D01*
X51781048Y-40941104D01*
X51743625Y-40944790D01*
X51743622Y-40944790D01*
X51631670Y-40955816D01*
X51488033Y-40999388D01*
X51427198Y-41031905D01*
X51355655Y-41070145D01*
X51325784Y-41094660D01*
X51239626Y-41165368D01*
X51215769Y-41194438D01*
X50763805Y-41646403D01*
X50762624Y-41640467D01*
X50629952Y-41320167D01*
X50437341Y-41031905D01*
X50192195Y-40786759D01*
X49903933Y-40594148D01*
X49583633Y-40461476D01*
X49243605Y-40393840D01*
X48896915Y-40393840D01*
X48556887Y-40461476D01*
X48236587Y-40594148D01*
X48021088Y-40738140D01*
X48018908Y-40716005D01*
X47968372Y-40549409D01*
X47886305Y-40395873D01*
X47775862Y-40261298D01*
X47769306Y-40255918D01*
X47849085Y-40190445D01*
X47928437Y-40093754D01*
X47987402Y-39983440D01*
X48023712Y-39863742D01*
X48035972Y-39739260D01*
X48032900Y-39450010D01*
X47874150Y-39291260D01*
X46824900Y-39291260D01*
X46824900Y-39311260D01*
X46570900Y-39311260D01*
X46570900Y-39291260D01*
X46550900Y-39291260D01*
X46550900Y-39037260D01*
X46570900Y-39037260D01*
X46570900Y-38113010D01*
X46824900Y-38113010D01*
X46824900Y-39037260D01*
X47874150Y-39037260D01*
X48032900Y-38878510D01*
X48035972Y-38589260D01*
X48023712Y-38464778D01*
X47987402Y-38345080D01*
X47928437Y-38234766D01*
X47849085Y-38138075D01*
X47752394Y-38058723D01*
X47642080Y-37999758D01*
X47522382Y-37963448D01*
X47397900Y-37951188D01*
X46983650Y-37954260D01*
X46824900Y-38113010D01*
X46570900Y-38113010D01*
X46412150Y-37954260D01*
X45997900Y-37951188D01*
X45916026Y-37959252D01*
X45909912Y-37897178D01*
X45873602Y-37777480D01*
X45814637Y-37667166D01*
X45735285Y-37570475D01*
X45638594Y-37491123D01*
X45528280Y-37432158D01*
X45408582Y-37395848D01*
X45284100Y-37383588D01*
X44519850Y-37386660D01*
X44361100Y-37545410D01*
X44361100Y-38794660D01*
X44381100Y-38794660D01*
X44381100Y-39048660D01*
X44361100Y-39048660D01*
X44361100Y-39068660D01*
X44107100Y-39068660D01*
X44107100Y-39048660D01*
X44087100Y-39048660D01*
X44087100Y-38794660D01*
X44107100Y-38794660D01*
X44107100Y-37545410D01*
X43948350Y-37386660D01*
X43184100Y-37383588D01*
X43059618Y-37395848D01*
X42939920Y-37432158D01*
X42829606Y-37491123D01*
X42784100Y-37528469D01*
X42738594Y-37491123D01*
X42628280Y-37432158D01*
X42508582Y-37395848D01*
X42384100Y-37383588D01*
X40284100Y-37383588D01*
X40159618Y-37395848D01*
X40039920Y-37432158D01*
X39929606Y-37491123D01*
X39832915Y-37570475D01*
X39753563Y-37667166D01*
X39694598Y-37777480D01*
X39658288Y-37897178D01*
X39648314Y-37998453D01*
X39548755Y-37968252D01*
X39375501Y-37951188D01*
X38475499Y-37951188D01*
X38302245Y-37968252D01*
X38135649Y-38018788D01*
X37982113Y-38100855D01*
X37847538Y-38211298D01*
X37737095Y-38345873D01*
X37655028Y-38499409D01*
X37604492Y-38666005D01*
X37587428Y-38839259D01*
X37587428Y-39489261D01*
X37604492Y-39662515D01*
X37655028Y-39829111D01*
X37737095Y-39982647D01*
X37847538Y-40117222D01*
X37854094Y-40122602D01*
X37774315Y-40188075D01*
X37694963Y-40284766D01*
X37635998Y-40395080D01*
X37599688Y-40514778D01*
X37587428Y-40639260D01*
X37590500Y-40928510D01*
X37749250Y-41087260D01*
X38798500Y-41087260D01*
X38798500Y-41067260D01*
X39052500Y-41067260D01*
X39052500Y-41087260D01*
X39800450Y-41087260D01*
X39807850Y-41094660D01*
X41207100Y-41094660D01*
X41207100Y-41074660D01*
X41461100Y-41074660D01*
X41461100Y-41094660D01*
X41481100Y-41094660D01*
X41481100Y-41348660D01*
X41461100Y-41348660D01*
X41461100Y-42597910D01*
X41619850Y-42756660D01*
X42091899Y-42758557D01*
X42091900Y-46346473D01*
X42007893Y-46262466D01*
X41982036Y-46230959D01*
X41856337Y-46127801D01*
X41712929Y-46051147D01*
X41557321Y-46003944D01*
X41436048Y-45992000D01*
X41436045Y-45992000D01*
X41395495Y-45988006D01*
X41354945Y-45992000D01*
X39752468Y-45992000D01*
X39647862Y-45864538D01*
X39641306Y-45859158D01*
X39721085Y-45793685D01*
X39800437Y-45696994D01*
X39859402Y-45586680D01*
X39895712Y-45466982D01*
X39907972Y-45342500D01*
X39904900Y-45053250D01*
X39746150Y-44894500D01*
X38696900Y-44894500D01*
X38696900Y-44914500D01*
X38442900Y-44914500D01*
X38442900Y-44894500D01*
X37393650Y-44894500D01*
X37234900Y-45053250D01*
X37231828Y-45342500D01*
X37244088Y-45466982D01*
X37280398Y-45586680D01*
X37321038Y-45662712D01*
X37186249Y-45635900D01*
X37002071Y-45635900D01*
X36821431Y-45671832D01*
X36670126Y-45734504D01*
X36574462Y-45617938D01*
X36439887Y-45507495D01*
X36402659Y-45487596D01*
X36408945Y-44192500D01*
X37231828Y-44192500D01*
X37234900Y-44481750D01*
X37393650Y-44640500D01*
X38442900Y-44640500D01*
X38442900Y-43716250D01*
X38696900Y-43716250D01*
X38696900Y-44640500D01*
X39746150Y-44640500D01*
X39904900Y-44481750D01*
X39907972Y-44192500D01*
X39895712Y-44068018D01*
X39859402Y-43948320D01*
X39800437Y-43838006D01*
X39721085Y-43741315D01*
X39624394Y-43661963D01*
X39514080Y-43602998D01*
X39394382Y-43566688D01*
X39269900Y-43554428D01*
X38855650Y-43557500D01*
X38696900Y-43716250D01*
X38442900Y-43716250D01*
X38284150Y-43557500D01*
X37869900Y-43554428D01*
X37745418Y-43566688D01*
X37625720Y-43602998D01*
X37515406Y-43661963D01*
X37418715Y-43741315D01*
X37339363Y-43838006D01*
X37280398Y-43948320D01*
X37244088Y-44068018D01*
X37231828Y-44192500D01*
X36408945Y-44192500D01*
X36420611Y-41789260D01*
X37587428Y-41789260D01*
X37599688Y-41913742D01*
X37635998Y-42033440D01*
X37694963Y-42143754D01*
X37774315Y-42240445D01*
X37871006Y-42319797D01*
X37981320Y-42378762D01*
X38101018Y-42415072D01*
X38225500Y-42427332D01*
X38639750Y-42424260D01*
X38798500Y-42265510D01*
X38798500Y-41341260D01*
X39052500Y-41341260D01*
X39052500Y-42265510D01*
X39211250Y-42424260D01*
X39625500Y-42427332D01*
X39722367Y-42417792D01*
X39753563Y-42476154D01*
X39832915Y-42572845D01*
X39929606Y-42652197D01*
X40039920Y-42711162D01*
X40159618Y-42747472D01*
X40284100Y-42759732D01*
X41048350Y-42756660D01*
X41207100Y-42597910D01*
X41207100Y-41348660D01*
X40109150Y-41348660D01*
X40101750Y-41341260D01*
X39052500Y-41341260D01*
X38798500Y-41341260D01*
X37749250Y-41341260D01*
X37590500Y-41500010D01*
X37587428Y-41789260D01*
X36420611Y-41789260D01*
X36433213Y-39193417D01*
X39558630Y-36068000D01*
X51943615Y-36068000D01*
X51967289Y-40944790D01*
X51967289Y-40944790D01*
G37*
X51967289Y-40944790D02*
X51818471Y-40944790D01*
X51781048Y-40941104D01*
X51743625Y-40944790D01*
X51743622Y-40944790D01*
X51631670Y-40955816D01*
X51488033Y-40999388D01*
X51427198Y-41031905D01*
X51355655Y-41070145D01*
X51325784Y-41094660D01*
X51239626Y-41165368D01*
X51215769Y-41194438D01*
X50763805Y-41646403D01*
X50762624Y-41640467D01*
X50629952Y-41320167D01*
X50437341Y-41031905D01*
X50192195Y-40786759D01*
X49903933Y-40594148D01*
X49583633Y-40461476D01*
X49243605Y-40393840D01*
X48896915Y-40393840D01*
X48556887Y-40461476D01*
X48236587Y-40594148D01*
X48021088Y-40738140D01*
X48018908Y-40716005D01*
X47968372Y-40549409D01*
X47886305Y-40395873D01*
X47775862Y-40261298D01*
X47769306Y-40255918D01*
X47849085Y-40190445D01*
X47928437Y-40093754D01*
X47987402Y-39983440D01*
X48023712Y-39863742D01*
X48035972Y-39739260D01*
X48032900Y-39450010D01*
X47874150Y-39291260D01*
X46824900Y-39291260D01*
X46824900Y-39311260D01*
X46570900Y-39311260D01*
X46570900Y-39291260D01*
X46550900Y-39291260D01*
X46550900Y-39037260D01*
X46570900Y-39037260D01*
X46570900Y-38113010D01*
X46824900Y-38113010D01*
X46824900Y-39037260D01*
X47874150Y-39037260D01*
X48032900Y-38878510D01*
X48035972Y-38589260D01*
X48023712Y-38464778D01*
X47987402Y-38345080D01*
X47928437Y-38234766D01*
X47849085Y-38138075D01*
X47752394Y-38058723D01*
X47642080Y-37999758D01*
X47522382Y-37963448D01*
X47397900Y-37951188D01*
X46983650Y-37954260D01*
X46824900Y-38113010D01*
X46570900Y-38113010D01*
X46412150Y-37954260D01*
X45997900Y-37951188D01*
X45916026Y-37959252D01*
X45909912Y-37897178D01*
X45873602Y-37777480D01*
X45814637Y-37667166D01*
X45735285Y-37570475D01*
X45638594Y-37491123D01*
X45528280Y-37432158D01*
X45408582Y-37395848D01*
X45284100Y-37383588D01*
X44519850Y-37386660D01*
X44361100Y-37545410D01*
X44361100Y-38794660D01*
X44381100Y-38794660D01*
X44381100Y-39048660D01*
X44361100Y-39048660D01*
X44361100Y-39068660D01*
X44107100Y-39068660D01*
X44107100Y-39048660D01*
X44087100Y-39048660D01*
X44087100Y-38794660D01*
X44107100Y-38794660D01*
X44107100Y-37545410D01*
X43948350Y-37386660D01*
X43184100Y-37383588D01*
X43059618Y-37395848D01*
X42939920Y-37432158D01*
X42829606Y-37491123D01*
X42784100Y-37528469D01*
X42738594Y-37491123D01*
X42628280Y-37432158D01*
X42508582Y-37395848D01*
X42384100Y-37383588D01*
X40284100Y-37383588D01*
X40159618Y-37395848D01*
X40039920Y-37432158D01*
X39929606Y-37491123D01*
X39832915Y-37570475D01*
X39753563Y-37667166D01*
X39694598Y-37777480D01*
X39658288Y-37897178D01*
X39648314Y-37998453D01*
X39548755Y-37968252D01*
X39375501Y-37951188D01*
X38475499Y-37951188D01*
X38302245Y-37968252D01*
X38135649Y-38018788D01*
X37982113Y-38100855D01*
X37847538Y-38211298D01*
X37737095Y-38345873D01*
X37655028Y-38499409D01*
X37604492Y-38666005D01*
X37587428Y-38839259D01*
X37587428Y-39489261D01*
X37604492Y-39662515D01*
X37655028Y-39829111D01*
X37737095Y-39982647D01*
X37847538Y-40117222D01*
X37854094Y-40122602D01*
X37774315Y-40188075D01*
X37694963Y-40284766D01*
X37635998Y-40395080D01*
X37599688Y-40514778D01*
X37587428Y-40639260D01*
X37590500Y-40928510D01*
X37749250Y-41087260D01*
X38798500Y-41087260D01*
X38798500Y-41067260D01*
X39052500Y-41067260D01*
X39052500Y-41087260D01*
X39800450Y-41087260D01*
X39807850Y-41094660D01*
X41207100Y-41094660D01*
X41207100Y-41074660D01*
X41461100Y-41074660D01*
X41461100Y-41094660D01*
X41481100Y-41094660D01*
X41481100Y-41348660D01*
X41461100Y-41348660D01*
X41461100Y-42597910D01*
X41619850Y-42756660D01*
X42091899Y-42758557D01*
X42091900Y-46346473D01*
X42007893Y-46262466D01*
X41982036Y-46230959D01*
X41856337Y-46127801D01*
X41712929Y-46051147D01*
X41557321Y-46003944D01*
X41436048Y-45992000D01*
X41436045Y-45992000D01*
X41395495Y-45988006D01*
X41354945Y-45992000D01*
X39752468Y-45992000D01*
X39647862Y-45864538D01*
X39641306Y-45859158D01*
X39721085Y-45793685D01*
X39800437Y-45696994D01*
X39859402Y-45586680D01*
X39895712Y-45466982D01*
X39907972Y-45342500D01*
X39904900Y-45053250D01*
X39746150Y-44894500D01*
X38696900Y-44894500D01*
X38696900Y-44914500D01*
X38442900Y-44914500D01*
X38442900Y-44894500D01*
X37393650Y-44894500D01*
X37234900Y-45053250D01*
X37231828Y-45342500D01*
X37244088Y-45466982D01*
X37280398Y-45586680D01*
X37321038Y-45662712D01*
X37186249Y-45635900D01*
X37002071Y-45635900D01*
X36821431Y-45671832D01*
X36670126Y-45734504D01*
X36574462Y-45617938D01*
X36439887Y-45507495D01*
X36402659Y-45487596D01*
X36408945Y-44192500D01*
X37231828Y-44192500D01*
X37234900Y-44481750D01*
X37393650Y-44640500D01*
X38442900Y-44640500D01*
X38442900Y-43716250D01*
X38696900Y-43716250D01*
X38696900Y-44640500D01*
X39746150Y-44640500D01*
X39904900Y-44481750D01*
X39907972Y-44192500D01*
X39895712Y-44068018D01*
X39859402Y-43948320D01*
X39800437Y-43838006D01*
X39721085Y-43741315D01*
X39624394Y-43661963D01*
X39514080Y-43602998D01*
X39394382Y-43566688D01*
X39269900Y-43554428D01*
X38855650Y-43557500D01*
X38696900Y-43716250D01*
X38442900Y-43716250D01*
X38284150Y-43557500D01*
X37869900Y-43554428D01*
X37745418Y-43566688D01*
X37625720Y-43602998D01*
X37515406Y-43661963D01*
X37418715Y-43741315D01*
X37339363Y-43838006D01*
X37280398Y-43948320D01*
X37244088Y-44068018D01*
X37231828Y-44192500D01*
X36408945Y-44192500D01*
X36420611Y-41789260D01*
X37587428Y-41789260D01*
X37599688Y-41913742D01*
X37635998Y-42033440D01*
X37694963Y-42143754D01*
X37774315Y-42240445D01*
X37871006Y-42319797D01*
X37981320Y-42378762D01*
X38101018Y-42415072D01*
X38225500Y-42427332D01*
X38639750Y-42424260D01*
X38798500Y-42265510D01*
X38798500Y-41341260D01*
X39052500Y-41341260D01*
X39052500Y-42265510D01*
X39211250Y-42424260D01*
X39625500Y-42427332D01*
X39722367Y-42417792D01*
X39753563Y-42476154D01*
X39832915Y-42572845D01*
X39929606Y-42652197D01*
X40039920Y-42711162D01*
X40159618Y-42747472D01*
X40284100Y-42759732D01*
X41048350Y-42756660D01*
X41207100Y-42597910D01*
X41207100Y-41348660D01*
X40109150Y-41348660D01*
X40101750Y-41341260D01*
X39052500Y-41341260D01*
X38798500Y-41341260D01*
X37749250Y-41341260D01*
X37590500Y-41500010D01*
X37587428Y-41789260D01*
X36420611Y-41789260D01*
X36433213Y-39193417D01*
X39558630Y-36068000D01*
X51943615Y-36068000D01*
X51967289Y-40944790D01*
G36*
X36738400Y-16917700D02*
G01*
X36738400Y-17217700D01*
X37746400Y-17217700D01*
X37746400Y-17197700D01*
X38000400Y-17197700D01*
X38000400Y-17217700D01*
X38020400Y-17217700D01*
X38020400Y-17471700D01*
X38000400Y-17471700D01*
X38000400Y-18612654D01*
X38121101Y-18699735D01*
X38189520Y-19885679D01*
X38175274Y-19880581D01*
X38000400Y-20006746D01*
X38000400Y-21397700D01*
X38020400Y-21397700D01*
X38020400Y-21651700D01*
X38000400Y-21651700D01*
X38000400Y-21671700D01*
X37746400Y-21671700D01*
X37746400Y-21651700D01*
X37726400Y-21651700D01*
X37726400Y-21397700D01*
X37746400Y-21397700D01*
X37746400Y-20006746D01*
X37571526Y-19880581D01*
X37348424Y-19960424D01*
X37160636Y-20082331D01*
X37016284Y-20222906D01*
X36898131Y-20143959D01*
X36723422Y-20071592D01*
X36537952Y-20034700D01*
X36348848Y-20034700D01*
X36163378Y-20071592D01*
X35988669Y-20143959D01*
X35831436Y-20249019D01*
X35697719Y-20382736D01*
X35592659Y-20539969D01*
X35520292Y-20714678D01*
X35483400Y-20900148D01*
X35483400Y-21079583D01*
X35453400Y-21076628D01*
X35153400Y-21076628D01*
X35053400Y-21086477D01*
X34962616Y-21077536D01*
X34940045Y-21035308D01*
X34844822Y-20919278D01*
X34815747Y-20895417D01*
X34792483Y-20872153D01*
X34768621Y-20843077D01*
X34652591Y-20747854D01*
X34520214Y-20677097D01*
X34376577Y-20633525D01*
X34264625Y-20622499D01*
X34264622Y-20622499D01*
X34227199Y-20618813D01*
X34189776Y-20622499D01*
X33426662Y-20622499D01*
X33389239Y-20618813D01*
X33351816Y-20622499D01*
X33351813Y-20622499D01*
X33239861Y-20633525D01*
X33096224Y-20677097D01*
X32963847Y-20747854D01*
X32847817Y-20843077D01*
X32823952Y-20872156D01*
X32791051Y-20905057D01*
X32761979Y-20928916D01*
X32738122Y-20957986D01*
X32738121Y-20957987D01*
X32666755Y-21044946D01*
X32649622Y-21077000D01*
X32553400Y-21086477D01*
X32453400Y-21076628D01*
X32153400Y-21076628D01*
X32053400Y-21086477D01*
X31953400Y-21076628D01*
X31653400Y-21076628D01*
X31623400Y-21079583D01*
X31623400Y-20900148D01*
X31586508Y-20714678D01*
X31514141Y-20539969D01*
X31409081Y-20382736D01*
X31275364Y-20249019D01*
X31118131Y-20143959D01*
X30943422Y-20071592D01*
X30757952Y-20034700D01*
X30568848Y-20034700D01*
X30383378Y-20071592D01*
X30208669Y-20143959D01*
X30090516Y-20222906D01*
X29946164Y-20082331D01*
X29758376Y-19960424D01*
X29535274Y-19880581D01*
X29360400Y-20006746D01*
X29360400Y-21397700D01*
X29380400Y-21397700D01*
X29380400Y-21651700D01*
X29360400Y-21651700D01*
X29360400Y-21671700D01*
X29106400Y-21671700D01*
X29106400Y-21651700D01*
X29086400Y-21651700D01*
X29086400Y-21397700D01*
X29106400Y-21397700D01*
X29106400Y-20006746D01*
X28931526Y-19880581D01*
X28865409Y-19904243D01*
X28932693Y-18737977D01*
X29106400Y-18612654D01*
X29106400Y-17471700D01*
X29360400Y-17471700D01*
X29360400Y-18612654D01*
X29535274Y-18738819D01*
X29758376Y-18658976D01*
X29946164Y-18537069D01*
X30106561Y-18380869D01*
X30233403Y-18196378D01*
X30321815Y-17990687D01*
X30368400Y-17771700D01*
X30368400Y-17471700D01*
X36738400Y-17471700D01*
X36738400Y-17771700D01*
X36784985Y-17990687D01*
X36873397Y-18196378D01*
X37000239Y-18380869D01*
X37160636Y-18537069D01*
X37348424Y-18658976D01*
X37571526Y-18738819D01*
X37746400Y-18612654D01*
X37746400Y-17471700D01*
X36738400Y-17471700D01*
X30368400Y-17471700D01*
X29360400Y-17471700D01*
X29106400Y-17471700D01*
X29086400Y-17471700D01*
X29086400Y-17217700D01*
X29106400Y-17217700D01*
X29106400Y-17197700D01*
X29360400Y-17197700D01*
X29360400Y-17217700D01*
X30368400Y-17217700D01*
X30368400Y-16917700D01*
X30341022Y-16789000D01*
X36765778Y-16789000D01*
X36738400Y-16917700D01*
X36738400Y-16917700D01*
G37*
X36738400Y-16917700D02*
X36738400Y-17217700D01*
X37746400Y-17217700D01*
X37746400Y-17197700D01*
X38000400Y-17197700D01*
X38000400Y-17217700D01*
X38020400Y-17217700D01*
X38020400Y-17471700D01*
X38000400Y-17471700D01*
X38000400Y-18612654D01*
X38121101Y-18699735D01*
X38189520Y-19885679D01*
X38175274Y-19880581D01*
X38000400Y-20006746D01*
X38000400Y-21397700D01*
X38020400Y-21397700D01*
X38020400Y-21651700D01*
X38000400Y-21651700D01*
X38000400Y-21671700D01*
X37746400Y-21671700D01*
X37746400Y-21651700D01*
X37726400Y-21651700D01*
X37726400Y-21397700D01*
X37746400Y-21397700D01*
X37746400Y-20006746D01*
X37571526Y-19880581D01*
X37348424Y-19960424D01*
X37160636Y-20082331D01*
X37016284Y-20222906D01*
X36898131Y-20143959D01*
X36723422Y-20071592D01*
X36537952Y-20034700D01*
X36348848Y-20034700D01*
X36163378Y-20071592D01*
X35988669Y-20143959D01*
X35831436Y-20249019D01*
X35697719Y-20382736D01*
X35592659Y-20539969D01*
X35520292Y-20714678D01*
X35483400Y-20900148D01*
X35483400Y-21079583D01*
X35453400Y-21076628D01*
X35153400Y-21076628D01*
X35053400Y-21086477D01*
X34962616Y-21077536D01*
X34940045Y-21035308D01*
X34844822Y-20919278D01*
X34815747Y-20895417D01*
X34792483Y-20872153D01*
X34768621Y-20843077D01*
X34652591Y-20747854D01*
X34520214Y-20677097D01*
X34376577Y-20633525D01*
X34264625Y-20622499D01*
X34264622Y-20622499D01*
X34227199Y-20618813D01*
X34189776Y-20622499D01*
X33426662Y-20622499D01*
X33389239Y-20618813D01*
X33351816Y-20622499D01*
X33351813Y-20622499D01*
X33239861Y-20633525D01*
X33096224Y-20677097D01*
X32963847Y-20747854D01*
X32847817Y-20843077D01*
X32823952Y-20872156D01*
X32791051Y-20905057D01*
X32761979Y-20928916D01*
X32738122Y-20957986D01*
X32738121Y-20957987D01*
X32666755Y-21044946D01*
X32649622Y-21077000D01*
X32553400Y-21086477D01*
X32453400Y-21076628D01*
X32153400Y-21076628D01*
X32053400Y-21086477D01*
X31953400Y-21076628D01*
X31653400Y-21076628D01*
X31623400Y-21079583D01*
X31623400Y-20900148D01*
X31586508Y-20714678D01*
X31514141Y-20539969D01*
X31409081Y-20382736D01*
X31275364Y-20249019D01*
X31118131Y-20143959D01*
X30943422Y-20071592D01*
X30757952Y-20034700D01*
X30568848Y-20034700D01*
X30383378Y-20071592D01*
X30208669Y-20143959D01*
X30090516Y-20222906D01*
X29946164Y-20082331D01*
X29758376Y-19960424D01*
X29535274Y-19880581D01*
X29360400Y-20006746D01*
X29360400Y-21397700D01*
X29380400Y-21397700D01*
X29380400Y-21651700D01*
X29360400Y-21651700D01*
X29360400Y-21671700D01*
X29106400Y-21671700D01*
X29106400Y-21651700D01*
X29086400Y-21651700D01*
X29086400Y-21397700D01*
X29106400Y-21397700D01*
X29106400Y-20006746D01*
X28931526Y-19880581D01*
X28865409Y-19904243D01*
X28932693Y-18737977D01*
X29106400Y-18612654D01*
X29106400Y-17471700D01*
X29360400Y-17471700D01*
X29360400Y-18612654D01*
X29535274Y-18738819D01*
X29758376Y-18658976D01*
X29946164Y-18537069D01*
X30106561Y-18380869D01*
X30233403Y-18196378D01*
X30321815Y-17990687D01*
X30368400Y-17771700D01*
X30368400Y-17471700D01*
X36738400Y-17471700D01*
X36738400Y-17771700D01*
X36784985Y-17990687D01*
X36873397Y-18196378D01*
X37000239Y-18380869D01*
X37160636Y-18537069D01*
X37348424Y-18658976D01*
X37571526Y-18738819D01*
X37746400Y-18612654D01*
X37746400Y-17471700D01*
X36738400Y-17471700D01*
X30368400Y-17471700D01*
X29360400Y-17471700D01*
X29106400Y-17471700D01*
X29086400Y-17471700D01*
X29086400Y-17217700D01*
X29106400Y-17217700D01*
X29106400Y-17197700D01*
X29360400Y-17197700D01*
X29360400Y-17217700D01*
X30368400Y-17217700D01*
X30368400Y-16917700D01*
X30341022Y-16789000D01*
X36765778Y-16789000D01*
X36738400Y-16917700D01*
M02*
