G04 #@! TF.GenerationSoftware,KiCad,Pcbnew,(5.1.4)-1*
G04 #@! TF.CreationDate,2021-06-08T22:07:55-07:00*
G04 #@! TF.ProjectId,Build,4275696c-642e-46b6-9963-61645f706362,rev?*
G04 #@! TF.SameCoordinates,Original*
G04 #@! TF.FileFunction,Legend,Top*
G04 #@! TF.FilePolarity,Positive*
%FSLAX46Y46*%
G04 Gerber Fmt 4.6, Leading zero omitted, Abs format (unit mm)*
G04 Created by KiCad (PCBNEW (5.1.4)-1) date 2021-06-08 22:07:55*
%MOMM*%
%LPD*%
G04 APERTURE LIST*
%ADD10C,4.502000*%
%ADD11O,10.102000X4.602000*%
%ADD12C,4.089800*%
%ADD13C,1.852000*%
%ADD14C,3.150000*%
%ADD15C,0.752000*%
%ADD16O,1.102000X2.202000*%
%ADD17O,1.102000X1.702000*%
G04 APERTURE END LIST*
%LPC*%
D10*
X271907000Y-44577000D03*
D11*
X299402500Y-73279000D03*
X15938500Y-73279000D03*
D12*
X36255960Y-82806540D03*
D13*
X31175960Y-82806540D03*
X41335960Y-82806540D03*
D14*
X24349710Y-75821540D03*
X48162210Y-75821540D03*
D12*
X24349710Y-91061540D03*
X48162210Y-91061540D03*
D10*
X143383000Y-63627000D03*
D12*
X52880260Y-44693840D03*
D13*
X47800260Y-44693840D03*
X57960260Y-44693840D03*
D12*
X279067260Y-63756540D03*
D13*
X273987260Y-63756540D03*
X284147260Y-63756540D03*
D14*
X267161010Y-56771540D03*
X290973510Y-56771540D03*
D12*
X267161010Y-72011540D03*
X290973510Y-72011540D03*
X29016960Y-44706540D03*
D13*
X23936960Y-44706540D03*
X34096960Y-44706540D03*
D12*
X86217760Y-82806540D03*
D13*
X81137760Y-82806540D03*
X91297760Y-82806540D03*
D12*
X281492960Y-25656540D03*
D13*
X276412960Y-25656540D03*
X286572960Y-25656540D03*
D14*
X269586710Y-18671540D03*
X293399210Y-18671540D03*
D12*
X269586710Y-33911540D03*
X293399210Y-33911540D03*
X31496000Y-63754000D03*
D13*
X26416000Y-63754000D03*
X36576000Y-63754000D03*
D15*
X36443400Y-20994700D03*
X30663400Y-20994700D03*
D16*
X29233400Y-21524700D03*
X37873400Y-21524700D03*
D17*
X29233400Y-17344700D03*
X37873400Y-17344700D03*
D12*
X67116960Y-82806540D03*
D13*
X62036960Y-82806540D03*
X72196960Y-82806540D03*
D12*
X148104860Y-44693840D03*
D13*
X143024860Y-44693840D03*
X153184860Y-44693840D03*
D12*
X50492660Y-101818440D03*
D13*
X45412660Y-101818440D03*
X55572660Y-101818440D03*
D12*
X71930260Y-44655740D03*
D13*
X66850260Y-44655740D03*
X77010260Y-44655740D03*
D12*
X124292360Y-82755740D03*
D13*
X119212360Y-82755740D03*
X129372360Y-82755740D03*
D12*
X271955260Y-82831940D03*
D13*
X266875260Y-82831940D03*
X277035260Y-82831940D03*
D12*
X167205660Y-44668440D03*
D13*
X162125660Y-44668440D03*
X172285660Y-44668440D03*
D12*
X129092960Y-44719240D03*
D13*
X124012960Y-44719240D03*
X134172960Y-44719240D03*
D12*
X145796000Y-101854000D03*
D13*
X150876000Y-101854000D03*
X140716000Y-101854000D03*
D14*
X195795900Y-108839000D03*
X95796100Y-108839000D03*
D12*
X195795900Y-93599000D03*
X95796100Y-93599000D03*
X76641960Y-63756540D03*
D13*
X71561960Y-63756540D03*
X81721960Y-63756540D03*
D12*
X245805960Y-82806540D03*
D13*
X240725960Y-82806540D03*
X250885960Y-82806540D03*
D12*
X291017960Y-101856540D03*
D13*
X285937960Y-101856540D03*
X296097960Y-101856540D03*
D12*
X214792560Y-101818440D03*
D13*
X209712560Y-101818440D03*
X219872560Y-101818440D03*
D12*
X110030260Y-44655740D03*
D13*
X104950260Y-44655740D03*
X115110260Y-44655740D03*
D12*
X224317560Y-44693840D03*
D13*
X219237560Y-44693840D03*
X229397560Y-44693840D03*
D12*
X205229460Y-44693840D03*
D13*
X200149460Y-44693840D03*
X210309460Y-44693840D03*
D12*
X162430460Y-82793840D03*
D13*
X157350460Y-82793840D03*
X167510460Y-82793840D03*
D12*
X181480460Y-82819240D03*
D13*
X176400460Y-82819240D03*
X186560460Y-82819240D03*
D12*
X252917960Y-101818440D03*
D13*
X247837960Y-101818440D03*
X257997960Y-101818440D03*
D12*
X210055460Y-63731140D03*
D13*
X204975460Y-63731140D03*
X215135460Y-63731140D03*
D12*
X190992760Y-63731140D03*
D13*
X185912760Y-63731140D03*
X196072760Y-63731140D03*
D12*
X171968160Y-63756540D03*
D13*
X166888160Y-63756540D03*
X177048160Y-63756540D03*
D12*
X186232800Y-44709080D03*
D13*
X181152800Y-44709080D03*
X191312800Y-44709080D03*
D12*
X152892760Y-63756540D03*
D13*
X147812760Y-63756540D03*
X157972760Y-63756540D03*
D12*
X133830060Y-63756540D03*
D13*
X128750060Y-63756540D03*
X138910060Y-63756540D03*
D12*
X233880660Y-101805740D03*
D13*
X228800660Y-101805740D03*
X238960660Y-101805740D03*
D12*
X114792760Y-63718440D03*
D13*
X109712760Y-63718440D03*
X119872760Y-63718440D03*
D12*
X24330660Y-25631140D03*
D13*
X19250660Y-25631140D03*
X29410660Y-25631140D03*
D12*
X90980260Y-44719240D03*
D13*
X85900260Y-44719240D03*
X96060260Y-44719240D03*
D12*
X271967960Y-101805740D03*
D13*
X266887960Y-101805740D03*
X277047960Y-101805740D03*
D12*
X95755460Y-63718440D03*
D13*
X90675460Y-63718440D03*
X100835460Y-63718440D03*
D12*
X26730960Y-101856540D03*
D13*
X21650960Y-101856540D03*
X31810960Y-101856540D03*
D12*
X105229660Y-82793840D03*
D13*
X100149660Y-82793840D03*
X110309660Y-82793840D03*
D12*
X143342360Y-82819240D03*
D13*
X138262360Y-82819240D03*
X148422360Y-82819240D03*
D12*
X74355960Y-101856540D03*
D13*
X69275960Y-101856540D03*
X79435960Y-101856540D03*
D12*
X57680860Y-63731140D03*
D13*
X52600860Y-63731140D03*
X62760860Y-63731140D03*
D12*
X262379460Y-44643040D03*
D13*
X257299460Y-44643040D03*
X267459460Y-44643040D03*
D12*
X286258000Y-44704000D03*
D13*
X281178000Y-44704000D03*
X291338000Y-44704000D03*
D12*
X243354860Y-44719240D03*
D13*
X238274860Y-44719240D03*
X248434860Y-44719240D03*
D12*
X252905260Y-25643840D03*
D13*
X247825260Y-25643840D03*
X257985260Y-25643840D03*
D12*
X229168960Y-63820040D03*
D13*
X224088960Y-63820040D03*
X234248960Y-63820040D03*
D12*
X291017960Y-82804000D03*
D13*
X285937960Y-82804000D03*
X296097960Y-82804000D03*
D12*
X233867960Y-25656540D03*
D13*
X228787960Y-25656540D03*
X238947960Y-25656540D03*
D12*
X248218960Y-63756540D03*
D13*
X243138960Y-63756540D03*
X253298960Y-63756540D03*
D12*
X195778120Y-25600660D03*
D13*
X190698120Y-25600660D03*
X200858120Y-25600660D03*
D12*
X176690020Y-25646380D03*
D13*
X171610020Y-25646380D03*
X181770020Y-25646380D03*
D12*
X157655260Y-25605740D03*
D13*
X152575260Y-25605740D03*
X162735260Y-25605740D03*
D12*
X138579860Y-25618440D03*
D13*
X133499860Y-25618440D03*
X143659860Y-25618440D03*
D12*
X119517160Y-25580340D03*
D13*
X114437160Y-25580340D03*
X124597160Y-25580340D03*
D12*
X100505260Y-25605740D03*
D13*
X95425260Y-25605740D03*
X105585260Y-25605740D03*
D12*
X81473040Y-25626060D03*
D13*
X76393040Y-25626060D03*
X86553040Y-25626060D03*
D12*
X62367160Y-25631140D03*
D13*
X57287160Y-25631140D03*
X67447160Y-25631140D03*
D12*
X43329860Y-25669240D03*
D13*
X38249860Y-25669240D03*
X48409860Y-25669240D03*
D12*
X214817960Y-25631140D03*
D13*
X209737960Y-25631140D03*
X219897960Y-25631140D03*
D12*
X219580460Y-82870040D03*
D13*
X214500460Y-82870040D03*
X224660460Y-82870040D03*
D12*
X200479660Y-82793840D03*
D13*
X195399660Y-82793840D03*
X205559660Y-82793840D03*
M02*
